<svg xmlns="http://www.w3.org/2000/svg" xmlns:xlink="http://www.w3.org/1999/xlink" width="692" zoomAndPan="magnify" viewBox="0 0 519 469.499982" height="626" preserveAspectRatio="xMidYMid meet" version="1.0"><path fill="#caddff" d="M 52.699219 362.820312 C 64.941406 392.464844 93.53125 406.496094 111.804688 415.464844 C 183.828125 450.816406 293.226562 446.722656 371.949219 382.332031 C 390.375 367.261719 481.171875 288.320312 459.984375 181.355469 C 441.253906 86.800781 347.191406 31.910156 267.992188 24.585938 C 202.382812 18.519531 116.707031 42.34375 86.445312 100.007812 C 67.417969 136.273438 90.304688 147.800781 74.761719 229.976562 C 61.3125 301.101562 37.722656 326.558594 52.699219 362.820312 " fill-opacity="1" fill-rule="nonzero"/><path fill="#ffffff" d="M 226.390625 437.546875 C 226.390625 437.546875 231.4375 400.121094 256.96875 378.027344 C 257.824219 377.289062 260.628906 380.710938 261.527344 380.007812 C 262.675781 379.109375 261.941406 374.101562 263.167969 373.269531 C 267.734375 370.179688 272.847656 367.578125 278.570312 365.671875 C 278.570312 365.671875 278.511719 377.707031 272.582031 392.441406 C 272.132812 393.550781 266.703125 393.746094 266.1875 394.886719 C 265.699219 395.960938 270.128906 397.976562 269.574219 399.070312 C 262.40625 413.195312 249.527344 428.453125 226.390625 437.546875 " fill-opacity="1" fill-rule="nonzero"/><path fill="#99b9ff" d="M 235.433594 396.035156 C 235.296875 394.828125 230 395.875 229.832031 394.710938 C 229.660156 393.558594 234.632812 388.765625 234.433594 387.652344 C 230.535156 365.828125 221.261719 351.550781 221.261719 351.550781 C 215.703125 358.5625 211.628906 365.992188 208.722656 373.570312 C 208.257812 374.78125 212.234375 379.507812 211.832031 380.722656 C 211.386719 382.054688 206.417969 381.207031 206.042969 382.546875 C 200.460938 402.335938 202.160156 421.273438 205.464844 437.199219 C 214.238281 438.796875 222.714844 439.351562 230.855469 438.976562 C 236.246094 422.886719 236.910156 409.070312 235.433594 396.035156 " fill-opacity="1" fill-rule="nonzero"/><path fill="#caddff" d="M 219.828125 432.632812 C 219.4375 432.632812 219.109375 432.332031 219.078125 431.933594 C 218.578125 425.128906 218.246094 418.21875 218.101562 411.398438 C 218.09375 410.984375 218.421875 410.640625 218.835938 410.628906 C 219.246094 410.617188 219.597656 410.953125 219.605469 411.367188 C 219.753906 418.160156 220.082031 425.042969 220.582031 431.824219 C 220.609375 432.238281 220.296875 432.597656 219.882812 432.632812 C 219.867188 432.632812 219.847656 432.632812 219.828125 432.632812 " fill-opacity="1" fill-rule="nonzero"/><path fill="#caddff" d="M 218.761719 402.40625 C 218.34375 402.40625 218.011719 402.066406 218.011719 401.652344 C 218.046875 390.144531 218.59375 378.496094 219.640625 367.035156 L 220.117188 361.792969 C 220.15625 361.378906 220.519531 361.078125 220.933594 361.113281 C 221.347656 361.152344 221.652344 361.515625 221.617188 361.929688 L 221.140625 367.167969 C 220.097656 378.589844 219.550781 390.191406 219.515625 401.65625 C 219.515625 402.070312 219.175781 402.40625 218.761719 402.40625 " fill-opacity="1" fill-rule="nonzero"/><path fill="#99b9ff" d="M 224.519531 438.535156 C 224.519531 438.535156 239.429688 405.136719 275.492188 414.9375 C 275.492188 414.9375 260.011719 442.386719 224.519531 438.535156 " fill-opacity="1" fill-rule="nonzero"/><path fill="#caddff" d="M 235.359375 434.761719 C 235.128906 434.761719 234.898438 434.652344 234.75 434.449219 C 234.507812 434.109375 234.582031 433.640625 234.917969 433.394531 C 244.84375 426.207031 264.75 418.925781 265.589844 418.617188 C 265.980469 418.476562 266.414062 418.675781 266.554688 419.066406 C 266.699219 419.457031 266.496094 419.890625 266.105469 420.03125 C 265.898438 420.105469 245.554688 427.554688 235.800781 434.617188 C 235.667969 434.714844 235.515625 434.761719 235.359375 434.761719 " fill-opacity="1" fill-rule="nonzero"/><path fill="#5479f7" d="M 422.09375 371.679688 L 418.761719 374.734375 C 416.226562 377.066406 412.824219 378.140625 409.550781 377.648438 L 56.742188 324.539062 C 52.050781 323.832031 49.777344 318.960938 49.726562 314.160156 L 47.378906 71.296875 C 47.347656 68.429688 49.074219 57 49.074219 57 C 49.074219 57 57.65625 50.832031 62.78125 48.453125 C 65.117188 47.367188 67.683594 46.992188 70.15625 47.355469 L 419.535156 98.972656 C 423.105469 99.5 425.667969 102.496094 425.675781 106.144531 L 426.46875 361.855469 C 426.480469 365.535156 424.878906 369.125 422.09375 371.679688 " fill-opacity="1" fill-rule="nonzero"/><path fill="#99b9ff" d="M 411.402344 377.785156 L 57.878906 325.4375 C 52.390625 324.625 48.449219 320.011719 48.429688 314.386719 L 47.652344 61.425781 C 47.640625 58.457031 50.355469 56.066406 53.25 56.496094 L 407.710938 108.984375 C 411.28125 109.511719 413.847656 112.515625 413.855469 116.171875 L 414.65625 374.921875 C 414.660156 376.648438 413.085938 378.035156 411.402344 377.785156 " fill-opacity="1" fill-rule="nonzero"/><path fill="#caddff" d="M 403.542969 366.914062 L 64.933594 318.21875 C 59.675781 317.460938 55.898438 313.167969 55.882812 307.933594 L 55.160156 72.488281 C 55.148438 69.722656 57.75 67.5 60.523438 67.898438 L 400.03125 116.722656 C 403.449219 117.214844 405.902344 120.007812 405.917969 123.414062 L 406.660156 364.246094 C 406.660156 365.855469 405.152344 367.144531 403.542969 366.914062 " fill-opacity="1" fill-rule="nonzero"/><path fill="#000000" d="M 99.539062 332.359375 C 99.503906 332.359375 99.464844 332.355469 99.429688 332.351562 L 57.769531 326.183594 C 51.941406 325.320312 47.695312 320.359375 47.679688 314.386719 L 46.898438 61.429688 C 46.894531 59.78125 47.621094 58.195312 48.898438 57.09375 C 50.152344 56.007812 51.777344 55.519531 53.363281 55.753906 L 235.671875 82.746094 C 236.078125 82.808594 236.363281 83.195312 236.304688 83.601562 C 236.246094 84.015625 235.863281 84.300781 235.449219 84.238281 L 53.140625 57.242188 C 51.992188 57.074219 50.804688 57.433594 49.882812 58.230469 C 48.9375 59.050781 48.398438 60.214844 48.402344 61.425781 L 49.183594 314.382812 C 49.199219 319.601562 52.902344 323.9375 57.988281 324.691406 L 99.648438 330.863281 C 100.058594 330.921875 100.34375 331.304688 100.285156 331.71875 C 100.226562 332.089844 99.90625 332.359375 99.539062 332.359375 " fill-opacity="1" fill-rule="nonzero"/><path fill="#000000" d="M 376.339844 373.347656 C 376.300781 373.347656 376.265625 373.34375 376.226562 373.339844 L 201.429688 347.453125 C 201.019531 347.394531 200.734375 347.011719 200.796875 346.601562 C 200.855469 346.1875 201.238281 345.90625 201.648438 345.964844 L 376.449219 371.847656 C 376.855469 371.910156 377.140625 372.292969 377.078125 372.703125 C 377.023438 373.078125 376.703125 373.347656 376.339844 373.347656 " fill-opacity="1" fill-rule="nonzero"/><path fill="#000000" d="M 414.160156 215.320312 C 413.746094 215.320312 413.410156 214.984375 413.40625 214.566406 L 413.105469 116.175781 C 413.09375 112.910156 410.78125 110.199219 407.601562 109.730469 L 354.195312 101.824219 C 353.789062 101.761719 353.5 101.378906 353.566406 100.96875 C 353.625 100.554688 354.003906 100.273438 354.417969 100.332031 L 407.820312 108.238281 C 411.742188 108.820312 414.597656 112.15625 414.613281 116.167969 L 414.914062 214.5625 C 414.914062 214.980469 414.578125 215.320312 414.160156 215.320312 " fill-opacity="1" fill-rule="nonzero"/><path fill="#ffffff" d="M 224.300781 258.167969 L 71.910156 236.832031 C 68.1875 236.3125 65.527344 233.203125 65.527344 229.375 L 65.527344 90.226562 C 65.527344 85.054688 70.273438 80.839844 75.304688 81.542969 L 227.695312 102.882812 C 231.421875 103.402344 234.082031 106.511719 234.082031 110.339844 L 234.082031 249.488281 C 234.082031 254.660156 229.335938 258.875 224.300781 258.167969 " fill-opacity="1" fill-rule="nonzero"/><path fill="#caddff" d="M 81.707031 223.953125 L 77.375 223.246094 C 75.472656 222.9375 73.953125 221.023438 73.953125 218.945312 L 73.996094 196.238281 C 74 194.109375 75.597656 192.617188 77.546875 192.925781 L 81.839844 193.605469 C 83.746094 193.90625 85.273438 195.816406 85.273438 197.902344 C 85.273438 203.695312 85.273438 214.757812 85.273438 220.636719 C 85.273438 222.777344 83.664062 224.273438 81.707031 223.953125 " fill-opacity="1" fill-rule="nonzero"/><path fill="#caddff" d="M 97.046875 226.101562 L 92.714844 225.394531 C 90.8125 225.085938 89.289062 223.171875 89.292969 221.09375 L 89.335938 184.050781 C 89.339844 181.921875 90.9375 180.429688 92.890625 180.738281 L 97.179688 181.417969 C 99.085938 181.71875 100.613281 183.628906 100.613281 185.710938 C 100.613281 194.09375 100.613281 214.273438 100.613281 222.789062 C 100.613281 224.925781 99.003906 226.421875 97.046875 226.101562 " fill-opacity="1" fill-rule="nonzero"/><path fill="#caddff" d="M 112.386719 228.25 L 108.054688 227.542969 C 106.152344 227.230469 104.628906 225.320312 104.632812 223.242188 L 104.675781 193.835938 C 104.679688 191.707031 106.277344 190.214844 108.230469 190.523438 L 112.519531 191.203125 C 114.425781 191.503906 115.953125 193.417969 115.953125 195.5 C 115.953125 202.5625 115.953125 217.761719 115.953125 224.933594 C 115.953125 227.074219 114.34375 228.570312 112.386719 228.25 " fill-opacity="1" fill-rule="nonzero"/><path fill="#caddff" d="M 127.726562 230.398438 L 123.390625 229.691406 C 121.488281 229.382812 119.96875 227.472656 119.972656 225.390625 L 120.019531 167.546875 C 120.019531 165.414062 121.621094 163.921875 123.570312 164.230469 L 127.859375 164.910156 C 129.765625 165.210938 131.292969 167.121094 131.292969 169.207031 C 131.292969 180.707031 131.292969 215.394531 131.292969 227.082031 C 131.292969 229.222656 129.683594 230.714844 127.726562 230.398438 " fill-opacity="1" fill-rule="nonzero"/><path fill="#caddff" d="M 143.066406 232.542969 L 138.730469 231.839844 C 136.828125 231.527344 135.308594 229.617188 135.3125 227.539062 L 135.359375 154.800781 C 135.359375 152.667969 136.960938 151.175781 138.910156 151.484375 L 143.199219 152.160156 C 145.105469 152.464844 146.632812 154.371094 146.632812 156.457031 C 146.632812 169.890625 146.632812 215.558594 146.632812 229.226562 C 146.632812 231.367188 145.023438 232.867188 143.066406 232.542969 " fill-opacity="1" fill-rule="nonzero"/><path fill="#99b9ff" d="M 158.40625 234.695312 L 154.070312 233.984375 C 152.167969 233.675781 150.648438 231.765625 150.648438 229.6875 L 150.699219 145.871094 C 150.699219 143.738281 152.300781 142.246094 154.253906 142.554688 L 158.539062 143.234375 C 160.445312 143.535156 161.972656 145.441406 161.972656 147.527344 C 161.972656 162.292969 161.972656 216.347656 161.972656 231.378906 C 161.972656 233.515625 160.363281 235.011719 158.40625 234.695312 " fill-opacity="1" fill-rule="nonzero"/><path fill="#caddff" d="M 173.746094 236.839844 L 169.410156 236.136719 C 167.507812 235.824219 165.988281 233.914062 165.992188 231.835938 L 166.039062 172.296875 C 166.039062 170.164062 167.640625 168.671875 169.589844 168.980469 L 173.878906 169.660156 C 175.785156 169.960938 177.3125 171.871094 177.3125 173.957031 C 177.3125 185.6875 177.3125 221.601562 177.3125 233.527344 C 177.3125 235.667969 175.703125 237.160156 173.746094 236.839844 " fill-opacity="1" fill-rule="nonzero"/><path fill="#caddff" d="M 189.085938 238.988281 L 184.75 238.28125 C 182.847656 237.972656 181.328125 236.0625 181.332031 233.984375 L 181.378906 154.976562 C 181.382812 152.84375 182.980469 151.351562 184.933594 151.65625 L 189.21875 152.335938 C 191.125 152.640625 192.652344 154.550781 192.652344 156.632812 C 192.652344 170.839844 192.652344 221.234375 192.652344 235.675781 C 192.652344 237.816406 191.042969 239.308594 189.085938 238.988281 " fill-opacity="1" fill-rule="nonzero"/><path fill="#caddff" d="M 204.425781 241.140625 L 200.089844 240.429688 C 198.1875 240.121094 196.667969 238.210938 196.667969 236.132812 L 196.71875 133.394531 C 196.71875 131.261719 198.320312 129.769531 200.273438 130.078125 L 204.554688 130.757812 C 206.464844 131.058594 207.992188 132.96875 207.992188 135.050781 C 207.992188 151.925781 207.992188 220.664062 207.992188 237.824219 C 207.992188 239.960938 206.382812 241.457031 204.425781 241.140625 " fill-opacity="1" fill-rule="nonzero"/><path fill="#99b9ff" d="M 219.972656 243.3125 L 215.640625 242.605469 C 213.738281 242.296875 212.21875 240.386719 212.21875 238.308594 L 212.269531 119.625 C 212.269531 117.496094 213.867188 116 215.820312 116.308594 L 220.105469 116.988281 C 222.011719 117.289062 223.542969 119.199219 223.542969 121.28125 C 223.542969 139.785156 223.542969 221.171875 223.542969 239.996094 C 223.542969 242.136719 221.933594 243.632812 219.972656 243.3125 " fill-opacity="1" fill-rule="nonzero"/><path fill="#ffffff" d="M 237.039062 336.730469 L 175.21875 326.835938 C 173.246094 326.519531 171.652344 324.570312 171.652344 322.484375 L 171.652344 260.941406 C 171.652344 258.851562 173.246094 257.414062 175.21875 257.730469 L 237.039062 267.625 C 239.007812 267.941406 240.605469 269.890625 240.605469 271.976562 L 240.605469 333.519531 C 240.605469 335.609375 239.007812 337.042969 237.039062 336.730469 " fill-opacity="1" fill-rule="nonzero"/><path fill="#99b9ff" d="M 188.082031 323.65625 L 181.902344 322.667969 L 181.902344 278.234375 L 188.082031 279.222656 L 188.082031 323.65625 " fill-opacity="1" fill-rule="nonzero"/><path fill="#caddff" d="M 188.082031 323.65625 L 181.902344 322.667969 L 181.902344 294 L 188.082031 294.988281 L 188.082031 323.65625 " fill-opacity="1" fill-rule="nonzero"/><path fill="#99b9ff" d="M 199.667969 325.511719 L 193.488281 324.519531 L 193.488281 286.640625 L 199.667969 287.628906 L 199.667969 325.511719 " fill-opacity="1" fill-rule="nonzero"/><path fill="#caddff" d="M 199.667969 325.511719 L 193.488281 324.519531 L 193.488281 302.816406 L 199.667969 303.804688 L 199.667969 325.511719 " fill-opacity="1" fill-rule="nonzero"/><path fill="#99b9ff" d="M 210.484375 327.445312 L 204.300781 326.457031 L 204.300781 292.054688 L 210.484375 293.042969 L 210.484375 327.445312 " fill-opacity="1" fill-rule="nonzero"/><path fill="#caddff" d="M 210.484375 327.445312 L 204.300781 326.457031 L 204.300781 310.484375 L 210.484375 311.472656 L 210.484375 327.445312 " fill-opacity="1" fill-rule="nonzero"/><path fill="#99b9ff" d="M 221.582031 329.632812 L 215.40625 328.644531 L 215.40625 284.207031 L 221.582031 285.199219 L 221.582031 329.632812 " fill-opacity="1" fill-rule="nonzero"/><path fill="#caddff" d="M 221.582031 329.632812 L 215.40625 328.644531 L 215.40625 291.578125 L 221.582031 292.570312 L 221.582031 329.632812 " fill-opacity="1" fill-rule="nonzero"/><path fill="#99b9ff" d="M 232.785156 331.222656 L 226.605469 330.230469 L 226.605469 288.867188 L 232.785156 289.855469 L 232.785156 331.222656 " fill-opacity="1" fill-rule="nonzero"/><path fill="#caddff" d="M 232.785156 331.222656 L 226.605469 330.230469 L 226.605469 302.996094 L 232.785156 303.988281 L 232.785156 331.222656 " fill-opacity="1" fill-rule="nonzero"/><path fill="#5479f7" d="M 236.648438 332.539062 C 236.609375 332.539062 236.566406 332.535156 236.527344 332.53125 L 176.648438 322.949219 C 175.378906 322.746094 174.394531 321.546875 174.398438 320.222656 L 174.632812 267.714844 C 174.636719 267.300781 174.972656 266.964844 175.386719 266.964844 C 175.804688 266.96875 176.140625 267.308594 176.136719 267.722656 L 175.902344 320.230469 C 175.902344 320.800781 176.359375 321.375 176.882812 321.460938 L 236.765625 331.042969 C 237.175781 331.109375 237.453125 331.492188 237.386719 331.90625 C 237.332031 332.277344 237.011719 332.539062 236.648438 332.539062 " fill-opacity="1" fill-rule="nonzero"/><path fill="#99b9ff" d="M 200.277344 269.707031 L 181.710938 266.734375 L 181.710938 263.253906 L 200.277344 266.226562 L 200.277344 269.707031 " fill-opacity="1" fill-rule="nonzero"/><path fill="#99b9ff" d="M 200.34375 275.042969 L 181.777344 272.070312 L 181.777344 268.589844 L 200.34375 271.558594 L 200.34375 275.042969 " fill-opacity="1" fill-rule="nonzero"/><path fill="#ffffff" d="M 335.867188 215.472656 L 251.167969 200.617188 C 249.136719 200.257812 247.652344 198.488281 247.652344 196.425781 L 247.652344 60.808594 C 247.652344 58.164062 250.039062 56.160156 252.640625 56.617188 L 337.335938 71.476562 C 339.367188 71.832031 340.851562 73.601562 340.851562 75.667969 L 340.851562 211.285156 C 340.851562 213.929688 338.46875 215.929688 335.867188 215.472656 " fill-opacity="1" fill-rule="nonzero"/><path fill="#000000" d="M 335.996094 214.730469 C 337.019531 214.910156 338.058594 214.632812 338.851562 213.964844 C 339.644531 213.296875 340.097656 212.320312 340.097656 211.28125 L 340.097656 75.671875 C 340.097656 73.964844 338.882812 72.511719 337.203125 72.21875 L 252.507812 57.359375 C 251.488281 57.179688 250.445312 57.457031 249.652344 58.128906 C 248.859375 58.792969 248.402344 59.773438 248.402344 60.808594 L 248.402344 196.421875 C 248.402344 198.128906 249.625 199.578125 251.300781 199.871094 Z M 336.605469 216.292969 C 336.316406 216.292969 336.027344 216.269531 335.734375 216.214844 L 251.039062 201.355469 C 248.640625 200.9375 246.902344 198.859375 246.902344 196.421875 L 246.902344 60.808594 C 246.902344 59.324219 247.550781 57.925781 248.6875 56.972656 C 249.820312 56.019531 251.308594 55.617188 252.769531 55.875 L 337.464844 70.734375 C 339.863281 71.15625 341.605469 73.230469 341.605469 75.671875 L 341.605469 211.28125 C 341.605469 212.765625 340.953125 214.164062 339.816406 215.121094 C 338.910156 215.882812 337.769531 216.292969 336.605469 216.292969 " fill-opacity="1" fill-rule="nonzero"/><path fill="#caddff" d="M 330.308594 119.8125 C 333.144531 140.84375 318.691406 157.855469 298.027344 157.8125 C 277.367188 157.769531 258.320312 140.683594 255.488281 119.65625 C 252.652344 98.625 267.105469 81.613281 287.769531 81.65625 C 308.433594 81.699219 327.476562 98.785156 330.308594 119.8125 " fill-opacity="1" fill-rule="nonzero"/><path fill="#99b9ff" d="M 293.578125 119.882812 L 317.652344 151.535156 C 326.84375 144.742188 331.933594 133.078125 330.148438 119.8125 C 329.015625 111.40625 325.289062 103.628906 319.90625 97.320312 L 293.578125 119.882812 " fill-opacity="1" fill-rule="nonzero"/><path fill="#5479f7" d="M 295.875 82.589844 L 293.578125 119.882812 L 319.910156 97.328125 C 313.652344 89.992188 305.152344 84.644531 295.875 82.589844 " fill-opacity="1" fill-rule="nonzero"/><path fill="#ffffff" d="M 304.300781 119.753906 C 305.164062 126.164062 300.761719 131.347656 294.464844 131.332031 C 288.167969 131.320312 282.363281 126.113281 281.5 119.707031 C 280.636719 113.296875 285.039062 108.113281 291.335938 108.128906 C 297.632812 108.140625 303.4375 113.347656 304.300781 119.753906 " fill-opacity="1" fill-rule="nonzero"/><path fill="#caddff" d="M 330.601562 179.875 L 257.054688 169.722656 L 257.054688 161.660156 L 330.601562 171.8125 L 330.601562 179.875 " fill-opacity="1" fill-rule="nonzero"/><path fill="#caddff" d="M 330.765625 194.871094 L 257.222656 184.722656 L 257.222656 176.660156 L 330.765625 186.808594 L 330.765625 194.871094 " fill-opacity="1" fill-rule="nonzero"/><path fill="#5479f7" d="M 330.523438 251.738281 C 325.824219 250.804688 320.902344 250.136719 315.832031 249.78125 C 305 249.019531 294.835938 249.765625 286.066406 251.707031 C 285.992188 251.726562 285.972656 251.816406 286.027344 251.871094 L 315.746094 279.792969 L 330.523438 251.738281 " fill-opacity="1" fill-rule="nonzero"/><path fill="#99b9ff" d="M 330.632812 284.085938 L 330.523438 251.738281 L 315.636719 279.9375 L 315.636719 312.613281 L 330.632812 284.085938 " fill-opacity="1" fill-rule="nonzero"/><path fill="#5479f7" d="M 315.6875 279.898438 L 285.6875 251.746094 L 285.6875 282.378906 L 315.777344 310.089844 L 315.6875 279.898438 " fill-opacity="1" fill-rule="nonzero"/><path fill="#000000" d="M 315.746094 280.542969 C 315.554688 280.542969 315.371094 280.472656 315.226562 280.339844 L 285.515625 252.417969 C 285.28125 252.199219 285.191406 251.875 285.273438 251.570312 C 285.355469 251.269531 285.597656 251.042969 285.898438 250.972656 C 288.914062 250.304688 292.089844 249.78125 295.347656 249.410156 C 295.761719 249.363281 296.132812 249.660156 296.179688 250.074219 C 296.226562 250.484375 295.929688 250.859375 295.515625 250.90625 C 292.753906 251.222656 290.050781 251.648438 287.460938 252.183594 L 315.539062 278.566406 L 329.382812 252.285156 C 325.335938 251.515625 321.167969 250.960938 316.980469 250.621094 C 316.566406 250.589844 316.257812 250.226562 316.289062 249.8125 C 316.324219 249.398438 316.683594 249.085938 317.101562 249.121094 C 321.691406 249.492188 326.253906 250.121094 330.667969 251 C 330.902344 251.046875 331.101562 251.199219 331.203125 251.414062 C 331.304688 251.628906 331.300781 251.878906 331.191406 252.089844 L 316.410156 280.144531 C 316.300781 280.347656 316.101562 280.496094 315.867188 280.535156 C 315.828125 280.542969 315.785156 280.542969 315.746094 280.542969 " fill-opacity="1" fill-rule="nonzero"/><path fill="#99b9ff" d="M 270.199219 306.738281 L 315.382812 289.769531 C 315.535156 289.714844 315.566406 289.507812 315.441406 289.390625 L 285.898438 261.492188 C 267.925781 265.507812 255.824219 274.546875 255.824219 285.878906 C 255.824219 293.453125 261.238281 300.769531 270.199219 306.738281 " fill-opacity="1" fill-rule="nonzero"/><path fill="#99b9ff" d="M 270.21875 306.738281 L 270.21875 330.625 L 315.515625 311.320312 L 315.515625 289.601562 L 270.21875 306.738281 " fill-opacity="1" fill-rule="nonzero"/><path fill="#5479f7" d="M 270.265625 330.675781 C 261.582031 324.90625 256.214844 317.878906 255.847656 310.570312 L 255.824219 285.878906 C 255.824219 293.453125 261.238281 300.769531 270.199219 306.738281 L 270.265625 330.675781 " fill-opacity="1" fill-rule="nonzero"/><path fill="#000000" d="M 270.199219 307.492188 C 270.050781 307.492188 269.90625 307.449219 269.78125 307.367188 C 260.296875 301.046875 255.078125 293.414062 255.078125 285.878906 C 255.078125 281.90625 256.480469 278.140625 259.246094 274.679688 C 259.507812 274.359375 259.980469 274.304688 260.304688 274.566406 C 260.628906 274.824219 260.679688 275.296875 260.421875 275.625 C 257.871094 278.808594 256.578125 282.257812 256.578125 285.878906 C 256.578125 292.8125 261.449219 299.910156 270.296875 305.898438 L 314.316406 289.363281 L 285.671875 262.316406 C 282.816406 262.964844 280.089844 263.757812 277.550781 264.664062 C 277.160156 264.800781 276.730469 264.597656 276.589844 264.203125 C 276.449219 263.8125 276.65625 263.382812 277.046875 263.246094 C 279.753906 262.277344 282.679688 261.4375 285.734375 260.757812 C 285.976562 260.699219 286.234375 260.769531 286.414062 260.945312 L 315.957031 288.839844 C 316.210938 289.082031 316.320312 289.425781 316.25 289.761719 C 316.1875 290.089844 315.957031 290.355469 315.648438 290.476562 L 270.460938 307.441406 C 270.378906 307.476562 270.285156 307.492188 270.199219 307.492188 " fill-opacity="1" fill-rule="nonzero"/><path fill="#99b9ff" d="M 351.558594 323.648438 C 370.449219 319.859375 383.332031 310.652344 383.425781 299.007812 L 383.410156 319.449219 C 382.894531 330.828125 370.113281 339.792969 351.511719 343.515625 L 351.558594 323.648438 " fill-opacity="1" fill-rule="nonzero"/><path fill="#caddff" d="M 323.445312 294.347656 L 351.496094 323.472656 L 351.578125 343.617188 L 323.464844 314.710938 L 323.445312 294.347656 " fill-opacity="1" fill-rule="nonzero"/><path fill="#ffffff" d="M 351.558594 323.648438 C 370.515625 319.84375 383.425781 310.582031 383.425781 298.882812 C 383.425781 284.582031 364.148438 271.21875 338.113281 266.050781 L 323.539062 294.375 L 351.558594 323.648438 " fill-opacity="1" fill-rule="nonzero"/><path fill="#000000" d="M 324.453125 294.242188 L 351.816406 322.828125 C 370.859375 318.910156 382.671875 309.753906 382.671875 298.882812 C 382.671875 285.308594 364.546875 272.199219 338.523438 266.898438 Z M 351.558594 324.398438 C 351.355469 324.398438 351.160156 324.316406 351.011719 324.167969 L 322.996094 294.894531 C 322.773438 294.660156 322.722656 294.3125 322.871094 294.027344 L 337.445312 265.703125 C 337.597656 265.40625 337.929688 265.246094 338.257812 265.3125 C 365.296875 270.679688 384.175781 284.484375 384.175781 298.882812 C 384.175781 310.59375 371.734375 320.367188 351.707031 324.386719 C 351.65625 324.394531 351.609375 324.398438 351.558594 324.398438 " fill-opacity="1" fill-rule="nonzero"/><path fill="#caddff" d="M 270.195312 315.890625 C 281.203125 323.222656 297.5625 328.535156 315.832031 329.820312 C 326 330.535156 335.574219 329.917969 343.96875 328.234375 L 315.941406 298.917969 L 270.195312 315.890625 " fill-opacity="1" fill-rule="nonzero"/><path fill="#000000" d="M 324.042969 330.859375 C 321.308594 330.859375 318.546875 330.761719 315.78125 330.570312 C 298.082031 329.324219 281.316406 324.203125 269.78125 316.515625 C 269.546875 316.359375 269.417969 316.082031 269.453125 315.800781 C 269.484375 315.523438 269.671875 315.28125 269.9375 315.183594 L 289.949219 307.757812 C 290.339844 307.613281 290.773438 307.8125 290.914062 308.203125 C 291.0625 308.59375 290.863281 309.027344 290.472656 309.167969 L 271.867188 316.074219 C 283.136719 323.167969 299.070312 327.882812 315.886719 329.066406 C 325.117188 329.714844 334.273438 329.261719 342.46875 327.753906 L 315.742188 299.792969 L 308.640625 302.429688 C 308.25 302.574219 307.816406 302.375 307.671875 301.984375 C 307.527344 301.59375 307.726562 301.164062 308.117188 301.019531 L 315.679688 298.210938 C 315.964844 298.105469 316.28125 298.179688 316.484375 298.398438 L 344.515625 327.710938 C 344.703125 327.910156 344.769531 328.195312 344.6875 328.457031 C 344.605469 328.722656 344.386719 328.917969 344.117188 328.972656 C 337.882812 330.222656 331.058594 330.859375 324.042969 330.859375 " fill-opacity="1" fill-rule="nonzero"/><path fill="#99b9ff" d="M 343.929688 328.246094 L 343.921875 342.984375 C 335.539062 344.660156 325.976562 345.273438 315.832031 344.558594 C 297.597656 343.277344 281.269531 337.984375 270.261719 330.675781 C 270.261719 330.675781 270.226562 315.90625 270.238281 315.917969 C 281.242188 323.238281 297.585938 328.535156 315.832031 329.820312 C 325.980469 330.53125 335.542969 329.917969 343.925781 328.242188 C 343.9375 328.238281 343.929688 328.246094 343.929688 328.246094 " fill-opacity="1" fill-rule="nonzero"/><path fill="#000000" d="M 343.921875 342.984375 L 343.925781 342.984375 Z M 271.015625 330.269531 C 282.324219 337.667969 298.648438 342.59375 315.882812 343.804688 C 325.375 344.472656 334.792969 343.976562 343.167969 342.363281 L 343.175781 329.15625 C 334.742188 330.75 325.292969 331.238281 315.777344 330.570312 C 298.6875 329.367188 282.464844 324.550781 270.984375 317.300781 C 270.988281 320.1875 271.003906 326.9375 271.015625 330.269531 Z M 324.042969 345.601562 C 321.304688 345.601562 318.546875 345.503906 315.777344 345.308594 C 298.117188 344.066406 281.375 338.960938 269.84375 331.300781 C 269.636719 331.164062 269.511719 330.929688 269.511719 330.675781 L 269.484375 318.226562 C 269.480469 315.472656 269.480469 315.472656 269.878906 315.253906 C 270.121094 315.121094 270.421875 315.136719 270.65625 315.289062 C 281.972656 322.820312 298.460938 327.839844 315.882812 329.070312 C 325.605469 329.75 335.253906 329.210938 343.777344 327.503906 C 344.136719 327.429688 344.511719 327.632812 344.640625 327.984375 C 344.679688 328.089844 344.691406 328.199219 344.683594 328.308594 L 344.671875 342.984375 C 344.671875 343.34375 344.417969 343.652344 344.066406 343.722656 C 337.847656 344.96875 331.035156 345.601562 324.042969 345.601562 " fill-opacity="1" fill-rule="nonzero"/><path fill="#99b9ff" d="M 160.574219 274.511719 L 65.285156 259.210938 L 65.285156 249.355469 L 160.574219 264.65625 L 160.574219 274.511719 " fill-opacity="1" fill-rule="nonzero"/><path fill="#99b9ff" d="M 161.019531 290.320312 L 65.730469 275.019531 L 65.730469 265.164062 L 161.019531 280.464844 L 161.019531 290.320312 " fill-opacity="1" fill-rule="nonzero"/><path fill="#99b9ff" d="M 161.167969 306.714844 L 65.878906 291.417969 L 65.878906 281.558594 L 161.167969 296.859375 L 161.167969 306.714844 " fill-opacity="1" fill-rule="nonzero"/><path fill="#99b9ff" d="M 161.167969 321.972656 L 65.878906 306.675781 L 65.878906 296.820312 L 161.167969 312.117188 L 161.167969 321.972656 " fill-opacity="1" fill-rule="nonzero"/><path fill="#99b9ff" d="M 391.085938 136.230469 L 355.609375 131.195312 L 355.609375 121.976562 L 391.085938 127.011719 L 391.085938 136.230469 " fill-opacity="1" fill-rule="nonzero"/><path fill="#99b9ff" d="M 394.6875 161.953125 L 349.320312 155.519531 L 349.320312 146.296875 L 394.6875 152.738281 L 394.6875 161.953125 " fill-opacity="1" fill-rule="nonzero"/><path fill="#99b9ff" d="M 394.835938 176.914062 L 349.472656 170.476562 L 349.472656 161.257812 L 394.835938 167.695312 L 394.835938 176.914062 " fill-opacity="1" fill-rule="nonzero"/><path fill="#99b9ff" d="M 394.980469 207.136719 L 349.617188 200.699219 L 349.617188 191.480469 L 394.980469 197.917969 L 394.980469 207.136719 " fill-opacity="1" fill-rule="nonzero"/><path fill="#99b9ff" d="M 394.835938 222.21875 L 349.46875 215.78125 L 349.46875 206.5625 L 394.835938 212.996094 L 394.835938 222.21875 " fill-opacity="1" fill-rule="nonzero"/><path fill="#99b9ff" d="M 394.542969 237.117188 L 349.175781 230.679688 L 349.175781 221.019531 L 394.542969 227.460938 L 394.542969 237.117188 " fill-opacity="1" fill-rule="nonzero"/><path fill="#99b9ff" d="M 293.308594 226.460938 L 247.945312 220.023438 L 247.945312 210.808594 L 293.308594 217.242188 L 293.308594 226.460938 " fill-opacity="1" fill-rule="nonzero"/><path fill="#99b9ff" d="M 293.457031 241.421875 L 248.089844 234.984375 L 248.089844 225.765625 L 293.457031 232.203125 L 293.457031 241.421875 " fill-opacity="1" fill-rule="nonzero"/><path fill="#ffffff" d="M 85.296875 279.464844 C 85.292969 278.910156 116.414062 273.988281 118.417969 268.296875 C 121.414062 259.804688 125.152344 249.589844 125.152344 249.589844 L 132.921875 254.5 L 127.917969 278.941406 L 85.296875 279.464844 " fill-opacity="1" fill-rule="nonzero"/><path fill="#000000" d="M 125.535156 250.726562 C 124.570312 253.382812 121.585938 261.589844 119.128906 268.546875 C 117.679688 272.660156 104.785156 275.902344 92.183594 278.628906 L 127.300781 278.195312 L 132.078125 254.863281 Z M 85.296875 280.21875 C 85.101562 280.21875 84.910156 280.144531 84.769531 280.003906 C 84.625 279.863281 84.546875 279.671875 84.546875 279.46875 C 84.539062 278.71875 84.539062 278.71875 89.882812 277.582031 C 97.117188 276.039062 116.335938 271.941406 117.710938 268.046875 C 120.671875 259.644531 124.40625 249.433594 124.445312 249.332031 C 124.523438 249.117188 124.691406 248.953125 124.90625 248.878906 C 125.125 248.804688 125.359375 248.832031 125.550781 248.953125 L 133.324219 253.867188 C 133.585938 254.03125 133.71875 254.347656 133.65625 254.65625 L 128.65625 279.09375 C 128.585938 279.4375 128.28125 279.691406 127.925781 279.695312 L 85.304688 280.21875 C 85.304688 280.21875 85.300781 280.21875 85.296875 280.21875 " fill-opacity="1" fill-rule="nonzero"/><path fill="#5479f7" d="M 174.050781 223.332031 C 166.628906 220.910156 155.324219 219.171875 141.808594 223.480469 C 136.882812 225.050781 133.347656 229.390625 132.738281 234.53125 L 121.730469 297.980469 C 121.183594 302.589844 127.34375 307.074219 131.683594 308.722656 C 136.214844 310.441406 143.066406 312.066406 152.769531 312.066406 C 163.171875 312.066406 170.730469 312.667969 174.949219 310.820312 C 178.449219 309.285156 183.71875 305.574219 183.894531 301.75 L 183.132812 236.539062 C 183.40625 230.59375 179.699219 225.179688 174.050781 223.332031 " fill-opacity="1" fill-rule="nonzero"/><path fill="#5479f7" d="M 122.0625 250.59375 C 122.0625 250.59375 130.851562 226.230469 140.707031 223.886719 L 135.695312 258.410156 L 122.0625 250.59375 " fill-opacity="1" fill-rule="nonzero"/><path fill="#5479f7" d="M 194.542969 262.582031 C 194.542969 262.582031 193.582031 246.28125 192.171875 239.980469 C 189.210938 226.726562 176.585938 224.726562 176.585938 224.726562 L 175.050781 260.316406 L 194.542969 262.582031 " fill-opacity="1" fill-rule="nonzero"/><path fill="#000000" d="M 164.230469 228.628906 C 159.601562 228.628906 154.203125 228.128906 149.480469 226.375 C 149.09375 226.230469 148.894531 225.800781 149.039062 225.40625 C 149.183594 225.019531 149.617188 224.820312 150.003906 224.964844 C 160.40625 228.824219 174.773438 226.289062 174.917969 226.257812 C 175.328125 226.1875 175.71875 226.457031 175.792969 226.867188 C 175.867188 227.277344 175.59375 227.667969 175.1875 227.742188 C 174.847656 227.804688 170.171875 228.628906 164.230469 228.628906 " fill-opacity="1" fill-rule="nonzero"/><path fill="#000000" d="M 122.992188 250.261719 L 129.613281 254.054688 C 129.886719 254.210938 130.035156 254.523438 129.980469 254.835938 L 122.472656 298.105469 C 121.984375 302.21875 127.839844 306.457031 131.949219 308.015625 C 137.714844 310.203125 144.722656 311.3125 152.769531 311.3125 C 154.960938 311.3125 156.988281 311.339844 158.953125 311.363281 C 165.941406 311.457031 171.460938 311.527344 174.644531 310.132812 C 177.847656 308.726562 182.984375 305.203125 183.144531 301.71875 L 182.667969 261.296875 C 182.667969 261.082031 182.757812 260.875 182.917969 260.726562 C 183.078125 260.585938 183.296875 260.515625 183.507812 260.539062 L 193.734375 261.730469 C 193.511719 258.234375 192.628906 245.46875 191.4375 240.144531 C 188.992188 229.1875 179.78125 226.230469 177.015625 225.582031 C 176.929688 225.5625 176.847656 225.527344 176.773438 225.480469 C 175.839844 224.867188 174.847656 224.386719 173.816406 224.050781 C 166.757812 221.746094 155.519531 219.898438 142.035156 224.199219 C 141.71875 224.296875 141.390625 224.421875 140.996094 224.585938 C 140.933594 224.613281 140.871094 224.628906 140.804688 224.636719 C 132.320312 226.761719 124.402344 246.5625 122.992188 250.261719 Z M 163.777344 312.914062 C 162.273438 312.914062 160.660156 312.894531 158.933594 312.871094 C 156.976562 312.847656 154.949219 312.820312 152.769531 312.820312 C 144.539062 312.820312 137.355469 311.675781 131.414062 309.425781 C 126.726562 307.648438 120.390625 302.890625 120.980469 297.890625 L 128.40625 255.097656 L 121.691406 251.25 C 121.371094 251.066406 121.230469 250.683594 121.355469 250.339844 C 121.71875 249.328125 130.378906 225.621094 140.496094 223.164062 C 140.894531 222.996094 141.242188 222.871094 141.582031 222.761719 C 155.445312 218.339844 167.015625 220.242188 174.28125 222.617188 C 175.398438 222.980469 176.476562 223.496094 177.488281 224.148438 C 180.617188 224.90625 190.304688 228.167969 192.90625 239.816406 C 194.3125 246.101562 195.253906 261.867188 195.292969 262.535156 C 195.308594 262.757812 195.222656 262.976562 195.058594 263.128906 C 194.898438 263.28125 194.675781 263.355469 194.457031 263.332031 L 184.183594 262.136719 L 184.648438 301.742188 C 184.453125 305.984375 178.921875 309.902344 175.25 311.511719 C 172.574219 312.683594 168.773438 312.914062 163.777344 312.914062 " fill-opacity="1" fill-rule="nonzero"/><path fill="#ffffff" d="M 192.082031 261.902344 C 192.082031 261.902344 193.03125 274.335938 188.109375 282.679688 C 182.234375 292.648438 152.589844 279.226562 152.589844 279.226562 L 149.140625 277.273438 C 146.808594 275.949219 144.03125 275.664062 141.480469 276.488281 L 135.910156 278.285156 C 135.910156 278.285156 140.507812 272.769531 144.421875 270.660156 C 146.253906 269.667969 148.632812 270.605469 150.640625 271.875 C 154.09375 274.066406 158.160156 275.09375 162.246094 274.972656 L 174.039062 274.621094 C 176.019531 274.5625 177.640625 273.03125 177.816406 271.054688 L 178.710938 260.769531 L 192.082031 261.902344 " fill-opacity="1" fill-rule="nonzero"/><path fill="#000000" d="M 152.929688 278.550781 C 154.011719 279.035156 182.070312 291.441406 187.460938 282.296875 C 191.582031 275.308594 191.472656 265.214844 191.363281 262.597656 L 179.394531 261.582031 L 178.566406 271.121094 C 178.359375 273.472656 176.421875 275.304688 174.0625 275.375 L 162.269531 275.726562 C 157.917969 275.859375 153.757812 274.746094 150.238281 272.515625 C 148.628906 271.492188 146.375 270.457031 144.777344 271.320312 C 142.53125 272.53125 140.011719 274.957031 138.34375 276.710938 L 141.25 275.769531 C 143.992188 274.886719 147.003906 275.191406 149.511719 276.617188 Z M 179.121094 287.101562 C 168.320312 287.101562 153.164062 280.3125 152.277344 279.910156 C 152.257812 279.902344 152.238281 279.890625 152.21875 279.878906 L 148.769531 277.925781 C 146.628906 276.710938 144.054688 276.449219 141.710938 277.207031 L 136.140625 279.003906 C 135.824219 279.109375 135.472656 278.988281 135.285156 278.710938 C 135.097656 278.433594 135.117188 278.0625 135.332031 277.808594 C 135.523438 277.578125 140.070312 272.148438 144.0625 269.992188 C 145.863281 269.023438 148.207031 269.445312 151.042969 271.242188 C 154.308594 273.3125 158.175781 274.339844 162.226562 274.21875 L 174.019531 273.867188 C 175.617188 273.820312 176.925781 272.582031 177.066406 270.988281 L 177.960938 260.707031 C 177.996094 260.289062 178.359375 259.984375 178.773438 260.019531 L 192.144531 261.152344 C 192.511719 261.183594 192.804688 261.476562 192.832031 261.847656 C 192.871094 262.363281 193.742188 274.609375 188.757812 283.066406 C 187.011719 286.03125 183.410156 287.101562 179.121094 287.101562 " fill-opacity="1" fill-rule="nonzero"/><path fill="#ffffff" d="M 146.589844 398.628906 L 153.015625 417.824219 C 153.015625 417.824219 146.015625 417.226562 145.347656 417.355469 C 144.675781 417.488281 136.488281 399.855469 136.488281 399.855469 L 146.589844 398.628906 " fill-opacity="1" fill-rule="nonzero"/><path fill="#000000" d="M 145.261719 416.609375 C 145.242188 416.609375 145.222656 416.613281 145.203125 416.617188 C 145.21875 416.613281 145.238281 416.609375 145.261719 416.609375 Z M 145.722656 416.589844 C 146.976562 416.589844 149.914062 416.8125 151.9375 416.976562 L 146.070312 399.449219 L 137.609375 400.476562 C 140.945312 407.628906 144.660156 415.230469 145.628906 416.589844 C 145.660156 416.589844 145.691406 416.589844 145.722656 416.589844 Z M 153.015625 418.578125 C 152.996094 418.578125 152.972656 418.578125 152.953125 418.574219 C 149.652344 418.292969 145.957031 418.039062 145.476562 418.097656 C 144.773438 418.238281 144.503906 418.289062 139.988281 408.984375 C 137.882812 404.632812 135.828125 400.214844 135.808594 400.171875 C 135.707031 399.953125 135.714844 399.695312 135.832031 399.488281 C 135.949219 399.277344 136.160156 399.132812 136.398438 399.105469 L 146.5 397.882812 C 146.855469 397.839844 147.191406 398.054688 147.304688 398.390625 L 153.730469 417.582031 C 153.808594 417.824219 153.765625 418.089844 153.609375 418.289062 C 153.464844 418.472656 153.246094 418.578125 153.015625 418.578125 " fill-opacity="1" fill-rule="nonzero"/><path fill="#99b9ff" d="M 151.546875 413.605469 C 151.546875 413.605469 141.878906 409.636719 140.09375 414.617188 C 137.820312 420.949219 134.265625 430.605469 134.265625 430.605469 C 133.660156 432.289062 134.820312 434.082031 136.597656 434.226562 C 140.128906 434.507812 145.398438 434.738281 147.855469 433.875 C 151.726562 432.515625 158.15625 420.242188 158.15625 420.242188 L 156.175781 409.796875 C 156.175781 409.796875 152.667969 409.304688 151.546875 413.605469 " fill-opacity="1" fill-rule="nonzero"/><path fill="#000000" d="M 144.671875 412.855469 C 143.804688 412.855469 142.980469 412.972656 142.296875 413.277344 C 141.554688 413.609375 141.066406 414.128906 140.800781 414.871094 C 138.550781 421.132812 135.007812 430.769531 134.96875 430.867188 C 134.765625 431.441406 134.835938 432.066406 135.167969 432.582031 C 135.503906 433.101562 136.046875 433.421875 136.660156 433.472656 C 141.941406 433.898438 145.828125 433.789062 147.605469 433.167969 C 150.488281 432.15625 155.511719 423.625 157.367188 420.125 L 155.550781 410.539062 C 154.671875 410.605469 152.976562 411.097656 152.273438 413.796875 C 152.21875 414.007812 152.074219 414.183594 151.878906 414.28125 C 151.6875 414.375 151.460938 414.386719 151.257812 414.300781 C 151.214844 414.285156 147.679688 412.855469 144.671875 412.855469 Z M 142.28125 435.234375 C 140.347656 435.234375 138.3125 435.117188 136.539062 434.976562 C 135.453125 434.886719 134.496094 434.3125 133.90625 433.398438 C 133.316406 432.488281 133.1875 431.375 133.554688 430.351562 C 133.59375 430.25 137.136719 420.617188 139.382812 414.363281 C 139.792969 413.226562 140.566406 412.398438 141.6875 411.902344 C 144.628906 410.59375 149.246094 411.980469 151.066406 412.621094 C 152.261719 409.40625 154.941406 408.863281 156.28125 409.050781 C 156.597656 409.097656 156.855469 409.339844 156.914062 409.65625 L 158.894531 420.101562 C 158.929688 420.269531 158.902344 420.441406 158.824219 420.589844 C 158.152344 421.875 152.140625 433.171875 148.101562 434.589844 C 146.730469 435.070312 144.582031 435.234375 142.28125 435.234375 " fill-opacity="1" fill-rule="nonzero"/><path fill="#000000" d="M 146.667969 430.796875 L 136.738281 430.796875 C 136.324219 430.796875 135.988281 430.460938 135.988281 430.042969 C 135.988281 429.625 136.324219 429.289062 136.738281 429.289062 L 146.667969 429.289062 C 147.082031 429.289062 147.417969 429.625 147.417969 430.042969 C 147.417969 430.460938 147.082031 430.796875 146.667969 430.796875 " fill-opacity="1" fill-rule="nonzero"/><path fill="#ffffff" d="M 164.8125 403.347656 L 162.628906 422.652344 L 153.84375 420.242188 L 154.519531 402.84375 L 164.8125 403.347656 " fill-opacity="1" fill-rule="nonzero"/><path fill="#000000" d="M 154.621094 419.671875 L 161.980469 421.695312 L 163.972656 404.058594 L 155.242188 403.632812 Z M 162.628906 423.40625 C 162.5625 423.40625 162.496094 423.398438 162.429688 423.378906 L 153.644531 420.96875 C 153.308594 420.875 153.078125 420.5625 153.09375 420.210938 L 153.769531 402.816406 C 153.777344 402.613281 153.863281 402.425781 154.011719 402.289062 C 154.160156 402.15625 154.359375 402.085938 154.558594 402.09375 L 164.847656 402.59375 C 165.058594 402.605469 165.25 402.699219 165.386719 402.859375 C 165.519531 403.015625 165.582031 403.222656 165.558594 403.429688 L 163.375 422.738281 C 163.351562 422.957031 163.234375 423.152344 163.050781 423.277344 C 162.925781 423.363281 162.777344 423.40625 162.628906 423.40625 " fill-opacity="1" fill-rule="nonzero"/><path fill="#99b9ff" d="M 163.457031 436.875 L 149.558594 436.875 C 147.675781 436.875 146.234375 435.207031 146.507812 433.347656 C 146.972656 430.203125 148.484375 424.992188 153.015625 417.824219 C 153.511719 417.042969 154.375 416.566406 155.300781 416.566406 L 159.527344 416.566406 C 160.257812 416.566406 160.867188 417.117188 160.945312 417.84375 L 161.261719 420.894531 L 163.101562 418.460938 C 163.101562 418.460938 166.386719 425.386719 166.539062 433.738281 C 166.574219 435.460938 165.179688 436.875 163.457031 436.875 " fill-opacity="1" fill-rule="nonzero"/><path fill="#000000" d="M 155.300781 417.320312 C 154.636719 417.320312 154.007812 417.667969 153.652344 418.226562 C 149.175781 425.304688 147.703125 430.414062 147.253906 433.457031 C 147.152344 434.125 147.351562 434.800781 147.792969 435.316406 C 148.234375 435.828125 148.878906 436.125 149.558594 436.125 L 163.457031 436.125 C 164.085938 436.125 164.679688 435.875 165.121094 435.425781 C 165.5625 434.972656 165.800781 434.378906 165.789062 433.75 C 165.675781 427.640625 163.824219 422.246094 162.917969 419.957031 L 161.863281 421.347656 C 161.675781 421.597656 161.355469 421.703125 161.0625 421.621094 C 160.761719 421.539062 160.546875 421.28125 160.515625 420.972656 L 160.195312 417.921875 C 160.160156 417.578125 159.871094 417.320312 159.527344 417.320312 Z M 163.457031 437.628906 L 149.558594 437.628906 C 148.441406 437.628906 147.382812 437.144531 146.652344 436.296875 C 145.925781 435.457031 145.601562 434.339844 145.765625 433.238281 C 146.234375 430.050781 147.765625 424.722656 152.378906 417.421875 C 153.015625 416.414062 154.109375 415.8125 155.300781 415.8125 L 159.527344 415.8125 C 160.644531 415.8125 161.578125 416.652344 161.691406 417.761719 L 161.8125 418.917969 L 162.503906 418.007812 C 162.660156 417.796875 162.917969 417.6875 163.179688 417.710938 C 163.441406 417.742188 163.671875 417.902344 163.78125 418.140625 C 163.917969 418.429688 167.140625 425.308594 167.292969 433.722656 C 167.3125 434.761719 166.921875 435.738281 166.195312 436.480469 C 165.46875 437.222656 164.496094 437.628906 163.457031 437.628906 " fill-opacity="1" fill-rule="nonzero"/><path fill="#000000" d="M 164.492188 434.304688 L 147.855469 434.304688 C 147.4375 434.304688 147.101562 433.96875 147.101562 433.554688 C 147.101562 433.136719 147.4375 432.800781 147.855469 432.800781 L 164.492188 432.800781 C 164.90625 432.800781 165.242188 433.136719 165.242188 433.554688 C 165.242188 433.96875 164.90625 434.304688 164.492188 434.304688 " fill-opacity="1" fill-rule="nonzero"/><path fill="#000000" d="M 131.820312 287.394531 C 132.1875 286.503906 132.921875 285.824219 133.839844 285.535156 C 138.921875 283.941406 156.640625 279.734375 174.882812 291.445312 C 175.742188 291.996094 176.292969 292.921875 176.367188 293.945312 C 177.023438 303.222656 179.484375 351.726562 164.15625 409.152344 L 153.828125 408.417969 L 151.722656 310.222656 C 151.722656 310.222656 136.429688 346.222656 148.867188 403.511719 L 138.125 405.496094 C 138.125 405.496094 122.410156 384.8125 119.59375 353.199219 C 117.105469 325.238281 129.035156 294.1875 131.820312 287.394531 " fill-opacity="1" fill-rule="nonzero"/><path fill="#ffffff" d="M 161.523438 363.863281 C 161.125 363.863281 160.789062 363.546875 160.773438 363.144531 C 160.753906 362.726562 161.078125 362.375 161.492188 362.355469 C 170.003906 361.992188 171.011719 349.984375 171.019531 349.863281 C 171.050781 349.449219 171.410156 349.140625 171.828125 349.167969 C 172.242188 349.199219 172.554688 349.5625 172.523438 349.976562 C 172.511719 350.113281 171.402344 363.4375 161.558594 363.863281 C 161.546875 363.863281 161.535156 363.863281 161.523438 363.863281 " fill-opacity="1" fill-rule="nonzero"/><path fill="#ffffff" d="M 150.828125 319.980469 C 150.820312 319.980469 150.8125 319.980469 150.804688 319.980469 C 150.386719 319.96875 150.0625 319.621094 150.074219 319.207031 L 150.425781 307.328125 L 144.320312 303.03125 C 143.980469 302.792969 143.898438 302.324219 144.136719 301.980469 C 144.375 301.640625 144.847656 301.558594 145.1875 301.800781 L 151.625 306.328125 C 151.828125 306.476562 151.949219 306.714844 151.941406 306.96875 L 151.578125 319.25 C 151.566406 319.660156 151.230469 319.980469 150.828125 319.980469 " fill-opacity="1" fill-rule="nonzero"/><path fill="#000000" d="M 164.746094 200.039062 C 168.671875 196.65625 169.566406 196.199219 170.710938 194.261719 C 171.640625 192.679688 173.722656 189.152344 172.316406 185.425781 C 171.097656 182.199219 167.734375 180.253906 164.640625 180.085938 C 161.863281 179.9375 159.835938 181.253906 158.761719 181.945312 C 158.292969 182.25 154.164062 185.007812 153.347656 189.515625 C 153.125 190.742188 153.289062 191.304688 152.734375 192.070312 C 151.476562 193.796875 149.203125 192.914062 147.632812 194.347656 C 145.65625 196.148438 146.574219 199.980469 146.648438 200.28125 C 147.679688 204.367188 152.09375 207.078125 155.691406 206.703125 C 157.765625 206.484375 157.542969 206.238281 164.746094 200.039062 " fill-opacity="1" fill-rule="nonzero"/><path fill="#ffffff" d="M 153.925781 220.261719 C 155.820312 219.003906 156.929688 216.847656 156.875 214.570312 L 156.660156 205.121094 C 156.597656 205.058594 156.53125 205 156.46875 204.9375 C 156.46875 204.9375 152.6875 205.191406 152.136719 203.265625 C 151.585938 201.335938 154.261719 200.96875 154.261719 200.96875 C 154.261719 200.96875 151.734375 195.644531 158.269531 195.707031 C 160.023438 195.722656 160.652344 192.8125 163.53125 192.160156 C 163.53125 192.160156 164.953125 192.035156 166.398438 195.777344 L 169.558594 200.460938 L 167.980469 201.328125 C 168.367188 203.109375 168.535156 205.070312 168.296875 207.152344 C 168.230469 207.753906 167.816406 208.257812 167.242188 208.441406 C 166.765625 208.597656 166.128906 208.757812 165.375 208.847656 L 165.882812 215.175781 C 166.105469 217.941406 167.554688 220.464844 169.828125 222.0625 C 172.023438 223.601562 174.050781 224.691406 174.050781 224.691406 C 174.050781 224.691406 162.398438 226.289062 149 223.222656 C 149 223.222656 151.585938 221.808594 153.925781 220.261719 " fill-opacity="1" fill-rule="nonzero"/><path fill="#000000" d="M 151.089844 222.902344 C 159.976562 224.664062 167.898438 224.433594 171.652344 224.164062 C 170.980469 223.75 170.203125 223.246094 169.394531 222.679688 C 166.925781 220.945312 165.375 218.230469 165.132812 215.234375 L 164.625 208.90625 C 164.589844 208.503906 164.882812 208.148438 165.285156 208.101562 C 165.878906 208.03125 166.457031 207.90625 167.011719 207.726562 C 167.304688 207.628906 167.515625 207.375 167.550781 207.066406 C 167.757812 205.25 167.65625 203.375 167.246094 201.488281 C 167.175781 201.160156 167.324219 200.828125 167.617188 200.667969 L 168.472656 200.195312 L 165.773438 196.199219 C 165.742188 196.148438 165.71875 196.101562 165.695312 196.046875 C 164.691406 193.449219 163.789062 192.996094 163.570312 192.925781 C 162.347656 193.242188 161.609375 194.054688 160.894531 194.84375 C 160.171875 195.644531 159.417969 196.46875 158.261719 196.460938 C 157.042969 196.445312 155.464844 196.640625 154.839844 197.617188 C 154.09375 198.785156 154.929688 200.625 154.941406 200.644531 C 155.042969 200.859375 155.035156 201.113281 154.921875 201.324219 C 154.808594 201.535156 154.601562 201.679688 154.363281 201.710938 C 154.082031 201.753906 153.203125 201.972656 152.910156 202.429688 C 152.839844 202.535156 152.761719 202.714844 152.859375 203.058594 C 153.148438 204.066406 155.382812 204.253906 156.421875 204.1875 C 156.628906 204.175781 156.835938 204.25 156.988281 204.394531 L 157.171875 204.566406 C 157.320312 204.707031 157.410156 204.898438 157.414062 205.101562 L 157.628906 214.554688 C 157.6875 217.117188 156.457031 219.484375 154.339844 220.890625 C 153.214844 221.632812 152.023438 222.355469 151.089844 222.902344 Z M 166.273438 225.851562 C 161.648438 225.851562 155.429688 225.46875 148.832031 223.960938 C 148.527344 223.890625 148.296875 223.640625 148.253906 223.328125 C 148.210938 223.019531 148.363281 222.714844 148.640625 222.566406 C 148.664062 222.550781 151.226562 221.144531 153.507812 219.632812 C 155.191406 218.515625 156.171875 216.628906 156.125 214.589844 L 155.921875 205.707031 C 154.671875 205.699219 151.976562 205.445312 151.414062 203.472656 C 151.21875 202.789062 151.300781 202.144531 151.648438 201.605469 C 152.050781 200.988281 152.722656 200.640625 153.273438 200.441406 C 153.011719 199.527344 152.785156 198.039062 153.574219 196.804688 C 154.371094 195.554688 155.953125 194.933594 158.277344 194.953125 C 158.277344 194.953125 158.28125 194.953125 158.28125 194.953125 C 158.742188 194.953125 159.152344 194.527344 159.78125 193.832031 C 160.59375 192.9375 161.601562 191.824219 163.363281 191.425781 C 163.398438 191.417969 163.433594 191.414062 163.464844 191.410156 C 163.796875 191.378906 165.507812 191.445312 167.070312 195.425781 L 170.183594 200.039062 C 170.300781 200.214844 170.339844 200.429688 170.289062 200.636719 C 170.242188 200.839844 170.105469 201.019531 169.921875 201.121094 L 168.828125 201.722656 C 169.179688 203.582031 169.253906 205.4375 169.046875 207.238281 C 168.941406 208.128906 168.324219 208.882812 167.472656 209.15625 C 167.054688 209.296875 166.621094 209.40625 166.179688 209.488281 L 166.632812 215.113281 C 166.835938 217.660156 168.160156 219.96875 170.261719 221.445312 C 172.394531 222.945312 174.386719 224.015625 174.40625 224.027344 C 174.691406 224.183594 174.847656 224.503906 174.789062 224.824219 C 174.730469 225.144531 174.472656 225.394531 174.152344 225.4375 C 174.089844 225.445312 171.023438 225.851562 166.273438 225.851562 " fill-opacity="1" fill-rule="nonzero"/><path fill="#ffffff" d="M 165.375 208.847656 C 165.375 208.847656 161.226562 208.996094 159.578125 206.734375 L 165.375 208.847656 " fill-opacity="1" fill-rule="nonzero"/><path fill="#000000" d="M 165.207031 209.605469 C 164.3125 209.605469 160.636719 209.460938 158.972656 207.179688 C 158.726562 206.84375 158.800781 206.371094 159.136719 206.128906 C 159.472656 205.882812 159.941406 205.953125 160.1875 206.292969 C 161.347656 207.878906 164.300781 208.132812 165.347656 208.09375 C 165.769531 208.078125 166.109375 208.40625 166.125 208.820312 C 166.140625 209.238281 165.816406 209.585938 165.398438 209.601562 C 165.378906 209.601562 165.3125 209.605469 165.207031 209.605469 " fill-opacity="1" fill-rule="nonzero"/><path fill="#000000" d="M 80.398438 277.003906 L 120.066406 277.003906 L 90.660156 231.730469 C 89.738281 230.316406 88.136719 229.460938 86.417969 229.460938 L 54.222656 229.460938 C 52.175781 229.460938 50.933594 231.648438 52.027344 233.332031 L 80.398438 277.003906 " fill-opacity="1" fill-rule="nonzero"/><path fill="#5479f7" d="M 71.933594 245.335938 C 73.222656 247.320312 75.996094 248.925781 78.125 248.925781 C 80.257812 248.925781 80.9375 247.320312 79.648438 245.335938 C 78.363281 243.351562 75.589844 241.742188 73.457031 241.742188 C 71.328125 241.742188 70.644531 243.351562 71.933594 245.335938 " fill-opacity="1" fill-rule="nonzero"/><path fill="#000000" d="M 84.355469 280.785156 L 150.398438 280.785156 C 152.664062 280.785156 154.5 278.949219 154.5 276.679688 L 80.253906 276.679688 C 80.253906 278.949219 82.089844 280.785156 84.355469 280.785156 " fill-opacity="1" fill-rule="nonzero"/><path fill="#ffffff" d="M 116.527344 277.800781 L 82.460938 277.800781 C 82.042969 277.800781 81.707031 277.460938 81.707031 277.046875 C 81.707031 276.628906 82.042969 276.292969 82.460938 276.292969 L 116.527344 276.292969 C 116.945312 276.292969 117.28125 276.628906 117.28125 277.046875 C 117.28125 277.460938 116.945312 277.800781 116.527344 277.800781 " fill-opacity="1" fill-rule="nonzero"/><path fill="#ffffff" d="M 384.296875 232.574219 C 384.296875 232.574219 373.925781 234.757812 363.773438 227.671875 C 353.621094 220.585938 347.203125 215.636719 347.203125 215.636719 C 347.203125 215.636719 347.183594 211.742188 345.007812 210.113281 C 342.835938 208.480469 341.546875 202.929688 339.84375 202.964844 L 340.453125 209.261719 C 340.453125 209.261719 335.292969 206.753906 332.65625 205.222656 C 330.011719 203.695312 328.207031 204.601562 328.207031 204.601562 C 328.207031 204.601562 337.347656 216.160156 340.289062 217.234375 C 343.234375 218.304688 344.785156 222.742188 346.425781 225 C 348.066406 227.257812 348.066406 227.257812 348.066406 227.257812 C 348.066406 227.257812 360.21875 248.277344 384.296875 246.25 L 384.296875 232.574219 " fill-opacity="1" fill-rule="nonzero"/><path fill="#000000" d="M 329.558594 205.085938 C 333.21875 209.632812 338.671875 215.84375 340.546875 216.523438 C 342.910156 217.386719 344.371094 219.992188 345.664062 222.289062 C 346.140625 223.140625 346.589844 223.949219 347.035156 224.554688 L 348.675781 226.816406 C 348.691406 226.835938 348.703125 226.855469 348.71875 226.878906 C 348.835938 227.082031 360.6875 247.058594 383.542969 245.550781 L 383.542969 233.460938 C 380.75 233.828125 372.019531 234.347656 363.34375 228.289062 C 353.289062 221.273438 346.804688 216.285156 346.742188 216.238281 C 346.558594 216.09375 346.449219 215.875 346.449219 215.644531 C 346.449219 215.609375 346.402344 212.097656 344.558594 210.710938 C 343.398438 209.84375 342.546875 208.167969 341.726562 206.550781 C 341.476562 206.054688 341.121094 205.351562 340.773438 204.769531 L 341.199219 209.1875 C 341.226562 209.457031 341.105469 209.722656 340.882812 209.878906 C 340.660156 210.03125 340.367188 210.054688 340.121094 209.9375 C 339.914062 209.835938 334.910156 207.398438 332.277344 205.875 C 331.144531 205.21875 330.207031 205.074219 329.558594 205.085938 Z M 381.082031 247.140625 C 359.417969 247.140625 348.015625 228.640625 347.4375 227.671875 L 345.816406 225.441406 C 345.320312 224.761719 344.851562 223.917969 344.347656 223.027344 C 343.1875 220.957031 341.875 218.609375 340.035156 217.941406 C 336.980469 216.828125 328.566406 206.269531 327.617188 205.066406 C 327.476562 204.890625 327.425781 204.660156 327.472656 204.4375 C 327.519531 204.21875 327.667969 204.03125 327.871094 203.929688 C 327.957031 203.886719 330.074219 202.859375 333.03125 204.570312 C 334.84375 205.621094 337.890625 207.15625 339.570312 207.984375 L 339.089844 203.039062 C 339.074219 202.828125 339.140625 202.625 339.28125 202.464844 C 339.417969 202.308594 339.613281 202.21875 339.824219 202.214844 C 341.179688 202.171875 342.066406 203.890625 343.070312 205.867188 C 343.777344 207.265625 344.582031 208.847656 345.460938 209.507812 C 347.5 211.039062 347.871094 214.167969 347.9375 215.253906 C 349.28125 216.28125 355.351562 220.875 364.203125 227.054688 C 373.949219 233.859375 384.039062 231.859375 384.140625 231.835938 C 384.363281 231.789062 384.59375 231.847656 384.773438 231.988281 C 384.945312 232.132812 385.046875 232.347656 385.046875 232.574219 L 385.046875 246.25 C 385.046875 246.640625 384.75 246.96875 384.359375 247 C 383.242188 247.09375 382.148438 247.140625 381.082031 247.140625 " fill-opacity="1" fill-rule="nonzero"/><path fill="#5479f7" d="M 377.257812 230.992188 L 382.636719 253.136719 C 382.636719 253.136719 393.867188 251.375 394.445312 256.253906 C 395.023438 261.125 393.546875 276.773438 392.933594 282.394531 C 392.316406 288.019531 391.316406 294.914062 398.421875 296.699219 C 405.527344 298.484375 431.433594 293.050781 438.21875 296.046875 C 445.003906 299.039062 447.414062 295.796875 446.851562 290.523438 C 446.289062 285.253906 444.921875 261.140625 444.921875 261.140625 L 449.671875 277.039062 L 462.632812 275.625 C 462.632812 275.625 459.769531 240.84375 442.566406 234.195312 C 425.363281 227.542969 417.789062 227.246094 404.929688 228.339844 C 392.078125 229.4375 383.128906 232.519531 377.257812 230.992188 " fill-opacity="1" fill-rule="nonzero"/><path fill="#000000" d="M 431.164062 294.375 C 434.300781 294.375 436.894531 294.640625 438.519531 295.355469 C 441.339844 296.597656 443.492188 296.769531 444.742188 295.855469 C 445.890625 295.015625 446.375 293.148438 446.105469 290.601562 C 445.542969 285.375 444.183594 261.421875 444.171875 261.179688 C 444.148438 260.800781 444.414062 260.464844 444.789062 260.398438 C 445.167969 260.332031 445.535156 260.558594 445.644531 260.925781 L 450.214844 276.21875 L 461.808594 274.957031 C 461.269531 269.949219 457.5 240.773438 442.292969 234.898438 C 425.054688 228.234375 417.691406 228.011719 405 229.09375 C 400.003906 229.515625 395.601562 230.246094 391.722656 230.886719 C 386.253906 231.789062 381.8125 232.523438 378.269531 231.96875 L 383.207031 252.300781 C 385.210938 252.0625 391 251.582031 393.707031 253.636719 C 394.570312 254.292969 395.070312 255.140625 395.195312 256.164062 C 395.890625 262.078125 393.703125 282.277344 393.679688 282.476562 L 393.625 283.015625 C 393.003906 288.613281 392.363281 294.402344 398.605469 295.972656 C 401.6875 296.742188 408.625 296.089844 415.96875 295.394531 C 421.316406 294.890625 426.769531 294.375 431.164062 294.375 Z M 442.703125 297.945312 C 441.347656 297.945312 439.746094 297.542969 437.914062 296.734375 C 434.371094 295.171875 424.671875 296.085938 416.109375 296.894531 C 408.632812 297.601562 401.570312 298.269531 398.238281 297.429688 C 390.722656 295.542969 391.5 288.507812 392.125 282.851562 L 392.183594 282.316406 C 392.796875 276.707031 394.265625 261.109375 393.695312 256.339844 C 393.625 255.734375 393.332031 255.242188 392.796875 254.835938 C 390.53125 253.117188 384.777344 253.566406 382.753906 253.882812 C 382.367188 253.945312 382 253.699219 381.90625 253.316406 L 376.527344 231.171875 C 376.464844 230.914062 376.542969 230.640625 376.734375 230.457031 C 376.921875 230.269531 377.191406 230.195312 377.449219 230.265625 C 380.867188 231.152344 385.550781 230.378906 391.480469 229.402344 C 395.382812 228.753906 399.816406 228.019531 404.867188 227.589844 C 417.511719 226.511719 425.378906 226.746094 442.835938 233.488281 C 460.28125 240.234375 463.265625 274.125 463.382812 275.5625 C 463.414062 275.972656 463.121094 276.332031 462.710938 276.375 L 449.757812 277.785156 C 449.394531 277.824219 449.054688 277.601562 448.953125 277.253906 L 446.050781 267.539062 C 446.496094 275.074219 447.230469 286.960938 447.597656 290.445312 C 447.9375 293.59375 447.253906 295.882812 445.628906 297.070312 C 444.835938 297.652344 443.855469 297.945312 442.703125 297.945312 " fill-opacity="1" fill-rule="nonzero"/><path fill="#000000" d="M 424.789062 200.949219 C 425.832031 202.941406 425.3125 205.394531 423.464844 206.683594 C 421.433594 208.101562 419.132812 210.160156 417.8125 212.824219 C 415.074219 218.351562 418.335938 222.023438 426.710938 221.476562 C 435.09375 220.925781 435.355469 222.242188 442.933594 225.996094 C 450.515625 229.746094 453.699219 227.671875 453.851562 220.898438 C 454.003906 214.125 446.667969 205.828125 443.199219 204.550781 C 442.890625 204.433594 442.347656 204.101562 441.613281 203.585938 C 438.691406 201.535156 438.007812 199.410156 436.714844 198.074219 C 433.496094 194.753906 425.554688 195.332031 424.402344 198.027344 C 424.082031 198.78125 424.160156 199.742188 424.789062 200.949219 " fill-opacity="1" fill-rule="nonzero"/><path fill="#000000" d="M 442.222656 197.261719 C 439.996094 199.113281 438.734375 202.550781 439.9375 204.003906 C 441.140625 205.449219 444.359375 204.359375 446.582031 202.511719 C 448.804688 200.664062 449.191406 198.75 447.984375 197.300781 C 446.78125 195.851562 444.441406 195.414062 442.222656 197.261719 " fill-opacity="1" fill-rule="nonzero"/><path fill="#ffffff" d="M 440.371094 212.6875 C 439.917969 212.332031 439.277344 212.3125 438.632812 212.566406 C 438.457031 211.472656 438.21875 210.558594 438.21875 210.558594 C 438.4375 205.976562 430.179688 204.375 430.179688 204.375 L 429.859375 204.375 C 428.679688 205.9375 427.804688 207.375 427.167969 208.679688 C 426.996094 209.035156 426.742188 209.347656 426.425781 209.578125 L 425.042969 210.582031 C 424.570312 210.925781 424.492188 211.601562 424.867188 212.042969 L 425.660156 212.984375 C 423.820312 218.714844 427.21875 219.320312 427.21875 219.320312 C 427.710938 219.445312 428.1875 219.527344 428.648438 219.582031 C 427.523438 222.644531 424.625 228.199219 418.339844 228.726562 C 417.675781 228.78125 417.390625 229.597656 417.898438 230.03125 C 420.542969 232.3125 427.09375 236.609375 437.25 234.582031 C 437.984375 234.433594 438.199219 233.503906 437.617188 233.03125 C 435.597656 231.402344 433.039062 227.355469 436.035156 217.765625 C 436.382812 217.539062 436.691406 217.320312 436.949219 217.113281 C 437.78125 217.710938 439.1875 217.257812 440.125 216.070312 C 441.085938 214.855469 441.195312 213.34375 440.371094 212.6875 " fill-opacity="1" fill-rule="nonzero"/><path fill="#000000" d="M 430.210938 205.160156 C 429.246094 206.472656 428.449219 207.769531 427.839844 209.015625 C 427.605469 209.488281 427.269531 209.894531 426.863281 210.191406 L 425.480469 211.195312 C 425.402344 211.253906 425.386719 211.328125 425.382812 211.371094 C 425.375 211.410156 425.378906 211.488281 425.4375 211.5625 L 426.230469 212.5 C 426.398438 212.699219 426.457031 212.96875 426.375 213.21875 C 425.734375 215.21875 425.695312 216.777344 426.269531 217.726562 C 426.699219 218.4375 427.339844 218.582031 427.351562 218.582031 C 427.367188 218.582031 427.382812 218.585938 427.402344 218.59375 C 427.824219 218.699219 428.257812 218.777344 428.738281 218.835938 C 428.96875 218.863281 429.171875 218.992188 429.289062 219.191406 C 429.410156 219.386719 429.433594 219.628906 429.359375 219.84375 C 428.117188 223.203125 425.042969 228.921875 418.402344 229.476562 C 421.242188 231.925781 427.472656 235.765625 437.097656 233.84375 C 437.121094 233.839844 437.171875 233.828125 437.191406 233.757812 C 437.203125 233.703125 437.1875 233.65625 437.144531 233.621094 C 435.097656 231.96875 432.140625 227.691406 435.316406 217.542969 C 435.371094 217.375 435.480469 217.234375 435.625 217.136719 C 435.929688 216.933594 436.226562 216.722656 436.480469 216.523438 C 436.742188 216.320312 437.109375 216.308594 437.382812 216.503906 C 437.816406 216.8125 438.804688 216.519531 439.53125 215.601562 C 439.898438 215.144531 440.128906 214.597656 440.164062 214.117188 C 440.179688 213.898438 440.167969 213.492188 439.898438 213.28125 C 439.589844 213.039062 439.101562 213.191406 438.902344 213.265625 C 438.691406 213.351562 438.453125 213.332031 438.253906 213.21875 C 438.058594 213.105469 437.921875 212.90625 437.886719 212.6875 C 437.71875 211.644531 437.492188 210.757812 437.488281 210.75 C 437.472656 210.675781 437.460938 210.597656 437.464844 210.523438 C 437.632812 207.03125 431.371094 205.425781 430.210938 205.160156 Z M 432.105469 235.859375 C 424.460938 235.859375 419.433594 232.355469 417.40625 230.605469 C 416.941406 230.207031 416.765625 229.601562 416.957031 229.019531 C 417.144531 228.4375 417.664062 228.027344 418.277344 227.976562 C 423.566406 227.535156 426.3125 223.230469 427.605469 220.179688 C 427.417969 220.144531 427.234375 220.105469 427.054688 220.058594 C 426.816406 220.007812 425.710938 219.71875 424.980469 218.503906 C 424.207031 217.226562 424.152344 215.429688 424.816406 213.160156 L 424.289062 212.535156 C 423.976562 212.164062 423.828125 211.671875 423.886719 211.1875 C 423.945312 210.707031 424.207031 210.261719 424.597656 209.976562 L 425.980469 208.972656 C 426.1875 208.816406 426.363281 208.605469 426.488281 208.351562 C 427.1875 206.917969 428.117188 205.429688 429.257812 203.925781 C 429.398438 203.738281 429.621094 203.625 429.855469 203.625 L 430.175781 203.625 C 430.222656 203.625 430.269531 203.628906 430.320312 203.636719 C 430.675781 203.707031 439.089844 205.394531 438.972656 210.480469 C 439.023438 210.675781 439.125 211.105469 439.230469 211.652344 C 439.835938 211.601562 440.394531 211.753906 440.832031 212.097656 C 441.421875 212.570312 441.726562 213.34375 441.664062 214.226562 C 441.605469 215.011719 441.269531 215.835938 440.710938 216.539062 C 439.6875 217.832031 438.171875 218.398438 437.027344 218 C 436.914062 218.078125 436.796875 218.167969 436.675781 218.246094 C 433.890625 227.355469 436.355469 231.050781 438.085938 232.449219 C 438.589844 232.851562 438.804688 233.492188 438.652344 234.117188 C 438.5 234.734375 438.015625 235.199219 437.394531 235.320312 C 435.511719 235.695312 433.746094 235.859375 432.105469 235.859375 " fill-opacity="1" fill-rule="nonzero"/><path fill="#000000" d="M 429.90625 220.4375 C 429.488281 220.4375 429.03125 220.402344 428.539062 220.324219 C 428.125 220.265625 427.84375 219.878906 427.90625 219.46875 C 427.96875 219.058594 428.355469 218.773438 428.761719 218.835938 C 431.660156 219.277344 432.785156 217.96875 432.796875 217.960938 C 433.058594 217.632812 433.53125 217.574219 433.855469 217.835938 C 434.183594 218.09375 434.234375 218.566406 433.976562 218.894531 C 433.921875 218.964844 432.71875 220.4375 429.90625 220.4375 " fill-opacity="1" fill-rule="nonzero"/><path fill="#ffffff" d="M 415.261719 407.289062 L 415.671875 422.566406 L 421.0625 423.148438 L 423.730469 406.707031 L 415.261719 407.289062 " fill-opacity="1" fill-rule="nonzero"/><path fill="#000000" d="M 416.40625 421.886719 L 420.4375 422.324219 L 422.835938 407.523438 L 416.035156 407.988281 Z M 421.066406 423.902344 C 421.039062 423.902344 421.011719 423.902344 420.984375 423.898438 L 415.59375 423.316406 C 415.21875 423.273438 414.933594 422.964844 414.921875 422.585938 L 414.511719 407.308594 C 414.5 406.902344 414.808594 406.566406 415.210938 406.539062 L 423.683594 405.957031 C 423.910156 405.941406 424.132812 406.03125 424.289062 406.199219 C 424.441406 406.371094 424.511719 406.601562 424.476562 406.828125 L 421.808594 423.269531 C 421.75 423.636719 421.429688 423.902344 421.066406 423.902344 " fill-opacity="1" fill-rule="nonzero"/><path fill="#ffffff" d="M 384.667969 412.304688 L 383.808594 424.476562 L 390.933594 425.058594 L 393.476562 412.304688 L 384.667969 412.304688 " fill-opacity="1" fill-rule="nonzero"/><path fill="#000000" d="M 384.609375 423.785156 L 390.328125 424.25 L 392.558594 413.058594 L 385.367188 413.058594 Z M 390.929688 425.8125 C 390.914062 425.8125 390.890625 425.8125 390.871094 425.808594 L 383.746094 425.226562 C 383.335938 425.191406 383.03125 424.832031 383.058594 424.421875 L 383.917969 412.25 C 383.945312 411.859375 384.273438 411.550781 384.667969 411.550781 L 393.476562 411.550781 C 393.699219 411.550781 393.914062 411.652344 394.058594 411.824219 C 394.199219 412 394.257812 412.230469 394.214844 412.453125 L 391.671875 425.207031 C 391.597656 425.5625 391.289062 425.8125 390.929688 425.8125 " fill-opacity="1" fill-rule="nonzero"/><path fill="#ffffff" d="M 392.835938 430.300781 C 393.332031 429.96875 393.632812 429.414062 393.648438 428.824219 C 393.695312 427.035156 393.703125 423.230469 392.980469 421.804688 C 392.027344 419.90625 388.085938 422.550781 388.085938 422.550781 C 388.085938 422.550781 385.78125 419.351562 384.429688 418.679688 C 383.734375 418.332031 379.644531 421.054688 375.523438 424.769531 C 371.007812 428.839844 368.96875 430.136719 367.992188 433.648438 C 367.539062 435.292969 368.746094 436.949219 370.449219 437.070312 C 374.59375 437.367188 382.96875 436.871094 392.835938 430.300781 " fill-opacity="1" fill-rule="nonzero"/><path fill="#000000" d="M 384.207031 419.414062 C 383.414062 419.589844 380.109375 421.652344 376.027344 425.328125 C 375.316406 425.972656 374.660156 426.546875 374.0625 427.074219 C 370.917969 429.84375 369.480469 431.109375 368.722656 433.847656 C 368.570312 434.398438 368.671875 434.992188 369.011719 435.46875 C 369.359375 435.964844 369.902344 436.273438 370.503906 436.320312 C 374.53125 436.605469 382.730469 436.125 392.421875 429.671875 C 392.710938 429.480469 392.890625 429.15625 392.894531 428.800781 C 392.980469 425.53125 392.761719 423.042969 392.308594 422.144531 C 392.246094 422.011719 392.160156 421.941406 392.011719 421.902344 C 391.136719 421.675781 389.273438 422.664062 388.507812 423.175781 C 388.171875 423.402344 387.71875 423.320312 387.476562 422.988281 C 386.664062 421.859375 385.09375 419.949219 384.207031 419.414062 Z M 372.273438 437.886719 C 371.578125 437.886719 370.949219 437.859375 370.398438 437.820312 C 369.34375 437.746094 368.390625 437.203125 367.78125 436.339844 C 367.179688 435.488281 366.996094 434.433594 367.273438 433.445312 C 368.148438 430.273438 369.898438 428.734375 373.066406 425.941406 C 373.664062 425.421875 374.3125 424.851562 375.019531 424.210938 C 375.34375 423.917969 382.949219 417.097656 384.769531 418.003906 C 385.917969 418.578125 387.515625 420.546875 388.28125 421.546875 C 389.234375 420.996094 391.066406 420.097656 392.394531 420.445312 C 392.957031 420.59375 393.394531 420.945312 393.65625 421.464844 C 394.390625 422.929688 394.46875 426.285156 394.402344 428.839844 C 394.378906 429.683594 393.949219 430.464844 393.253906 430.925781 C 384.507812 436.75 376.886719 437.886719 372.273438 437.886719 " fill-opacity="1" fill-rule="nonzero"/><path fill="#000000" d="M 374.332031 434.625 C 371.757812 434.625 370.097656 434.257812 369.925781 434.214844 C 369.519531 434.121094 369.269531 433.71875 369.363281 433.3125 C 369.457031 432.90625 369.863281 432.65625 370.265625 432.75 C 370.375 432.773438 381.277344 435.171875 391.675781 426.871094 C 392 426.609375 392.476562 426.664062 392.734375 426.988281 C 392.992188 427.3125 392.941406 427.789062 392.613281 428.046875 C 385.707031 433.566406 378.699219 434.625 374.332031 434.625 " fill-opacity="1" fill-rule="nonzero"/><path fill="#ffffff" d="M 413.132812 426.28125 L 413.210938 417.917969 C 413.210938 417.917969 414.886719 415.378906 417.183594 417.441406 C 417.183594 417.441406 419.308594 414.460938 423.246094 418.179688 C 423.246094 418.179688 428.796875 428.527344 431.253906 434.6875 C 431.910156 436.335938 430.734375 438.140625 428.964844 438.183594 C 426.417969 438.242188 423.125 438.105469 421.691406 437.132812 C 419.449219 435.617188 415.609375 430.835938 413.9375 428.679688 C 413.40625 427.992188 413.121094 427.152344 413.132812 426.28125 " fill-opacity="1" fill-rule="nonzero"/><path fill="#000000" d="M 413.128906 426.28125 L 413.136719 426.28125 Z M 413.964844 418.179688 L 413.882812 426.289062 C 413.878906 426.984375 414.109375 427.667969 414.535156 428.21875 C 416.089844 430.21875 419.941406 435.039062 422.113281 436.511719 C 423.109375 437.179688 425.53125 437.507812 428.945312 437.429688 C 429.535156 437.417969 430.0625 437.125 430.386719 436.632812 C 430.71875 436.128906 430.777344 435.523438 430.554688 434.964844 C 428.277344 429.253906 423.246094 419.769531 422.644531 418.640625 C 421.429688 417.523438 420.28125 416.976562 419.304688 417.074219 C 418.328125 417.171875 417.800781 417.871094 417.792969 417.878906 C 417.671875 418.054688 417.480469 418.167969 417.265625 418.191406 C 417.054688 418.214844 416.839844 418.144531 416.683594 418 C 416.167969 417.542969 415.671875 417.339844 415.210938 417.398438 C 414.632812 417.472656 414.167969 417.929688 413.964844 418.179688 Z M 427.953125 438.949219 C 424.683594 438.949219 422.4375 438.546875 421.265625 437.757812 C 419.007812 436.226562 415.332031 431.703125 413.34375 429.140625 C 412.710938 428.324219 412.367188 427.308594 412.378906 426.277344 L 412.457031 417.910156 C 412.460938 417.765625 412.503906 417.625 412.585938 417.5 C 412.621094 417.445312 413.527344 416.097656 415.019531 415.902344 C 415.734375 415.8125 416.4375 415.992188 417.117188 416.441406 C 417.550781 416.082031 418.234375 415.667969 419.15625 415.574219 C 420.617188 415.433594 422.171875 416.125 423.765625 417.628906 C 423.828125 417.6875 423.875 417.75 423.914062 417.820312 C 423.96875 417.925781 429.511719 428.28125 431.953125 434.40625 C 432.355469 435.414062 432.242188 436.558594 431.644531 437.460938 C 431.050781 438.359375 430.054688 438.910156 428.984375 438.933594 C 428.628906 438.945312 428.285156 438.949219 427.953125 438.949219 " fill-opacity="1" fill-rule="nonzero"/><path fill="#000000" d="M 417.183594 422.707031 C 416.769531 422.707031 416.429688 422.367188 416.429688 421.953125 L 416.433594 417.441406 C 416.433594 417.023438 416.769531 416.6875 417.183594 416.6875 C 417.601562 416.6875 417.9375 417.023438 417.9375 417.441406 L 417.9375 421.953125 C 417.9375 422.367188 417.597656 422.707031 417.183594 422.707031 " fill-opacity="1" fill-rule="nonzero"/><path fill="#000000" d="M 382.503906 412.996094 C 382.503906 412.996094 380.472656 382.277344 383.808594 354.644531 C 386.53125 332.097656 395.292969 301.675781 398.425781 291.242188 C 399.09375 289.019531 401.113281 287.484375 403.433594 287.445312 C 408.117188 287.363281 416.167969 287.390625 422.617188 288.257812 C 432.332031 289.5625 436.179688 288.21875 436.179688 288.21875 C 436.179688 288.21875 443.433594 296.53125 442.839844 312.164062 C 442.246094 327.792969 425.324219 393.722656 425.964844 409.195312 C 425.964844 409.195312 420.269531 412.058594 412.898438 410.636719 L 415.957031 321.78125 C 415.957031 321.78125 409.632812 340.074219 406.664062 352.605469 C 404.246094 362.820312 400.042969 369.429688 400.042969 369.429688 C 400.042969 369.429688 400.222656 393.175781 394.777344 412.886719 C 394.777344 412.886719 388.347656 414.898438 382.503906 412.996094 " fill-opacity="1" fill-rule="nonzero"/><path fill="#ffffff" d="M 393.175781 380.375 C 393.03125 380.375 392.882812 380.332031 392.75 380.242188 C 392.410156 380.007812 392.324219 379.539062 392.558594 379.195312 L 397.21875 372.40625 C 397.457031 372.0625 397.921875 371.976562 398.265625 372.210938 C 398.609375 372.445312 398.695312 372.914062 398.460938 373.261719 L 393.800781 380.046875 C 393.652344 380.261719 393.417969 380.375 393.175781 380.375 " fill-opacity="1" fill-rule="nonzero"/><path fill="#ffffff" d="M 424.527344 363.863281 C 422.949219 363.863281 421.773438 363.574219 421.679688 363.550781 C 421.277344 363.445312 421.03125 363.035156 421.136719 362.632812 C 421.238281 362.230469 421.648438 361.988281 422.050781 362.089844 C 422.113281 362.105469 426.351562 363.132812 429.226562 361.003906 C 429.558594 360.753906 430.027344 360.820312 430.28125 361.15625 C 430.523438 361.492188 430.457031 361.960938 430.121094 362.210938 C 428.335938 363.535156 426.203125 363.863281 424.527344 363.863281 " fill-opacity="1" fill-rule="nonzero"/><path fill="#ffffff" d="M 436.316406 293.109375 L 400.847656 293.109375 L 416.515625 254.5 L 451.980469 254.5 L 436.316406 293.109375 " fill-opacity="1" fill-rule="nonzero"/><path fill="#000000" d="M 401.964844 292.355469 L 435.808594 292.355469 L 450.863281 255.253906 L 417.023438 255.253906 Z M 436.3125 293.863281 L 400.847656 293.863281 C 400.59375 293.863281 400.363281 293.738281 400.222656 293.53125 C 400.082031 293.324219 400.054688 293.058594 400.148438 292.828125 L 415.816406 254.214844 C 415.933594 253.933594 416.207031 253.746094 416.511719 253.746094 L 451.980469 253.746094 C 452.230469 253.746094 452.464844 253.871094 452.605469 254.078125 C 452.746094 254.285156 452.773438 254.550781 452.679688 254.78125 L 437.011719 293.394531 C 436.894531 293.675781 436.621094 293.863281 436.3125 293.863281 " fill-opacity="1" fill-rule="nonzero"/><path fill="#ffffff" d="M 422.921875 280.949219 C 422.921875 280.949219 416.746094 277.324219 413.933594 276.554688 C 411.128906 275.789062 413.253906 278.160156 415.277344 279.128906 C 417.296875 280.097656 417.363281 281.371094 417.363281 281.371094 C 417.363281 281.371094 406.308594 281.011719 405.066406 280.949219 C 403.832031 280.886719 405.6875 282.609375 408.992188 283.160156 C 408.992188 283.160156 409.917969 285.960938 412.308594 287.296875 C 414.703125 288.632812 422.488281 287.296875 422.488281 287.296875 C 422.488281 287.296875 431.660156 291.128906 446.851562 290.523438 C 456.902344 290.121094 461.835938 282.027344 461.1875 276.269531 L 451.515625 277.164062 C 451.515625 277.164062 447.484375 286.265625 422.921875 280.949219 " fill-opacity="1" fill-rule="nonzero"/><path fill="#000000" d="M 422.488281 286.542969 C 422.585938 286.542969 422.6875 286.566406 422.777344 286.601562 C 422.867188 286.640625 431.992188 290.363281 446.824219 289.773438 C 451.144531 289.597656 454.929688 287.863281 457.484375 284.890625 C 459.464844 282.582031 460.558594 279.71875 460.488281 277.089844 L 451.972656 277.878906 C 450.835938 279.6875 444.941406 286.484375 422.761719 281.6875 C 422.6875 281.671875 422.613281 281.640625 422.542969 281.601562 C 422.480469 281.566406 416.742188 278.210938 413.964844 277.351562 C 414.382812 277.726562 414.972656 278.148438 415.601562 278.449219 C 417.957031 279.582031 418.101562 281.160156 418.109375 281.335938 C 418.121094 281.546875 418.042969 281.75 417.894531 281.898438 C 417.746094 282.050781 417.542969 282.128906 417.335938 282.125 C 416.976562 282.113281 410.222656 281.894531 406.828125 281.773438 C 407.417969 282.019531 408.179688 282.261719 409.117188 282.417969 C 409.394531 282.464844 409.617188 282.660156 409.707031 282.925781 C 409.714844 282.949219 410.578125 285.46875 412.675781 286.640625 C 414.445312 287.628906 420.265625 286.914062 422.359375 286.554688 C 422.402344 286.550781 422.445312 286.542969 422.488281 286.542969 Z M 443.566406 291.34375 C 431.371094 291.34375 423.757812 288.605469 422.402344 288.074219 C 420.945312 288.3125 414.339844 289.296875 411.941406 287.957031 C 409.882812 286.804688 408.820312 284.722656 408.441406 283.828125 C 406.34375 283.390625 403.796875 282.257812 403.933594 281.023438 C 403.980469 280.617188 404.304688 280.15625 405.101562 280.199219 C 406.070312 280.246094 413.136719 280.480469 416.089844 280.578125 C 415.84375 280.335938 415.484375 280.0625 414.949219 279.808594 C 414.21875 279.457031 411.371094 277.738281 411.894531 276.335938 C 412.273438 275.320312 413.675781 275.707031 414.132812 275.832031 C 416.832031 276.570312 422.339844 279.742188 423.195312 280.242188 C 446.78125 285.308594 450.78125 276.945312 450.820312 276.859375 C 450.933594 276.613281 451.167969 276.441406 451.441406 276.417969 L 461.113281 275.519531 C 461.53125 275.480469 461.886719 275.777344 461.933594 276.1875 C 462.296875 279.410156 461.058594 283.03125 458.625 285.871094 C 455.792969 289.167969 451.628906 291.089844 446.878906 291.277344 C 445.742188 291.324219 444.636719 291.34375 443.566406 291.34375 " fill-opacity="1" fill-rule="nonzero"/><path fill="#000000" d="M 313.953125 45.847656 C 313.867188 45.847656 313.785156 45.835938 313.703125 45.804688 C 310.871094 44.820312 307.988281 43.882812 305.128906 43.023438 C 304.730469 42.902344 304.5 42.476562 304.621094 42.074219 C 304.742188 41.671875 305.167969 41.445312 305.570312 41.566406 C 308.445312 42.433594 311.347656 43.375 314.203125 44.367188 C 314.601562 44.507812 314.808594 44.941406 314.671875 45.339844 C 314.558594 45.652344 314.265625 45.847656 313.953125 45.847656 " fill-opacity="1" fill-rule="nonzero"/><path fill="#000000" d="M 187.164062 44.4375 C 186.855469 44.4375 186.566406 44.242188 186.457031 43.9375 C 186.316406 43.542969 186.519531 43.113281 186.914062 42.972656 C 205.191406 36.4375 224.742188 33.011719 245.015625 32.792969 C 265.164062 32.578125 285.53125 35.53125 305.566406 41.570312 C 305.964844 41.691406 306.191406 42.113281 306.070312 42.511719 C 305.953125 42.910156 305.535156 43.132812 305.136719 43.015625 C 265.296875 31.003906 223.488281 31.496094 187.417969 44.390625 C 187.335938 44.421875 187.25 44.4375 187.164062 44.4375 " fill-opacity="1" fill-rule="nonzero"/><path fill="#000000" d="M 208.066406 50.230469 C 207.738281 50.230469 207.4375 50.015625 207.34375 49.683594 C 207.230469 49.28125 207.460938 48.867188 207.863281 48.753906 C 235.152344 41.019531 265.199219 40.488281 294.761719 47.21875 C 295.164062 47.3125 295.417969 47.714844 295.328125 48.125 C 295.234375 48.527344 294.835938 48.78125 294.429688 48.6875 C 265.109375 42.015625 235.320312 42.539062 208.273438 50.203125 C 208.203125 50.222656 208.132812 50.230469 208.066406 50.230469 " fill-opacity="1" fill-rule="nonzero"/><path fill="#000000" d="M 334.566406 52.128906 C 334.535156 52.128906 334.503906 52.128906 334.476562 52.132812 C 333.765625 52.15625 333.113281 52.453125 332.628906 52.972656 C 332.144531 53.488281 331.894531 54.160156 331.917969 54.867188 C 331.941406 55.578125 332.234375 56.234375 332.753906 56.71875 C 333.269531 57.203125 333.949219 57.453125 334.652344 57.429688 C 335.359375 57.40625 336.015625 57.109375 336.5 56.589844 C 336.980469 56.074219 337.234375 55.398438 337.210938 54.691406 C 337.164062 53.261719 335.984375 52.128906 334.566406 52.128906 Z M 334.558594 58.941406 C 333.503906 58.941406 332.503906 58.542969 331.730469 57.820312 C 330.917969 57.058594 330.449219 56.03125 330.414062 54.921875 C 330.375 53.8125 330.769531 52.75 331.527344 51.941406 C 332.289062 51.132812 333.316406 50.664062 334.425781 50.628906 C 336.714844 50.550781 338.640625 52.351562 338.714844 54.644531 C 338.753906 55.753906 338.355469 56.8125 337.597656 57.621094 C 336.839844 58.433594 335.8125 58.898438 334.703125 58.9375 C 334.65625 58.9375 334.609375 58.941406 334.558594 58.941406 " fill-opacity="1" fill-rule="nonzero"/><path fill="#000000" d="M 181.578125 43.777344 C 181.226562 44.671875 180.714844 46.023438 180.222656 47.484375 L 184.414062 46.839844 Z M 179.128906 49.167969 C 178.910156 49.167969 178.699219 49.070312 178.558594 48.902344 C 178.386719 48.703125 178.332031 48.433594 178.410156 48.1875 C 179.375 45.128906 180.609375 42.136719 180.625 42.105469 C 180.722656 41.867188 180.933594 41.699219 181.1875 41.652344 C 181.4375 41.605469 181.695312 41.695312 181.871094 41.878906 L 186.484375 46.851562 C 186.675781 47.054688 186.738281 47.347656 186.644531 47.609375 C 186.554688 47.875 186.324219 48.066406 186.046875 48.109375 L 179.242188 49.160156 C 179.203125 49.164062 179.167969 49.167969 179.128906 49.167969 " fill-opacity="1" fill-rule="nonzero"/><path fill="#000000" d="M 73.648438 358.1875 C 73.617188 358.1875 73.582031 358.183594 73.550781 358.179688 C 73.136719 358.125 72.847656 357.746094 72.902344 357.332031 L 73.414062 353.472656 C 73.46875 353.058594 73.84375 352.769531 74.257812 352.824219 C 74.671875 352.878906 74.960938 353.257812 74.90625 353.667969 L 74.394531 357.53125 C 74.34375 357.910156 74.023438 358.1875 73.648438 358.1875 " fill-opacity="1" fill-rule="nonzero"/><path fill="#000000" d="M 72.460938 367.179688 C 72.425781 367.179688 72.394531 367.179688 72.359375 367.175781 C 71.949219 367.121094 71.660156 366.742188 71.710938 366.328125 L 72.222656 362.46875 C 72.277344 362.054688 72.65625 361.765625 73.066406 361.820312 C 73.480469 361.875 73.769531 362.253906 73.714844 362.667969 L 73.203125 366.527344 C 73.15625 366.90625 72.832031 367.179688 72.460938 367.179688 " fill-opacity="1" fill-rule="nonzero"/><path fill="#000000" d="M 70.746094 360.414062 C 70.710938 360.414062 70.679688 360.410156 70.644531 360.40625 L 66.785156 359.894531 C 66.375 359.84375 66.085938 359.460938 66.140625 359.050781 C 66.195312 358.636719 66.574219 358.347656 66.984375 358.402344 L 70.84375 358.914062 C 71.253906 358.96875 71.542969 359.34375 71.492188 359.757812 C 71.441406 360.136719 71.117188 360.414062 70.746094 360.414062 " fill-opacity="1" fill-rule="nonzero"/><path fill="#000000" d="M 79.734375 361.601562 C 79.699219 361.601562 79.667969 361.601562 79.632812 361.597656 L 75.773438 361.085938 C 75.363281 361.03125 75.074219 360.652344 75.128906 360.242188 C 75.183594 359.828125 75.558594 359.539062 75.972656 359.59375 L 79.832031 360.101562 C 80.242188 360.15625 80.53125 360.539062 80.476562 360.949219 C 80.429688 361.328125 80.105469 361.601562 79.734375 361.601562 " fill-opacity="1" fill-rule="nonzero"/><path fill="#000000" d="M 85.570312 373.957031 C 84.210938 374.566406 83.59375 376.195312 84.195312 377.589844 C 84.484375 378.269531 85.019531 378.785156 85.695312 379.050781 C 86.355469 379.304688 87.074219 379.289062 87.71875 379 C 89.078125 378.386719 89.695312 376.753906 89.09375 375.363281 C 88.800781 374.683594 88.269531 374.164062 87.59375 373.902344 C 86.933594 373.644531 86.214844 373.664062 85.570312 373.957031 Z M 86.644531 380.738281 C 86.140625 380.738281 85.636719 380.640625 85.148438 380.457031 C 84.09375 380.042969 83.265625 379.238281 82.8125 378.1875 C 81.886719 376.042969 82.847656 373.527344 84.953125 372.582031 C 85.96875 372.125 87.101562 372.097656 88.136719 372.5 C 89.191406 372.910156 90.023438 373.714844 90.476562 374.765625 C 91.402344 376.910156 90.441406 379.425781 88.335938 380.371094 C 87.792969 380.613281 87.222656 380.738281 86.644531 380.738281 " fill-opacity="1" fill-rule="nonzero"/></svg>