<svg xmlns="http://www.w3.org/2000/svg" xmlns:xlink="http://www.w3.org/1999/xlink" width="692" zoomAndPan="magnify" viewBox="0 0 519 469.499982" height="626" preserveAspectRatio="xMidYMid meet" version="1.0"><defs><clipPath id="c017005e24"><path d="M 92 334 L 423 334 L 423 453.761719 L 92 453.761719 Z M 92 334 " clip-rule="nonzero"/></clipPath><clipPath id="f9e7bd6f09"><path d="M 41 22 L 473 22 L 473 453.761719 L 41 453.761719 Z M 41 22 " clip-rule="nonzero"/></clipPath><clipPath id="2740858049"><path d="M 132 22 L 382 22 L 382 453.761719 L 132 453.761719 Z M 132 22 " clip-rule="nonzero"/></clipPath><clipPath id="bf5caf08de"><path d="M 325 15.480469 L 478 15.480469 L 478 260 L 325 260 Z M 325 15.480469 " clip-rule="nonzero"/></clipPath><clipPath id="ec83d04e10"><path d="M 127 95 L 181 95 L 181 149 L 127 149 Z M 127 95 " clip-rule="nonzero"/></clipPath><clipPath id="753447e7ce"><path d="M 140.59375 86.625 L 189.292969 108.015625 L 167.902344 156.71875 L 119.199219 135.328125 Z M 140.59375 86.625 " clip-rule="nonzero"/></clipPath><clipPath id="dfd7131ad8"><path d="M 140.59375 86.625 L 189.292969 108.015625 L 167.902344 156.71875 L 119.199219 135.328125 Z M 140.59375 86.625 " clip-rule="nonzero"/></clipPath><clipPath id="9263ac2e61"><path d="M 137 103 L 171 103 L 171 140 L 137 140 Z M 137 103 " clip-rule="nonzero"/></clipPath><clipPath id="6d90477429"><path d="M 140.59375 86.625 L 189.292969 108.015625 L 167.902344 156.71875 L 119.199219 135.328125 Z M 140.59375 86.625 " clip-rule="nonzero"/></clipPath><clipPath id="7a82bea1cf"><path d="M 140.59375 86.625 L 189.292969 108.015625 L 167.902344 156.71875 L 119.199219 135.328125 Z M 140.59375 86.625 " clip-rule="nonzero"/></clipPath><clipPath id="3c83b513b1"><path d="M 138 104 L 170 104 L 170 140 L 138 140 Z M 138 104 " clip-rule="nonzero"/></clipPath><clipPath id="f3ec66ddda"><path d="M 140.59375 86.625 L 189.292969 108.015625 L 167.902344 156.71875 L 119.199219 135.328125 Z M 140.59375 86.625 " clip-rule="nonzero"/></clipPath><clipPath id="6ee1a1f15b"><path d="M 140.59375 86.625 L 189.292969 108.015625 L 167.902344 156.71875 L 119.199219 135.328125 Z M 140.59375 86.625 " clip-rule="nonzero"/></clipPath><clipPath id="cbe20417d6"><path d="M 138 116 L 167 116 L 167 136 L 138 136 Z M 138 116 " clip-rule="nonzero"/></clipPath><clipPath id="2958622c18"><path d="M 140.59375 86.625 L 189.292969 108.015625 L 167.902344 156.71875 L 119.199219 135.328125 Z M 140.59375 86.625 " clip-rule="nonzero"/></clipPath><clipPath id="eabdf46cce"><path d="M 140.59375 86.625 L 189.292969 108.015625 L 167.902344 156.71875 L 119.199219 135.328125 Z M 140.59375 86.625 " clip-rule="nonzero"/></clipPath><clipPath id="136cb2810e"><path d="M 162 109 L 169 109 L 169 119 L 162 119 Z M 162 109 " clip-rule="nonzero"/></clipPath><clipPath id="53a0a73ce3"><path d="M 140.59375 86.625 L 189.292969 108.015625 L 167.902344 156.71875 L 119.199219 135.328125 Z M 140.59375 86.625 " clip-rule="nonzero"/></clipPath><clipPath id="6e09a7ab7c"><path d="M 140.59375 86.625 L 189.292969 108.015625 L 167.902344 156.71875 L 119.199219 135.328125 Z M 140.59375 86.625 " clip-rule="nonzero"/></clipPath><clipPath id="23cceeac72"><path d="M 145 121 L 151 121 L 151 128 L 145 128 Z M 145 121 " clip-rule="nonzero"/></clipPath><clipPath id="c6a5468ffb"><path d="M 140.59375 86.625 L 189.292969 108.015625 L 167.902344 156.71875 L 119.199219 135.328125 Z M 140.59375 86.625 " clip-rule="nonzero"/></clipPath><clipPath id="9ccac5108b"><path d="M 140.59375 86.625 L 189.292969 108.015625 L 167.902344 156.71875 L 119.199219 135.328125 Z M 140.59375 86.625 " clip-rule="nonzero"/></clipPath><clipPath id="3b3090625e"><path d="M 155 125 L 160 125 L 160 130 L 155 130 Z M 155 125 " clip-rule="nonzero"/></clipPath><clipPath id="5ef8ce0ec1"><path d="M 140.59375 86.625 L 189.292969 108.015625 L 167.902344 156.71875 L 119.199219 135.328125 Z M 140.59375 86.625 " clip-rule="nonzero"/></clipPath><clipPath id="6a963ac765"><path d="M 140.59375 86.625 L 189.292969 108.015625 L 167.902344 156.71875 L 119.199219 135.328125 Z M 140.59375 86.625 " clip-rule="nonzero"/></clipPath><clipPath id="52dda05a3a"><path d="M 153 127 L 159 127 L 159 132 L 153 132 Z M 153 127 " clip-rule="nonzero"/></clipPath><clipPath id="858fb2a8ba"><path d="M 140.59375 86.625 L 189.292969 108.015625 L 167.902344 156.71875 L 119.199219 135.328125 Z M 140.59375 86.625 " clip-rule="nonzero"/></clipPath><clipPath id="10ae57da7c"><path d="M 140.59375 86.625 L 189.292969 108.015625 L 167.902344 156.71875 L 119.199219 135.328125 Z M 140.59375 86.625 " clip-rule="nonzero"/></clipPath><clipPath id="5307b7f199"><path d="M 150 123 L 155 123 L 155 130 L 150 130 Z M 150 123 " clip-rule="nonzero"/></clipPath><clipPath id="cc9b44a35f"><path d="M 140.59375 86.625 L 189.292969 108.015625 L 167.902344 156.71875 L 119.199219 135.328125 Z M 140.59375 86.625 " clip-rule="nonzero"/></clipPath><clipPath id="e71c88acb8"><path d="M 140.59375 86.625 L 189.292969 108.015625 L 167.902344 156.71875 L 119.199219 135.328125 Z M 140.59375 86.625 " clip-rule="nonzero"/></clipPath><clipPath id="e6c5d9903b"><path d="M 151 123 L 156 123 L 156 126 L 151 126 Z M 151 123 " clip-rule="nonzero"/></clipPath><clipPath id="82aa62561d"><path d="M 140.59375 86.625 L 189.292969 108.015625 L 167.902344 156.71875 L 119.199219 135.328125 Z M 140.59375 86.625 " clip-rule="nonzero"/></clipPath><clipPath id="7170c79faa"><path d="M 140.59375 86.625 L 189.292969 108.015625 L 167.902344 156.71875 L 119.199219 135.328125 Z M 140.59375 86.625 " clip-rule="nonzero"/></clipPath><clipPath id="7102459f0a"><path d="M 150 127 L 154 127 L 154 130 L 150 130 Z M 150 127 " clip-rule="nonzero"/></clipPath><clipPath id="3b07073451"><path d="M 140.59375 86.625 L 189.292969 108.015625 L 167.902344 156.71875 L 119.199219 135.328125 Z M 140.59375 86.625 " clip-rule="nonzero"/></clipPath><clipPath id="d3ea7eafcb"><path d="M 140.59375 86.625 L 189.292969 108.015625 L 167.902344 156.71875 L 119.199219 135.328125 Z M 140.59375 86.625 " clip-rule="nonzero"/></clipPath></defs><g clip-path="url(#c017005e24)"><path fill="#565656" d="M 256.925781 453.761719 C 195.851562 453.761719 137.476562 427.714844 96.160156 381.914062 L 92.570312 378.320312 L 97.957031 374.726562 C 138.375 348.683594 196.75 334.3125 257.824219 334.3125 C 318.894531 334.3125 376.375 349.578125 417.6875 374.726562 L 422.179688 377.421875 L 418.585938 381.015625 C 377.273438 427.714844 318.894531 453.761719 256.925781 453.761719 Z M 106.9375 379.21875 C 145.558594 420.53125 200.34375 443.882812 256.925781 443.882812 C 313.507812 443.882812 368.292969 420.53125 406.910156 379.21875 C 368.292969 355.867188 313.507812 342.394531 256.925781 342.394531 C 200.34375 343.292969 146.457031 356.765625 106.9375 379.21875 Z M 106.9375 379.21875 " fill-opacity="1" fill-rule="nonzero"/></g><path fill="#e46047" d="M 256.925781 310.0625 C 238.964844 310.0625 224.59375 324.433594 224.59375 342.394531 C 224.59375 360.355469 238.964844 374.726562 256.925781 374.726562 C 274.886719 374.726562 289.257812 360.355469 289.257812 342.394531 C 289.257812 324.433594 274.886719 310.0625 256.925781 310.0625 Z M 256.925781 310.0625 " fill-opacity="1" fill-rule="nonzero"/><path fill="#51b7e3" d="M 467.984375 238.210938 C 467.984375 241.667969 467.898438 245.117188 467.730469 248.570312 C 467.558594 252.019531 467.304688 255.460938 466.96875 258.898438 C 466.628906 262.335938 466.207031 265.765625 465.699219 269.179688 C 465.191406 272.597656 464.601562 276 463.929688 279.386719 C 463.253906 282.777344 462.5 286.144531 461.660156 289.496094 C 460.820312 292.847656 459.898438 296.175781 458.894531 299.480469 C 457.894531 302.785156 456.808594 306.0625 455.644531 309.316406 C 454.484375 312.570312 453.238281 315.789062 451.917969 318.980469 C 450.597656 322.171875 449.195312 325.328125 447.71875 328.453125 C 446.242188 331.574219 444.691406 334.660156 443.0625 337.703125 C 441.433594 340.75 439.730469 343.753906 437.957031 346.71875 C 436.179688 349.679688 434.332031 352.597656 432.414062 355.46875 C 430.496094 358.34375 428.507812 361.164062 426.449219 363.941406 C 424.390625 366.714844 422.265625 369.4375 420.074219 372.105469 C 417.886719 374.777344 415.628906 377.390625 413.308594 379.949219 C 410.988281 382.511719 408.609375 385.011719 406.167969 387.453125 C 403.722656 389.894531 401.222656 392.277344 398.664062 394.597656 C 396.105469 396.917969 393.488281 399.171875 390.820312 401.363281 C 388.148438 403.554688 385.425781 405.679688 382.652344 407.738281 C 379.878906 409.792969 377.054688 411.78125 374.183594 413.703125 C 371.3125 415.621094 368.394531 417.46875 365.429688 419.242188 C 362.46875 421.019531 359.464844 422.722656 356.417969 424.351562 C 353.371094 425.976562 350.289062 427.53125 347.164062 429.007812 C 344.042969 430.484375 340.886719 431.882812 337.695312 433.207031 C 334.503906 434.527344 331.28125 435.769531 328.027344 436.933594 C 324.777344 438.097656 321.5 439.179688 318.191406 440.183594 C 314.886719 441.1875 311.558594 442.105469 308.207031 442.945312 C 304.859375 443.785156 301.488281 444.542969 298.101562 445.214844 C 294.714844 445.890625 291.3125 446.480469 287.894531 446.988281 C 284.476562 447.492188 281.050781 447.917969 277.613281 448.253906 C 274.175781 448.59375 270.730469 448.847656 267.28125 449.015625 C 263.832031 449.1875 260.378906 449.269531 256.925781 449.269531 C 253.472656 449.269531 250.019531 449.1875 246.570312 449.015625 C 243.121094 448.847656 239.675781 448.59375 236.238281 448.253906 C 232.800781 447.917969 229.375 447.492188 225.957031 446.988281 C 222.539062 446.480469 219.136719 445.890625 215.75 445.214844 C 212.363281 444.542969 208.992188 443.785156 205.644531 442.945312 C 202.292969 442.105469 198.964844 441.1875 195.660156 440.183594 C 192.351562 439.179688 189.074219 438.097656 185.820312 436.933594 C 182.570312 435.769531 179.347656 434.527344 176.15625 433.207031 C 172.964844 431.882812 169.808594 430.484375 166.6875 429.007812 C 163.5625 427.53125 160.480469 425.976562 157.433594 424.351562 C 154.386719 422.722656 151.382812 421.019531 148.417969 419.242188 C 145.457031 417.46875 142.539062 415.621094 139.667969 413.703125 C 136.796875 411.78125 133.972656 409.792969 131.199219 407.738281 C 128.425781 405.679688 125.703125 403.554688 123.03125 401.363281 C 120.363281 399.171875 117.746094 396.917969 115.1875 394.597656 C 112.628906 392.277344 110.128906 389.894531 107.683594 387.453125 C 105.242188 385.011719 102.859375 382.511719 100.542969 379.949219 C 98.222656 377.390625 95.964844 374.777344 93.773438 372.105469 C 91.582031 369.4375 89.460938 366.714844 87.402344 363.941406 C 85.34375 361.164062 83.355469 358.34375 81.4375 355.46875 C 79.519531 352.597656 77.671875 349.679688 75.894531 346.71875 C 74.117188 343.753906 72.417969 340.75 70.789062 337.703125 C 69.160156 334.660156 67.609375 331.574219 66.132812 328.453125 C 64.652344 325.328125 63.253906 322.171875 61.933594 318.980469 C 60.609375 315.789062 59.367188 312.570312 58.203125 309.316406 C 57.042969 306.0625 55.957031 302.785156 54.957031 299.480469 C 53.953125 296.175781 53.03125 292.847656 52.191406 289.496094 C 51.351562 286.144531 50.597656 282.777344 49.921875 279.386719 C 49.25 276 48.660156 272.597656 48.152344 269.179688 C 47.644531 265.765625 47.222656 262.335938 46.882812 258.898438 C 46.542969 255.460938 46.289062 252.019531 46.121094 248.570312 C 45.953125 245.117188 45.867188 241.667969 45.867188 238.210938 C 45.867188 234.757812 45.953125 231.304688 46.121094 227.855469 C 46.289062 224.40625 46.542969 220.964844 46.882812 217.527344 C 47.222656 214.089844 47.644531 210.660156 48.152344 207.242188 C 48.660156 203.828125 49.25 200.425781 49.921875 197.039062 C 50.597656 193.648438 51.351562 190.28125 52.191406 186.929688 C 53.03125 183.578125 53.953125 180.25 54.957031 176.945312 C 55.957031 173.640625 57.042969 170.363281 58.203125 167.109375 C 59.367188 163.855469 60.609375 160.636719 61.933594 157.445312 C 63.253906 154.253906 64.652344 151.097656 66.132812 147.972656 C 67.609375 144.851562 69.160156 141.765625 70.789062 138.71875 C 72.417969 135.675781 74.117188 132.667969 75.894531 129.707031 C 77.671875 126.746094 79.519531 123.828125 81.4375 120.953125 C 83.355469 118.082031 85.34375 115.257812 87.402344 112.484375 C 89.460938 109.710938 91.582031 106.988281 93.773438 104.320312 C 95.964844 101.648438 98.222656 99.035156 100.542969 96.472656 C 102.859375 93.914062 105.242188 91.414062 107.683594 88.972656 C 110.128906 86.53125 112.628906 84.148438 115.1875 81.828125 C 117.746094 79.507812 120.363281 77.253906 123.03125 75.0625 C 125.703125 72.871094 128.425781 70.746094 131.199219 68.6875 C 133.972656 66.632812 136.796875 64.644531 139.667969 62.722656 C 142.539062 60.804688 145.457031 58.957031 148.417969 57.183594 C 151.382812 55.40625 154.386719 53.703125 157.433594 52.074219 C 160.480469 50.449219 163.5625 48.894531 166.6875 47.417969 C 169.808594 45.941406 172.964844 44.542969 176.15625 43.21875 C 179.347656 41.898438 182.570312 40.65625 185.820312 39.492188 C 189.074219 38.328125 192.351562 37.246094 195.660156 36.242188 C 198.964844 35.238281 202.292969 34.320312 205.644531 33.480469 C 208.992188 32.640625 212.363281 31.882812 215.75 31.210938 C 219.136719 30.535156 222.539062 29.945312 225.957031 29.4375 C 229.375 28.933594 232.800781 28.507812 236.238281 28.171875 C 239.675781 27.832031 243.121094 27.578125 246.570312 27.410156 C 250.019531 27.238281 253.472656 27.152344 256.925781 27.152344 C 260.378906 27.152344 263.832031 27.238281 267.28125 27.410156 C 270.730469 27.578125 274.175781 27.832031 277.613281 28.171875 C 281.050781 28.507812 284.476562 28.933594 287.894531 29.4375 C 291.3125 29.945312 294.714844 30.535156 298.101562 31.210938 C 301.488281 31.882812 304.859375 32.640625 308.207031 33.480469 C 311.558594 34.320312 314.886719 35.238281 318.191406 36.242188 C 321.5 37.246094 324.777344 38.328125 328.027344 39.492188 C 331.28125 40.65625 334.503906 41.898438 337.695312 43.21875 C 340.886719 44.542969 344.042969 45.941406 347.164062 47.417969 C 350.289062 48.894531 353.371094 50.449219 356.417969 52.074219 C 359.464844 53.703125 362.46875 55.40625 365.429688 57.183594 C 368.394531 58.957031 371.3125 60.804688 374.183594 62.722656 C 377.054688 64.644531 379.878906 66.632812 382.652344 68.6875 C 385.425781 70.746094 388.148438 72.871094 390.820312 75.0625 C 393.488281 77.253906 396.105469 79.507812 398.664062 81.828125 C 401.222656 84.148438 403.722656 86.53125 406.167969 88.972656 C 408.609375 91.414062 410.988281 93.914062 413.308594 96.472656 C 415.628906 99.035156 417.886719 101.648438 420.074219 104.320312 C 422.265625 106.988281 424.390625 109.710938 426.449219 112.484375 C 428.507812 115.257812 430.496094 118.082031 432.414062 120.953125 C 434.332031 123.828125 436.179688 126.746094 437.957031 129.707031 C 439.730469 132.667969 441.433594 135.675781 443.0625 138.71875 C 444.691406 141.765625 446.242188 144.851562 447.71875 147.972656 C 449.195312 151.097656 450.597656 154.253906 451.917969 157.445312 C 453.238281 160.636719 454.484375 163.855469 455.644531 167.109375 C 456.808594 170.363281 457.894531 173.640625 458.894531 176.945312 C 459.898438 180.25 460.820312 183.578125 461.660156 186.929688 C 462.5 190.28125 463.253906 193.648438 463.929688 197.039062 C 464.601562 200.425781 465.191406 203.828125 465.699219 207.242188 C 466.207031 210.660156 466.628906 214.089844 466.96875 217.527344 C 467.304688 220.964844 467.558594 224.40625 467.730469 227.855469 C 467.898438 231.304688 467.984375 234.757812 467.984375 238.210938 Z M 467.984375 238.210938 " fill-opacity="1" fill-rule="nonzero"/><g clip-path="url(#f9e7bd6f09)"><path fill="#565656" d="M 256.925781 453.761719 C 138.375 453.761719 41.375 356.765625 41.375 238.210938 C 41.375 119.660156 138.375 22.664062 256.925781 22.664062 C 375.476562 22.664062 472.476562 119.660156 472.476562 238.210938 C 472.476562 356.765625 376.375 453.761719 256.925781 453.761719 Z M 256.925781 31.644531 C 142.863281 31.644531 50.359375 124.152344 50.359375 238.210938 C 50.359375 352.273438 142.863281 444.78125 256.925781 444.78125 C 370.988281 444.78125 463.492188 352.273438 463.492188 238.210938 C 463.492188 124.152344 370.988281 31.644531 256.925781 31.644531 Z M 256.925781 31.644531 " fill-opacity="1" fill-rule="nonzero"/></g><path fill="#ffd45a" d="M 449.125 301.980469 C 442.835938 321.738281 433.855469 339.699219 422.179688 355.867188 C 414.996094 359.460938 409.605469 361.253906 409.605469 353.171875 C 409.605469 349.578125 406.910156 345.988281 403.320312 345.988281 C 388.050781 347.785156 384.457031 352.273438 373.679688 349.578125 C 373.679688 345.988281 374.578125 343.292969 374.578125 340.597656 C 375.476562 334.3125 376.375 328.023438 376.375 321.738281 C 377.273438 308.265625 394.339844 315.453125 400.625 303.777344 C 402.421875 300.183594 406.910156 298.386719 410.503906 295.691406 C 411.402344 294.792969 413.199219 295.691406 414.097656 296.589844 C 414.996094 297.488281 416.792969 298.386719 417.6875 299.285156 C 418.585938 294.792969 419.484375 291.203125 423.976562 291.203125 C 424.875 291.203125 425.773438 289.40625 426.671875 288.507812 C 429.363281 290.304688 431.160156 291.203125 433.855469 293 C 433.855469 297.488281 430.261719 304.671875 439.246094 308.265625 C 441.9375 301.980469 444.632812 295.691406 446.429688 289.40625 C 446.429688 289.40625 447.328125 289.40625 447.328125 289.40625 C 448.226562 293 448.226562 297.488281 449.125 301.980469 Z M 449.125 301.980469 " fill-opacity="1" fill-rule="nonzero"/><path fill="#ffd45a" d="M 256.027344 33.441406 C 256.925781 37.035156 256.925781 40.625 257.824219 44.21875 C 255.128906 44.21875 252.433594 45.117188 248.84375 45.117188 C 249.742188 46.015625 250.640625 46.015625 251.535156 46.914062 C 251.535156 47.8125 250.640625 47.8125 250.640625 47.8125 C 221.898438 52.300781 225.492188 51.402344 225.492188 51.402344 C 221 52.300781 214.714844 49.605469 211.121094 56.792969 C 211.121094 55.894531 210.222656 55.894531 210.222656 54.996094 C 210.222656 54.097656 210.222656 53.199219 211.121094 52.300781 C 211.121094 52.300781 210.222656 52.300781 210.222656 52.300781 C 209.324219 53.199219 208.425781 54.996094 207.527344 56.792969 C 197.648438 51.402344 202.140625 53.199219 185.074219 48.710938 C 187.769531 47.8125 189.566406 46.015625 192.261719 45.117188 C 208.425781 40.625 224.59375 35.238281 240.757812 30.746094 C 247.046875 28.949219 251.535156 30.746094 256.027344 33.441406 Z M 256.027344 33.441406 " fill-opacity="1" fill-rule="nonzero"/><path fill="#ffd45a" d="M 456.308594 266.953125 C 455.410156 270.546875 455.410156 274.136719 454.511719 276.832031 C 453.613281 275.933594 453.613281 275.035156 452.714844 274.136719 C 450.917969 275.933594 449.125 277.730469 448.226562 279.527344 C 444.632812 277.730469 441.9375 275.933594 438.347656 274.136719 C 443.734375 265.15625 433.855469 264.257812 431.160156 259.769531 C 423.976562 261.5625 430.261719 252.582031 425.773438 252.582031 C 429.363281 248.988281 424.875 250.785156 445.53125 256.175781 C 450.917969 258.871094 453.613281 263.359375 456.308594 266.953125 Z M 456.308594 266.953125 " fill-opacity="1" fill-rule="nonzero"/><path fill="#ffd45a" d="M 397.929688 266.054688 C 394.339844 266.054688 391.644531 266.054688 388.949219 265.15625 C 381.765625 264.257812 377.273438 248.09375 384.457031 250.785156 C 386.253906 251.683594 398.828125 237.316406 399.726562 236.417969 C 401.523438 238.210938 402.421875 240.007812 404.21875 241.804688 C 403.320312 243.601562 401.523438 244.5 400.625 246.296875 C 404.21875 250.785156 405.117188 254.378906 400.625 258.871094 C 398.828125 259.769531 398.828125 263.359375 397.929688 266.054688 Z M 397.929688 266.054688 " fill-opacity="1" fill-rule="nonzero"/><path fill="#ffd45a" d="M 228.1875 287.609375 C 230.878906 292.101562 230.878906 296.589844 229.980469 301.082031 C 229.082031 305.570312 227.289062 310.960938 225.492188 315.453125 C 225.492188 316.347656 225.492188 318.144531 225.492188 319.042969 C 225.492188 319.941406 224.59375 322.636719 223.695312 322.636719 C 222.796875 323.535156 220.101562 323.535156 219.203125 322.636719 C 211.121094 315.453125 218.304688 312.757812 216.511719 307.367188 C 214.714844 301.980469 217.410156 298.386719 221.898438 295.691406 C 224.59375 293.894531 226.390625 291.203125 228.1875 287.609375 Z M 228.1875 287.609375 " fill-opacity="1" fill-rule="nonzero"/><path fill="#ffd45a" d="M 368.292969 254.378906 C 369.191406 257.074219 369.191406 258.871094 370.089844 262.460938 C 371.886719 261.5625 372.785156 261.5625 373.679688 260.664062 C 378.171875 265.15625 371.886719 267.851562 373.679688 273.238281 C 370.988281 272.339844 369.191406 272.339844 368.292969 270.546875 C 357.515625 256.175781 364.699219 264.257812 346.738281 242.703125 C 347.636719 241.804688 347.636719 241.804688 348.535156 240.90625 C 349.433594 240.90625 365.597656 251.683594 368.292969 254.378906 Z M 368.292969 254.378906 " fill-opacity="1" fill-rule="nonzero"/><path fill="#ffd45a" d="M 409.605469 157.382812 C 412.300781 153.789062 414.996094 151.09375 418.585938 146.605469 C 418.585938 145.707031 417.6875 143.910156 416.792969 143.011719 C 423.078125 138.519531 414.097656 134.929688 415.894531 130.4375 C 415.894531 130.4375 416.792969 129.539062 416.792969 129.539062 C 422.179688 131.335938 425.773438 142.113281 423.078125 146.605469 C 422.179688 148.402344 421.28125 150.195312 420.382812 151.992188 C 418.585938 151.992188 415.894531 152.890625 413.199219 152.890625 C 414.097656 155.585938 414.097656 158.28125 414.996094 160.078125 C 414.996094 160.078125 414.097656 160.078125 414.097656 160.078125 C 412.300781 160.972656 411.402344 160.078125 409.605469 157.382812 Z M 409.605469 157.382812 " fill-opacity="1" fill-rule="nonzero"/><path fill="#ffd45a" d="M 413.199219 251.683594 C 412.300781 254.378906 411.402344 256.175781 410.503906 257.972656 C 412.300781 257.972656 414.097656 257.972656 415.894531 257.972656 C 414.996094 259.769531 414.097656 260.664062 413.199219 261.5625 C 414.097656 264.257812 414.996094 266.953125 415.894531 268.75 C 414.996094 268.75 414.996094 268.75 414.097656 269.648438 C 413.199219 267.851562 412.300781 266.054688 411.402344 263.359375 C 410.503906 266.054688 410.503906 268.75 409.605469 271.441406 C 408.707031 271.441406 408.707031 271.441406 407.808594 271.441406 C 407.808594 268.75 407.808594 266.054688 408.707031 262.460938 C 407.808594 256.175781 406.910156 251.683594 413.199219 251.683594 Z M 413.199219 251.683594 " fill-opacity="1" fill-rule="nonzero"/><path fill="#ffd45a" d="M 395.234375 281.324219 C 387.152344 279.527344 379.070312 277.730469 371.886719 275.933594 C 371.886719 275.035156 371.886719 274.136719 372.785156 273.238281 C 380.867188 272.339844 388.949219 274.136719 395.234375 281.324219 Z M 395.234375 281.324219 " fill-opacity="1" fill-rule="nonzero"/><path fill="#ffd45a" d="M 256.027344 33.441406 C 256.027344 31.644531 255.128906 30.746094 255.128906 28.050781 C 259.621094 28.949219 265.007812 28.949219 270.398438 29.847656 C 265.90625 34.339844 261.417969 38.828125 256.027344 33.441406 Z M 256.027344 33.441406 " fill-opacity="1" fill-rule="nonzero"/><path fill="#ffd45a" d="M 410.503906 118.761719 C 413.199219 119.660156 416.792969 120.558594 420.382812 121.457031 C 418.585938 125.050781 416.792969 127.742188 414.097656 132.234375 C 412.300781 126.847656 411.402344 122.355469 410.503906 118.761719 Z M 410.503906 118.761719 " fill-opacity="1" fill-rule="nonzero"/><path fill="#ffd45a" d="M 187.769531 64.875 C 191.363281 63.078125 192.261719 57.691406 196.75 61.28125 C 197.648438 62.179688 199.445312 63.976562 198.546875 64.875 C 196.75 68.46875 191.363281 68.46875 187.769531 64.875 Z M 187.769531 64.875 " fill-opacity="1" fill-rule="nonzero"/><path fill="#ffd45a" d="M 409.605469 215.757812 C 403.320312 215.757812 402.421875 212.167969 405.117188 202.289062 C 408.707031 203.1875 408.707031 204.980469 407.808594 208.574219 C 407.808594 210.371094 409.605469 213.066406 409.605469 215.757812 Z M 409.605469 215.757812 " fill-opacity="1" fill-rule="nonzero"/><path fill="#ffd45a" d="M 280.277344 69.367188 C 276.683594 73.855469 266.804688 72.058594 267.703125 82.835938 C 261.417969 77.449219 260.519531 79.246094 279.378906 67.570312 C 279.378906 68.46875 280.277344 68.46875 280.277344 69.367188 Z M 280.277344 69.367188 " fill-opacity="1" fill-rule="nonzero"/><path fill="#ffd45a" d="M 411.402344 232.824219 C 414.097656 231.925781 416.792969 230.128906 419.484375 228.332031 C 423.078125 231.027344 423.078125 234.621094 420.382812 238.210938 C 415.894531 239.109375 418.585938 228.332031 411.402344 232.824219 Z M 411.402344 232.824219 " fill-opacity="1" fill-rule="nonzero"/><path fill="#ffd45a" d="M 307.21875 240.90625 C 307.21875 236.417969 307.21875 233.722656 307.21875 230.128906 C 308.117188 230.128906 308.117188 230.128906 309.015625 229.230469 C 313.507812 240.007812 313.507812 237.316406 307.21875 240.90625 Z M 307.21875 240.90625 " fill-opacity="1" fill-rule="nonzero"/><path fill="#ffd45a" d="M 390.746094 74.753906 C 397.03125 80.144531 402.421875 85.53125 408.707031 90.921875 C 401.523438 86.429688 396.132812 80.144531 390.746094 74.753906 Z M 390.746094 74.753906 " fill-opacity="1" fill-rule="nonzero"/><path fill="#ffd45a" d="M 401.523438 110.679688 C 401.523438 115.171875 402.421875 118.761719 403.320312 122.355469 C 404.21875 125.949219 404.21875 128.640625 400.625 130.4375 C 397.929688 131.335938 398.828125 141.214844 400.625 143.011719 C 402.421875 143.910156 403.320312 145.707031 405.117188 146.605469 C 408.707031 151.09375 408.707031 152.890625 402.421875 154.6875 C 397.03125 146.605469 396.132812 143.910156 393.441406 143.011719 C 392.542969 142.113281 388.949219 143.910156 387.152344 144.808594 C 387.152344 143.910156 386.253906 143.011719 386.253906 140.316406 C 384.457031 143.011719 383.5625 145.707031 381.765625 149.296875 C 386.253906 149.296875 388.949219 150.195312 392.542969 150.195312 C 387.152344 162.769531 400.625 160.972656 398.828125 178.039062 C 397.929688 188.816406 395.238281 188.816406 385.355469 195.101562 C 383.5625 196 381.765625 196.898438 379.96875 198.695312 C 377.273438 196 375.476562 196.898438 372.785156 200.492188 C 369.191406 204.980469 372.785156 208.574219 375.476562 210.371094 C 379.96875 212.167969 380.867188 216.65625 381.765625 220.25 C 382.664062 227.433594 375.476562 231.027344 373.679688 232.824219 C 369.191406 229.230469 364.699219 224.742188 360.210938 221.148438 C 355.71875 230.128906 360.210938 237.316406 362.902344 238.210938 C 370.089844 240.90625 369.191406 248.09375 370.988281 254.378906 C 370.988281 254.378906 370.089844 255.277344 370.089844 256.175781 C 370.089844 256.175781 369.191406 255.277344 369.191406 255.277344 C 362.007812 250.785156 362.007812 240.90625 356.617188 235.519531 C 355.71875 234.621094 355.71875 233.722656 355.71875 232.824219 C 357.515625 227.433594 355.71875 222.046875 353.023438 217.554688 C 351.226562 214.863281 351.226562 212.167969 346.738281 214.863281 C 345.839844 214.863281 344.941406 214.863281 344.042969 214.863281 C 344.042969 213.964844 344.941406 213.964844 344.941406 213.964844 C 341.347656 209.472656 339.554688 204.085938 335.0625 200.492188 C 328.777344 196 314.40625 211.269531 309.015625 216.65625 C 306.324219 219.351562 311.710938 230.128906 300.933594 236.417969 C 294.648438 225.640625 288.359375 213.964844 288.359375 201.390625 C 286.5625 202.289062 284.765625 204.085938 282.972656 204.085938 C 281.175781 203.1875 280.277344 200.492188 279.378906 199.59375 C 274.886719 195.101562 270.398438 191.511719 264.109375 192.410156 C 258.722656 193.308594 253.332031 193.308594 249.742188 188.816406 C 249.742188 189.714844 248.84375 189.714844 248.84375 189.714844 C 249.742188 193.308594 250.640625 196 255.128906 197.796875 C 257.824219 198.695312 257.824219 201.390625 256.027344 203.1875 C 246.148438 213.964844 233.574219 219.351562 220.101562 223.84375 C 214.714844 225.640625 217.410156 222.945312 202.140625 184.324219 C 201.242188 182.527344 200.34375 181.632812 198.546875 180.734375 C 198.546875 180.734375 197.648438 181.632812 197.648438 181.632812 C 200.34375 192.410156 203.039062 203.1875 206.632812 214.863281 C 207.527344 216.65625 209.324219 217.554688 210.222656 219.351562 C 212.019531 222.046875 216.511719 222.945312 215.613281 227.433594 C 215.613281 227.433594 219.203125 230.128906 220.101562 230.128906 C 224.59375 230.128906 229.980469 228.332031 235.371094 227.433594 C 233.574219 240.007812 226.390625 247.195312 217.410156 254.378906 C 195.851562 272.339844 206.632812 280.425781 208.425781 292.101562 C 211.121094 308.265625 190.464844 308.265625 199.445312 319.941406 C 203.039062 325.332031 195.851562 326.230469 195.851562 332.515625 C 196.75 342.394531 189.566406 352.273438 179.6875 354.96875 C 177.890625 354.96875 176.992188 355.867188 175.195312 355.867188 C 169.808594 354.96875 169.808594 356.765625 156.335938 334.3125 C 133.882812 298.386719 143.761719 309.164062 141.964844 296.589844 C 139.273438 279.527344 145.558594 288.507812 132.085938 266.054688 C 127.597656 257.972656 137.476562 243.601562 127.597656 244.5 C 120.410156 245.398438 125.800781 233.722656 113.226562 240.007812 C 102.449219 245.398438 106.042969 239.109375 99.753906 241.804688 C 95.265625 244.5 92.570312 241.804688 90.773438 238.210938 C 86.28125 232.824219 85.382812 226.539062 84.488281 220.25 C 83.589844 216.65625 82.691406 213.066406 82.691406 209.472656 C 83.589844 202.289062 90.773438 188.816406 89.875 182.527344 C 89.875 176.242188 105.144531 165.464844 114.125 158.28125 C 119.511719 153.789062 124.902344 148.402344 130.289062 143.910156 C 130.289062 144.808594 130.289062 144.808594 130.289062 145.707031 C 132.984375 146.605469 135.679688 146.605469 139.273438 147.503906 C 145.558594 148.402344 152.742188 148.402344 160.828125 149.296875 C 159.03125 153.789062 158.132812 156.484375 156.335938 160.074219 C 159.929688 163.667969 163.519531 167.261719 167.113281 170.855469 C 168.910156 172.648438 170.707031 172.648438 171.605469 169.957031 C 173.402344 165.464844 175.195312 166.363281 178.789062 168.160156 C 194.957031 176.242188 203.9375 178.039062 207.527344 160.972656 C 203.039062 160.074219 197.648438 160.972656 194.058594 159.179688 C 188.667969 156.484375 193.160156 151.09375 192.261719 146.605469 C 188.667969 147.503906 185.074219 147.503906 185.972656 152.890625 C 185.972656 154.6875 183.28125 156.484375 181.484375 157.382812 C 180.585938 147.503906 183.28125 138.519531 176.992188 129.539062 C 173.402344 135.828125 176.992188 141.214844 179.6875 147.503906 C 177.890625 146.605469 176.992188 146.605469 176.992188 146.605469 C 176.09375 148.402344 174.296875 150.195312 173.402344 151.09375 C 171.605469 144.808594 170.707031 138.519531 169.808594 132.234375 C 162.621094 130.4375 156.335938 134.03125 150.050781 136.726562 C 148.253906 137.625 147.355469 140.316406 145.558594 141.214844 C 141.964844 143.011719 137.476562 143.910156 132.984375 145.707031 C 132.984375 144.808594 132.984375 144.808594 132.984375 143.910156 C 132.085938 142.113281 131.1875 140.316406 129.390625 137.625 C 132.984375 133.132812 136.578125 127.742188 141.066406 123.253906 C 141.964844 122.355469 143.761719 122.355469 145.558594 123.253906 C 148.253906 124.152344 151.84375 126.84375 153.640625 125.050781 C 157.234375 122.355469 159.929688 118.761719 159.03125 114.273438 C 159.03125 114.273438 159.03125 113.375 159.03125 112.476562 C 162.621094 112.476562 167.113281 112.476562 170.707031 111.578125 C 170.707031 110.679688 170.707031 110.679688 170.707031 109.78125 C 168.011719 108.882812 165.316406 108.882812 162.621094 107.984375 C 167.113281 104.394531 170.707031 101.699219 174.296875 98.105469 C 174.296875 97.207031 173.402344 97.207031 173.402344 97.207031 C 169.808594 98.105469 167.113281 105.289062 161.726562 100.800781 C 166.214844 99.003906 168.011719 91.820312 175.195312 95.410156 C 178.789062 92.71875 182.382812 90.921875 185.972656 88.226562 C 185.972656 88.226562 185.972656 89.125 185.972656 89.125 C 178.789062 92.71875 174.296875 99.902344 169.808594 107.085938 C 175.195312 106.1875 179.6875 104.394531 184.179688 103.496094 C 187.769531 102.597656 186.871094 95.410156 194.058594 98.105469 C 192.261719 99.003906 191.363281 99.902344 189.566406 99.902344 C 194.957031 101.699219 195.851562 97.207031 196.75 93.613281 C 194.957031 93.613281 193.160156 93.613281 191.363281 94.511719 C 191.363281 94.511719 190.464844 93.613281 190.464844 93.613281 C 193.160156 90.921875 195.851562 86.429688 199.445312 85.53125 C 210.222656 81.941406 221.898438 79.246094 232.675781 76.550781 C 236.269531 75.652344 239.863281 75.652344 240.757812 81.042969 C 241.65625 82.835938 244.351562 83.734375 245.25 85.53125 C 246.148438 86.429688 246.148438 88.226562 246.148438 90.921875 C 247.945312 89.125 249.742188 87.328125 249.742188 87.328125 C 271.296875 87.328125 268.601562 87.328125 275.785156 85.53125 C 276.683594 83.734375 276.683594 81.941406 277.582031 79.246094 C 277.582031 78.347656 280.277344 78.347656 281.175781 79.246094 C 282.972656 81.042969 282.074219 90.023438 281.175781 92.71875 C 284.765625 90.023438 286.5625 89.125 286.5625 88.226562 C 287.460938 87.328125 287.460938 85.53125 287.460938 84.632812 C 286.5625 81.941406 285.664062 80.144531 284.765625 77.449219 C 290.15625 78.347656 292.851562 73.855469 295.542969 72.058594 C 299.136719 69.367188 301.832031 65.773438 305.425781 63.078125 C 306.324219 63.078125 308.117188 63.078125 309.914062 63.976562 C 311.710938 64.875 313.507812 65.773438 315.304688 66.671875 C 317.101562 68.46875 322.488281 69.367188 325.183594 66.671875 C 326.980469 63.976562 328.777344 63.976562 331.46875 65.773438 C 335.0625 68.46875 336.859375 65.773438 338.65625 63.976562 C 338.65625 62.179688 337.757812 60.382812 337.757812 60.382812 C 339.554688 59.488281 341.347656 57.691406 343.144531 57.691406 C 348.535156 56.792969 352.125 55.894531 355.71875 51.402344 C 365.597656 56.792969 374.578125 62.179688 382.664062 69.367188 C 381.765625 70.265625 381.765625 70.265625 380.867188 71.164062 C 383.5625 72.957031 384.457031 73.855469 385.355469 74.753906 C 388.050781 77.449219 388.050781 77.449219 384.457031 79.246094 C 381.765625 80.144531 379.070312 87.328125 379.96875 90.023438 C 380.867188 92.71875 381.765625 96.308594 382.664062 99.902344 C 385.355469 99.003906 388.949219 99.003906 394.339844 98.105469 C 398.828125 102.597656 406.015625 107.085938 409.605469 115.171875 C 409.605469 115.171875 408.707031 116.066406 408.707031 116.066406 C 406.015625 114.273438 404.21875 112.476562 401.523438 110.679688 Z M 401.523438 110.679688 " fill-opacity="1" fill-rule="nonzero"/><g clip-path="url(#2740858049)"><path fill="#565656" d="M 256.925781 453.761719 C 188.667969 453.761719 132.085938 356.765625 132.085938 238.210938 C 132.085938 119.660156 187.769531 22.664062 256.925781 22.664062 C 325.183594 22.664062 381.765625 119.660156 381.765625 238.210938 C 381.765625 356.765625 326.082031 453.761719 256.925781 453.761719 Z M 256.925781 31.644531 C 193.160156 31.644531 141.066406 124.152344 141.066406 238.210938 C 141.066406 352.273438 193.160156 444.78125 256.925781 444.78125 C 320.691406 444.78125 372.785156 352.273438 372.785156 238.210938 C 372.785156 124.152344 320.691406 31.644531 256.925781 31.644531 Z M 256.925781 31.644531 " fill-opacity="1" fill-rule="nonzero"/></g><path fill="#565656" d="M 97.957031 100.800781 L 93.46875 98.105469 L 97.058594 94.511719 C 137.476562 48.710938 196.75 22.664062 257.824219 22.664062 C 318.894531 22.664062 377.273438 48.710938 418.585938 94.511719 L 421.28125 98.105469 L 416.792969 100.800781 C 331.46875 155.585938 183.28125 155.585938 97.957031 100.800781 Z M 106.9375 96.308594 C 188.667969 144.808594 326.082031 144.808594 407.808594 96.308594 C 368.292969 54.996094 314.40625 31.644531 256.925781 31.644531 C 200.34375 31.644531 145.558594 54.996094 106.9375 96.308594 Z M 106.9375 96.308594 " fill-opacity="1" fill-rule="nonzero"/><path fill="#565656" d="M 252.433594 27.152344 L 261.417969 27.152344 L 261.417969 449.269531 L 252.433594 449.269531 Z M 252.433594 27.152344 " fill-opacity="1" fill-rule="nonzero"/><path fill="#565656" d="M 45.867188 233.722656 L 467.984375 233.722656 L 467.984375 242.703125 L 45.867188 242.703125 Z M 45.867188 233.722656 " fill-opacity="1" fill-rule="nonzero"/><path fill="#ffffff" d="M 155.4375 90.023438 C 137.476562 90.023438 123.105469 104.394531 123.105469 122.355469 C 123.105469 140.316406 137.476562 154.6875 155.4375 154.6875 C 173.398438 154.6875 187.769531 140.316406 187.769531 122.355469 C 187.769531 104.394531 173.398438 90.023438 155.4375 90.023438 Z M 155.4375 90.023438 " fill-opacity="1" fill-rule="nonzero"/><g clip-path="url(#bf5caf08de)"><path fill="#e46047" d="M 401.523438 15.480469 C 359.3125 15.480469 325.183594 49.605469 325.183594 91.820312 C 325.183594 126.847656 378.171875 226.539062 394.339844 256.175781 C 396.132812 258.871094 397.929688 259.769531 401.523438 259.769531 C 404.21875 259.769531 406.910156 257.972656 408.707031 256.175781 C 424.875 226.539062 477.863281 126.847656 477.863281 91.820312 C 477.863281 49.605469 443.734375 15.480469 401.523438 15.480469 Z M 434.753906 91.820312 C 434.753906 110.679688 419.484375 125.050781 401.523438 125.050781 C 382.664062 125.050781 368.292969 109.78125 368.292969 91.820312 C 368.292969 72.957031 383.5625 58.589844 401.523438 58.589844 C 419.484375 58.589844 434.753906 73.855469 434.753906 91.820312 Z M 434.753906 91.820312 " fill-opacity="1" fill-rule="nonzero"/></g><g clip-path="url(#ec83d04e10)"><g clip-path="url(#753447e7ce)"><g clip-path="url(#dfd7131ad8)"><path fill="#7ed957" d="M 178.597656 132.367188 C 178.25 133.164062 177.859375 133.941406 177.433594 134.703125 C 177.007812 135.460938 176.542969 136.199219 176.042969 136.914062 C 175.546875 137.625 175.011719 138.3125 174.445312 138.976562 C 173.878906 139.636719 173.28125 140.269531 172.652344 140.871094 C 172.023438 141.472656 171.367188 142.042969 170.679688 142.582031 C 169.996094 143.121094 169.285156 143.625 168.550781 144.09375 C 167.816406 144.5625 167.0625 144.992188 166.285156 145.386719 C 165.507812 145.78125 164.714844 146.136719 163.902344 146.453125 C 163.089844 146.769531 162.265625 147.046875 161.429688 147.28125 C 160.589844 147.515625 159.742188 147.707031 158.882812 147.859375 C 158.027344 148.011719 157.164062 148.121094 156.292969 148.1875 C 155.425781 148.257812 154.554688 148.28125 153.683594 148.261719 C 152.8125 148.242188 151.945312 148.183594 151.082031 148.078125 C 150.214844 147.976562 149.359375 147.828125 148.507812 147.640625 C 147.65625 147.453125 146.816406 147.222656 145.988281 146.953125 C 145.160156 146.683594 144.347656 146.371094 143.550781 146.023438 C 142.753906 145.671875 141.976562 145.285156 141.214844 144.855469 C 140.457031 144.429688 139.71875 143.96875 139.007812 143.46875 C 138.292969 142.96875 137.605469 142.4375 136.945312 141.867188 C 136.28125 141.300781 135.648438 140.703125 135.046875 140.074219 C 134.445312 139.445312 133.875 138.789062 133.335938 138.105469 C 132.796875 137.421875 132.292969 136.710938 131.824219 135.976562 C 131.355469 135.242188 130.925781 134.488281 130.53125 133.710938 C 130.136719 132.933594 129.78125 132.140625 129.464844 131.328125 C 129.148438 130.515625 128.875 129.691406 128.636719 128.851562 C 128.402344 128.011719 128.210938 127.164062 128.058594 126.308594 C 127.90625 125.449219 127.796875 124.585938 127.730469 123.71875 C 127.664062 122.847656 127.636719 121.980469 127.65625 121.109375 C 127.675781 120.238281 127.738281 119.371094 127.839844 118.503906 C 127.945312 117.640625 128.089844 116.78125 128.277344 115.929688 C 128.464844 115.082031 128.695312 114.242188 128.964844 113.414062 C 129.234375 112.585938 129.546875 111.773438 129.894531 110.976562 C 130.246094 110.179688 130.636719 109.398438 131.0625 108.640625 C 131.488281 107.878906 131.953125 107.144531 132.449219 106.429688 C 132.949219 105.714844 133.484375 105.027344 134.050781 104.367188 C 134.617188 103.707031 135.214844 103.074219 135.84375 102.472656 C 136.472656 101.867188 137.128906 101.296875 137.8125 100.757812 C 138.5 100.222656 139.207031 99.71875 139.941406 99.25 C 140.675781 98.78125 141.433594 98.347656 142.210938 97.953125 C 142.984375 97.5625 143.78125 97.207031 144.589844 96.890625 C 145.402344 96.574219 146.230469 96.296875 147.066406 96.0625 C 147.90625 95.828125 148.753906 95.632812 149.613281 95.480469 C 150.46875 95.328125 151.332031 95.21875 152.203125 95.152344 C 153.070312 95.085938 153.941406 95.0625 154.808594 95.082031 C 155.679688 95.097656 156.550781 95.160156 157.414062 95.265625 C 158.277344 95.367188 159.136719 95.511719 159.988281 95.703125 C 160.835938 95.890625 161.675781 96.117188 162.503906 96.390625 C 163.332031 96.660156 164.144531 96.96875 164.945312 97.320312 C 165.742188 97.671875 166.519531 98.058594 167.277344 98.484375 C 168.039062 98.914062 168.773438 99.375 169.488281 99.875 C 170.203125 100.375 170.890625 100.90625 171.550781 101.472656 C 172.214844 102.039062 172.84375 102.636719 173.449219 103.265625 C 174.050781 103.894531 174.621094 104.550781 175.160156 105.238281 C 175.699219 105.921875 176.199219 106.632812 176.667969 107.367188 C 177.136719 108.101562 177.570312 108.855469 177.964844 109.632812 C 178.359375 110.410156 178.714844 111.203125 179.03125 112.015625 C 179.347656 112.828125 179.621094 113.652344 179.855469 114.492188 C 180.09375 115.328125 180.285156 116.179688 180.4375 117.035156 C 180.589844 117.894531 180.699219 118.757812 180.765625 119.625 C 180.832031 120.492188 180.855469 121.363281 180.839844 122.234375 C 180.820312 123.105469 180.757812 123.972656 180.65625 124.835938 C 180.550781 125.703125 180.40625 126.558594 180.21875 127.410156 C 180.03125 128.261719 179.800781 129.101562 179.53125 129.929688 C 179.257812 130.757812 178.949219 131.570312 178.597656 132.367188 Z M 178.597656 132.367188 " fill-opacity="1" fill-rule="nonzero"/></g></g></g><g clip-path="url(#9263ac2e61)"><g clip-path="url(#6d90477429)"><g clip-path="url(#7a82bea1cf)"><path fill="#ffffff" d="M 165.574219 126.085938 C 166.152344 126.398438 166.609375 126.90625 166.859375 127.519531 C 167.125 128.199219 167.105469 128.945312 166.820312 129.59375 L 164.441406 135.019531 C 164.148438 135.683594 163.617188 136.1875 162.9375 136.449219 C 162.308594 136.695312 161.625 136.707031 161.011719 136.476562 L 160.519531 137.59375 C 160.105469 138.535156 159.332031 139.28125 158.359375 139.648438 C 157.394531 140.039062 156.320312 140.011719 155.378906 139.597656 L 140.28125 132.964844 C 139.339844 132.550781 138.59375 131.78125 138.226562 130.804688 C 137.839844 129.839844 137.863281 128.769531 138.277344 127.824219 L 138.769531 126.707031 C 138.183594 126.410156 137.730469 125.898438 137.484375 125.269531 C 137.21875 124.59375 137.230469 123.859375 137.523438 123.195312 L 139.90625 117.773438 C 140.191406 117.125 140.726562 116.605469 141.40625 116.339844 C 142.03125 116.109375 142.710938 116.101562 143.332031 116.316406 L 147.976562 105.746094 C 148.390625 104.804688 149.164062 104.0625 150.136719 103.695312 C 151.101562 103.304688 152.175781 103.332031 153.117188 103.746094 L 168.214844 110.375 C 169.15625 110.789062 169.902344 111.5625 170.265625 112.535156 C 170.65625 113.5 170.628906 114.574219 170.214844 115.515625 Z M 153.652344 127.878906 C 153.777344 127.992188 153.886719 128.136719 153.957031 128.285156 C 154.199219 128.214844 154.4375 128.203125 154.695312 128.238281 C 154.492188 127.683594 154.507812 127.074219 154.710938 126.523438 C 154.546875 126.546875 154.386719 126.554688 154.238281 126.546875 Z M 151.304688 123.167969 L 151.09375 123.074219 C 151.078125 123.242188 151.039062 123.378906 150.972656 123.527344 C 150.902344 123.6875 150.820312 123.828125 150.710938 123.953125 C 150.789062 123.988281 150.863281 124.039062 150.921875 124.082031 C 150.9375 123.917969 150.976562 123.738281 151.054688 123.5625 C 151.117188 123.414062 151.191406 123.292969 151.304688 123.167969 Z M 158.792969 128.566406 L 159.046875 129.21875 L 158.929688 129.265625 C 158.941406 129.679688 158.867188 130.070312 158.703125 130.445312 C 158.480469 130.949219 158.105469 131.363281 157.652344 131.648438 L 161.757812 133.453125 L 163.855469 128.679688 L 160.589844 127.246094 C 160.566406 127.390625 160.527344 127.527344 160.46875 127.65625 C 160.175781 128.324219 159.472656 128.691406 158.792969 128.566406 Z M 146.777344 121.179688 L 142.585938 119.339844 L 140.492188 124.109375 L 144.679688 125.949219 C 144.59375 125.699219 144.511719 125.449219 144.472656 125.183594 C 144.464844 125.121094 144.464844 125.160156 144.453125 125.058594 L 144.355469 124.21875 L 144.449219 124.222656 C 144.535156 123.542969 144.796875 122.902344 145.214844 122.351562 C 145.222656 122.335938 145.230469 122.320312 145.257812 122.292969 L 145.746094 121.675781 L 145.835938 121.734375 C 146.109375 121.503906 146.425781 121.316406 146.777344 121.179688 Z M 167.46875 114.058594 C 167.46875 113.921875 167.453125 113.78125 167.417969 113.648438 C 167.363281 113.507812 167.277344 113.390625 167.175781 113.308594 Z M 165.359375 118.902344 L 164.304688 118.4375 C 163.152344 117.933594 162.265625 117 161.808594 115.832031 C 161.355469 114.664062 161.382812 113.359375 161.882812 112.222656 L 162.355469 111.152344 L 151.882812 106.554688 C 151.6875 106.46875 151.457031 106.464844 151.246094 106.546875 C 151.054688 106.632812 150.886719 106.792969 150.800781 106.988281 L 146.160156 117.558594 L 162.75 124.84375 Z M 158.1875 135.234375 L 141.59375 127.945312 L 141.101562 129.066406 C 141.015625 129.261719 141.011719 129.492188 141.078125 129.695312 C 141.160156 129.90625 141.320312 130.070312 141.515625 130.15625 L 156.613281 136.789062 C 156.808594 136.875 157.039062 136.878906 157.25 136.796875 C 157.441406 136.707031 157.609375 136.550781 157.695312 136.355469 Z M 158.1875 135.234375 " fill-opacity="1" fill-rule="evenodd"/></g></g></g><g clip-path="url(#3c83b513b1)"><g clip-path="url(#f3ec66ddda)"><g clip-path="url(#6ee1a1f15b)"><path fill="#000000" d="M 152.78125 104.507812 L 167.878906 111.140625 C 168.640625 111.472656 169.21875 112.097656 169.496094 112.835938 C 169.792969 113.570312 169.796875 114.402344 169.453125 115.179688 L 164.191406 127.160156 C 164.035156 127.519531 163.613281 127.683594 163.257812 127.527344 L 143.839844 119 C 143.484375 118.839844 143.320312 118.421875 143.476562 118.0625 L 148.738281 106.082031 C 149.082031 105.304688 149.695312 104.742188 150.4375 104.464844 C 151.167969 104.167969 152.019531 104.171875 152.78125 104.507812 Z M 167.308594 112.4375 L 152.210938 105.804688 C 151.804688 105.628906 151.34375 105.621094 150.945312 105.773438 C 150.550781 105.929688 150.222656 106.230469 150.039062 106.652344 L 145.0625 117.984375 L 163.179688 125.941406 L 168.15625 114.609375 C 168.339844 114.1875 168.34375 113.742188 168.1875 113.347656 C 168.03125 112.949219 167.714844 112.617188 167.308594 112.4375 Z M 160.867188 134.726562 L 159.757812 137.257812 C 159.414062 138.039062 158.800781 138.601562 158.058594 138.875 C 157.328125 139.175781 156.476562 139.167969 155.714844 138.835938 L 140.617188 132.203125 C 139.851562 131.867188 139.273438 131.246094 139 130.503906 C 138.699219 129.773438 138.699219 128.941406 139.042969 128.160156 L 140.152344 125.628906 C 140.3125 125.269531 140.730469 125.109375 141.089844 125.265625 L 160.503906 133.792969 C 160.863281 133.949219 161.027344 134.371094 160.867188 134.726562 Z M 158.457031 136.6875 L 159.285156 134.804688 L 141.167969 126.847656 L 140.339844 128.730469 C 140.15625 129.152344 140.152344 129.597656 140.308594 129.996094 C 140.460938 130.394531 140.78125 130.726562 141.1875 130.90625 L 156.285156 137.535156 C 156.691406 137.714844 157.152344 137.722656 157.546875 137.566406 C 157.945312 137.414062 158.273438 137.113281 158.457031 136.6875 Z M 158.457031 136.6875 " fill-opacity="1" fill-rule="nonzero"/></g></g></g><g clip-path="url(#cbe20417d6)"><g clip-path="url(#2958622c18)"><g clip-path="url(#eabdf46cce)"><path fill="#000000" d="M 143.160156 117.148438 L 165.078125 126.777344 C 165.5625 126.992188 165.917969 127.378906 166.089844 127.820312 C 166.261719 128.265625 166.265625 128.789062 166.058594 129.261719 L 163.675781 134.683594 C 163.46875 135.152344 163.082031 135.507812 162.640625 135.679688 C 162.195312 135.851562 161.671875 135.855469 161.183594 135.640625 L 139.269531 126.015625 C 138.78125 125.800781 138.429688 125.414062 138.253906 124.96875 C 138.082031 124.523438 138.078125 124 138.285156 123.53125 L 140.667969 118.109375 C 140.875 117.636719 141.261719 117.285156 141.707031 117.113281 C 142.148438 116.9375 142.675781 116.9375 143.160156 117.148438 Z M 164.507812 128.074219 L 142.589844 118.449219 C 142.460938 118.390625 142.34375 118.398438 142.226562 118.445312 C 142.117188 118.472656 142.015625 118.566406 141.96875 118.679688 L 139.585938 124.101562 C 139.535156 124.214844 139.535156 124.347656 139.578125 124.464844 C 139.632812 124.566406 139.707031 124.660156 139.839844 124.714844 L 161.753906 134.339844 C 161.882812 134.398438 162.003906 134.394531 162.113281 134.363281 C 162.230469 134.316406 162.328125 134.226562 162.378906 134.113281 L 164.757812 128.691406 C 164.808594 128.578125 164.8125 128.441406 164.757812 128.339844 C 164.710938 128.222656 164.636719 128.132812 164.507812 128.074219 Z M 164.507812 128.074219 " fill-opacity="1" fill-rule="nonzero"/></g></g></g><g clip-path="url(#136cb2810e)"><g clip-path="url(#53a0a73ce3)"><g clip-path="url(#6e09a7ab7c)"><path fill="#000000" d="M 165.035156 110.121094 L 168.046875 117.855469 C 168.191406 118.230469 168.015625 118.636719 167.648438 118.765625 C 167.476562 118.84375 167.269531 118.832031 167.105469 118.757812 L 164.640625 117.675781 C 163.664062 117.25 162.945312 116.464844 162.578125 115.53125 C 162.214844 114.597656 162.21875 113.53125 162.644531 112.558594 L 163.730469 110.089844 C 163.886719 109.734375 164.292969 109.5625 164.664062 109.726562 C 164.84375 109.804688 164.976562 109.941406 165.035156 110.121094 Z M 166.121094 116.777344 L 164.34375 112.21875 L 163.945312 113.128906 C 163.671875 113.746094 163.667969 114.421875 163.910156 115.011719 C 164.140625 115.597656 164.59375 116.105469 165.210938 116.378906 Z M 166.121094 116.777344 " fill-opacity="1" fill-rule="nonzero"/></g></g></g><g clip-path="url(#23cceeac72)"><g clip-path="url(#c6a5468ffb)"><g clip-path="url(#9ccac5108b)"><path fill="#000000" d="M 149.292969 123.5625 C 149.648438 123.71875 150.070312 123.554688 150.226562 123.199219 C 150.363281 122.890625 150.25 122.53125 149.96875 122.328125 L 150.011719 122.367188 L 149.863281 122.261719 C 149.894531 122.277344 149.9375 122.316406 149.96875 122.328125 C 149.347656 121.84375 148.59375 121.667969 147.867188 121.734375 C 147.828125 121.738281 147.804688 121.746094 147.78125 121.753906 C 147.0625 121.847656 146.382812 122.207031 145.90625 122.808594 C 145.898438 122.824219 145.875 122.835938 145.867188 122.851562 C 145.382812 123.46875 145.199219 124.242188 145.265625 124.96875 C 145.273438 124.992188 145.285156 125.015625 145.292969 125.039062 C 145.382812 125.757812 145.742188 126.4375 146.363281 126.921875 C 146.355469 126.9375 146.371094 126.945312 146.390625 126.953125 C 147.007812 127.4375 147.773438 127.640625 148.507812 127.554688 C 148.53125 127.546875 148.554688 127.535156 148.570312 127.542969 C 149.292969 127.4375 149.976562 127.078125 150.46875 126.480469 C 150.476562 126.464844 150.484375 126.449219 150.492188 126.429688 C 152.074219 124.414062 148.660156 124.292969 148.660156 124.292969 C 148.257812 124.289062 147.929688 124.589844 147.917969 124.972656 C 147.914062 125.375 148.214844 125.703125 148.597656 125.714844 C 148.605469 125.699219 149.425781 125.460938 149.371094 125.589844 C 149.351562 125.582031 149.347656 125.597656 149.339844 125.617188 C 149.09375 125.914062 148.757812 126.097656 148.394531 126.132812 C 148.390625 126.148438 148.371094 126.140625 148.347656 126.148438 C 147.96875 126.175781 147.582031 126.085938 147.261719 125.847656 C 147.253906 125.824219 147.238281 125.816406 147.203125 125.800781 C 146.921875 125.5625 146.746094 125.210938 146.6875 124.859375 C 146.695312 124.84375 146.679688 124.835938 146.6875 124.820312 C 146.644531 124.433594 146.734375 124.046875 146.992188 123.730469 C 146.996094 123.714844 147.003906 123.699219 147.035156 123.675781 C 147.28125 123.375 147.605469 123.207031 147.960938 123.152344 C 147.976562 123.160156 148 123.148438 148.019531 123.15625 L 148.023438 123.140625 C 148.386719 123.105469 148.773438 123.199219 149.105469 123.460938 C 149.144531 123.496094 149.210938 123.527344 149.292969 123.5625 Z M 149.292969 123.5625 " fill-opacity="1" fill-rule="nonzero"/></g></g></g><g clip-path="url(#3b3090625e)"><g clip-path="url(#5ef8ce0ec1)"><g clip-path="url(#6a963ac765)"><path fill="#000000" d="M 158.789062 127.691406 C 159.144531 127.851562 159.566406 127.6875 159.722656 127.328125 C 159.878906 126.972656 159.714844 126.550781 159.359375 126.394531 L 157.898438 125.753906 C 157.441406 125.554688 156.949219 125.570312 156.53125 125.734375 C 156.09375 125.890625 155.730469 126.234375 155.53125 126.6875 C 155.328125 127.144531 155.332031 127.628906 155.511719 128.054688 C 155.519531 128.078125 155.527344 128.101562 155.539062 128.125 C 155.707031 128.53125 156.027344 128.863281 156.449219 129.046875 C 156.804688 129.207031 157.226562 129.042969 157.382812 128.683594 C 157.539062 128.328125 157.375 127.90625 157.019531 127.75 C 156.9375 127.714844 156.871094 127.644531 156.828125 127.570312 C 156.828125 127.570312 156.835938 127.550781 156.820312 127.546875 C 156.78125 127.453125 156.785156 127.355469 156.828125 127.257812 C 156.871094 127.160156 156.9375 127.09375 157.03125 127.058594 C 157.125 127.023438 157.230469 127.007812 157.328125 127.050781 Z M 158.789062 127.691406 " fill-opacity="1" fill-rule="nonzero"/></g></g></g><g clip-path="url(#52dda05a3a)"><g clip-path="url(#858fb2a8ba)"><g clip-path="url(#10ae57da7c)"><path fill="#000000" d="M 154.699219 129.113281 C 154.339844 128.953125 153.921875 129.117188 153.761719 129.476562 C 153.605469 129.832031 153.769531 130.253906 154.128906 130.410156 L 155.570312 131.046875 C 156.027344 131.246094 156.519531 131.226562 156.953125 131.070312 C 156.976562 131.0625 157 131.054688 157.023438 131.042969 C 157.414062 130.867188 157.761719 130.554688 157.957031 130.117188 C 158.148438 129.679688 158.136719 129.171875 157.972656 128.75 L 157.964844 128.726562 C 157.800781 128.304688 157.472656 127.949219 157.019531 127.75 C 156.664062 127.59375 156.242188 127.757812 156.085938 128.113281 C 155.929688 128.472656 156.09375 128.890625 156.449219 129.046875 C 156.546875 129.089844 156.613281 129.160156 156.648438 129.253906 C 156.6875 129.347656 156.691406 129.464844 156.65625 129.546875 C 156.613281 129.644531 156.546875 129.710938 156.476562 129.738281 C 156.453125 129.746094 156.453125 129.746094 156.429688 129.757812 C 156.351562 129.800781 156.238281 129.789062 156.140625 129.746094 Z M 154.699219 129.113281 " fill-opacity="1" fill-rule="nonzero"/></g></g></g><g clip-path="url(#5307b7f199)"><g clip-path="url(#cc9b44a35f)"><g clip-path="url(#e71c88acb8)"><path fill="#000000" d="M 151.003906 128.304688 C 150.847656 128.660156 151.011719 129.082031 151.371094 129.238281 C 151.726562 129.394531 152.148438 129.230469 152.304688 128.875 L 154.058594 124.878906 C 154.214844 124.523438 154.050781 124.101562 153.695312 123.945312 C 153.335938 123.789062 152.917969 123.953125 152.757812 124.308594 Z M 151.003906 128.304688 " fill-opacity="1" fill-rule="nonzero"/></g></g></g><g clip-path="url(#e6c5d9903b)"><g clip-path="url(#82aa62561d)"><g clip-path="url(#7170c79faa)"><path fill="#000000" d="M 152.753906 123.53125 C 152.394531 123.375 151.976562 123.539062 151.816406 123.894531 C 151.660156 124.253906 151.824219 124.675781 152.183594 124.832031 L 154.066406 125.65625 C 154.421875 125.816406 154.84375 125.652344 155 125.292969 C 155.15625 124.9375 154.992188 124.515625 154.636719 124.359375 Z M 152.753906 123.53125 " fill-opacity="1" fill-rule="nonzero"/></g></g></g><g clip-path="url(#7102459f0a)"><g clip-path="url(#3b07073451)"><g clip-path="url(#d3ea7eafcb)"><path fill="#000000" d="M 151 127.527344 C 150.640625 127.367188 150.21875 127.53125 150.0625 127.890625 C 149.90625 128.246094 150.070312 128.667969 150.429688 128.824219 L 152.3125 129.652344 C 152.667969 129.808594 153.089844 129.644531 153.246094 129.289062 C 153.402344 128.929688 153.238281 128.507812 152.882812 128.351562 Z M 151 127.527344 " fill-opacity="1" fill-rule="nonzero"/></g></g></g></svg>