<svg xmlns="http://www.w3.org/2000/svg" xmlns:xlink="http://www.w3.org/1999/xlink" width="692" zoomAndPan="magnify" viewBox="0 0 519 469.499982" height="626" preserveAspectRatio="xMidYMid meet" version="1.0"><defs><clipPath id="3663eb5f45"><path d="M 0.277344 0 L 518.722656 0 L 518.722656 469 L 0.277344 469 Z M 0.277344 0 " clip-rule="nonzero"/></clipPath><clipPath id="e5292596cc"><path d="M 111 258 L 388 258 L 388 463.984375 L 111 463.984375 Z M 111 258 " clip-rule="nonzero"/></clipPath><clipPath id="81a6bc58da"><path d="M 407 177 L 493.429688 177 L 493.429688 314 L 407 314 Z M 407 177 " clip-rule="nonzero"/></clipPath><clipPath id="f06183de08"><path d="M 222 418 L 260 418 L 260 463.984375 L 222 463.984375 Z M 222 418 " clip-rule="nonzero"/></clipPath><clipPath id="bdb65988b3"><path d="M 42 4.722656 L 230 4.722656 L 230 115 L 42 115 Z M 42 4.722656 " clip-rule="nonzero"/></clipPath><clipPath id="3dbecf147c"><path d="M 414 177 L 493.429688 177 L 493.429688 290 L 414 290 Z M 414 177 " clip-rule="nonzero"/></clipPath><clipPath id="b7b17c8922"><path d="M 334 313 L 486 313 L 486 463.984375 L 334 463.984375 Z M 334 313 " clip-rule="nonzero"/></clipPath><clipPath id="1d8a1b74b6"><path d="M 379 313 L 441 313 L 441 463.984375 L 379 463.984375 Z M 379 313 " clip-rule="nonzero"/></clipPath></defs><g clip-path="url(#3663eb5f45)"><path fill="#ffffff" d="M 0.277344 0 L 518.722656 0 L 518.722656 476.492188 L 0.277344 476.492188 Z M 0.277344 0 " fill-opacity="1" fill-rule="nonzero"/><path fill="#ffffff" d="M 0.277344 0 L 518.722656 0 L 518.722656 469 L 0.277344 469 Z M 0.277344 0 " fill-opacity="1" fill-rule="nonzero"/><path fill="#ffffff" d="M 0.277344 0 L 518.722656 0 L 518.722656 469 L 0.277344 469 Z M 0.277344 0 " fill-opacity="1" fill-rule="nonzero"/></g><path fill="#82ab00" d="M 252.148438 12.238281 L 387.640625 12.238281 L 387.640625 297.867188 L 252.148438 297.867188 Z M 252.148438 12.238281 " fill-opacity="1" fill-rule="nonzero"/><path fill="#8dbf00" d="M 274.730469 140.019531 C 274.734375 141.996094 274.777344 143.972656 274.863281 145.949219 C 274.953125 147.921875 275.082031 149.894531 275.257812 151.863281 C 275.433594 153.832031 275.648438 155.796875 275.910156 157.757812 C 276.171875 159.71875 276.476562 161.671875 276.820312 163.617188 C 277.167969 165.5625 277.558594 167.5 277.988281 169.429688 C 278.421875 171.359375 278.894531 173.277344 279.410156 175.1875 C 279.925781 177.097656 280.484375 178.992188 281.082031 180.878906 C 281.679688 182.761719 282.320312 184.632812 283.003906 186.488281 C 283.683594 188.34375 284.40625 190.183594 285.167969 192.007812 C 285.929688 193.832031 286.730469 195.640625 287.574219 197.429688 C 288.414062 199.21875 289.296875 200.988281 290.214844 202.742188 C 291.132812 204.492188 292.09375 206.222656 293.085938 207.929688 C 294.082031 209.640625 295.113281 211.324219 296.183594 212.988281 C 297.253906 214.652344 298.359375 216.292969 299.5 217.90625 C 300.640625 219.523438 301.816406 221.113281 303.027344 222.675781 C 304.238281 224.238281 305.484375 225.777344 306.765625 227.285156 C 308.042969 228.796875 309.355469 230.277344 310.699219 231.726562 C 312.042969 233.179688 313.417969 234.601562 314.824219 235.992188 C 316.226562 237.382812 317.664062 238.746094 319.128906 240.074219 C 320.597656 241.402344 322.089844 242.699219 323.613281 243.960938 C 325.136719 245.222656 326.6875 246.453125 328.261719 247.648438 C 329.839844 248.84375 331.441406 250.003906 333.070312 251.128906 C 334.699219 252.253906 336.347656 253.34375 338.023438 254.398438 C 339.699219 255.449219 341.398438 256.464844 343.117188 257.445312 C 344.839844 258.421875 346.582031 259.363281 348.339844 260.265625 C 350.101562 261.167969 351.882812 262.03125 353.683594 262.855469 C 355.484375 263.679688 357.300781 264.464844 359.132812 265.207031 C 360.96875 265.953125 362.816406 266.65625 364.679688 267.320312 C 366.546875 267.984375 368.425781 268.605469 370.316406 269.1875 C 372.210938 269.769531 374.113281 270.308594 376.027344 270.808594 C 377.945312 271.304688 379.871094 271.761719 381.808594 272.175781 C 383.742188 272.589844 385.6875 272.960938 387.640625 273.289062 L 387.640625 12.238281 L 274.730469 12.238281 Z M 274.730469 140.019531 " fill-opacity="1" fill-rule="nonzero"/><path fill="#0059be" d="M 131.714844 94.921875 L 267.203125 94.921875 L 267.203125 312.898438 L 131.714844 312.898438 Z M 131.714844 94.921875 " fill-opacity="1" fill-rule="nonzero"/><path fill="#006bdb" d="M 146.769531 147.535156 C 146.769531 149.59375 146.816406 151.648438 146.914062 153.703125 C 147.007812 155.757812 147.148438 157.808594 147.335938 159.859375 C 147.523438 161.90625 147.757812 163.949219 148.039062 165.984375 C 148.324219 168.023438 148.648438 170.054688 149.023438 172.078125 C 149.398438 174.097656 149.820312 176.113281 150.285156 178.117188 C 150.75 180.117188 151.261719 182.109375 151.820312 184.089844 C 152.378906 186.070312 152.980469 188.039062 153.625 189.988281 C 154.273438 191.941406 154.964844 193.878906 155.699219 195.800781 C 156.433594 197.722656 157.214844 199.625 158.035156 201.511719 C 158.859375 203.398438 159.722656 205.261719 160.632812 207.109375 C 161.539062 208.957031 162.488281 210.78125 163.480469 212.585938 C 164.46875 214.386719 165.5 216.167969 166.574219 217.921875 C 167.644531 219.679688 168.757812 221.410156 169.910156 223.117188 C 171.058594 224.820312 172.25 226.5 173.476562 228.152344 C 174.703125 229.800781 175.96875 231.425781 177.273438 233.019531 C 178.574219 234.613281 179.910156 236.175781 181.285156 237.707031 C 182.660156 239.242188 184.066406 240.742188 185.507812 242.210938 C 186.949219 243.679688 188.425781 245.113281 189.933594 246.515625 C 191.4375 247.917969 192.976562 249.285156 194.546875 250.617188 C 196.117188 251.949219 197.71875 253.242188 199.347656 254.5 C 200.976562 255.761719 202.632812 256.980469 204.316406 258.164062 C 206 259.347656 207.710938 260.492188 209.449219 261.597656 C 211.1875 262.703125 212.949219 263.765625 214.734375 264.792969 C 216.519531 265.816406 218.328125 266.800781 220.160156 267.742188 C 221.988281 268.6875 223.839844 269.585938 225.710938 270.445312 C 227.582031 271.304688 229.472656 272.121094 231.382812 272.890625 C 233.292969 273.664062 235.21875 274.394531 237.160156 275.078125 C 239.101562 275.761719 241.058594 276.402344 243.03125 276.996094 C 245.003906 277.59375 246.984375 278.144531 248.984375 278.648438 C 250.980469 279.152344 252.988281 279.613281 255.003906 280.027344 C 257.023438 280.441406 259.046875 280.808594 261.082031 281.128906 C 263.117188 281.449219 265.15625 281.726562 267.203125 281.953125 L 267.203125 94.921875 L 146.769531 94.921875 Z M 146.769531 147.535156 " fill-opacity="1" fill-rule="nonzero"/><g clip-path="url(#e5292596cc)"><path fill="#855f35" d="M 387.640625 384.15625 C 387.636719 384.777344 387.605469 385.394531 387.542969 386.011719 C 387.480469 386.628906 387.386719 387.242188 387.265625 387.847656 C 387.144531 388.457031 386.992188 389.058594 386.8125 389.648438 C 386.628906 390.242188 386.417969 390.824219 386.179688 391.398438 C 385.941406 391.96875 385.675781 392.53125 385.382812 393.074219 C 385.089844 393.621094 384.773438 394.152344 384.425781 394.667969 C 384.082031 395.183594 383.710938 395.679688 383.316406 396.160156 C 382.921875 396.636719 382.507812 397.097656 382.066406 397.535156 C 381.628906 397.972656 381.167969 398.390625 380.691406 398.78125 C 380.210938 399.175781 379.710938 399.546875 379.195312 399.890625 C 378.679688 400.234375 378.148438 400.554688 377.601562 400.847656 C 377.054688 401.140625 376.496094 401.40625 375.921875 401.644531 C 375.347656 401.882812 374.765625 402.089844 374.171875 402.269531 C 373.578125 402.453125 372.976562 402.605469 372.367188 402.726562 C 371.757812 402.847656 371.144531 402.941406 370.527344 403.003906 C 369.910156 403.066406 369.292969 403.097656 368.671875 403.097656 C 366.929688 403.125 365.199219 403 363.476562 402.722656 L 363.476562 402.796875 C 364.542969 404.980469 365.070312 407.285156 365.058594 409.714844 C 365.058594 410.234375 365.035156 410.757812 364.984375 411.277344 C 364.933594 411.796875 364.855469 412.3125 364.753906 412.824219 C 364.652344 413.335938 364.527344 413.84375 364.375 414.339844 C 364.222656 414.839844 364.046875 415.332031 363.847656 415.816406 C 363.648438 416.296875 363.425781 416.769531 363.179688 417.230469 C 362.933594 417.691406 362.664062 418.136719 362.375 418.570312 C 362.085938 419.007812 361.773438 419.425781 361.441406 419.828125 C 361.109375 420.230469 360.761719 420.617188 360.390625 420.988281 C 360.019531 421.355469 359.632812 421.707031 359.230469 422.039062 C 358.824219 422.371094 358.40625 422.679688 357.972656 422.96875 C 357.535156 423.261719 357.089844 423.527344 356.625 423.773438 C 356.164062 424.019531 355.695312 424.242188 355.210938 424.441406 C 354.726562 424.640625 354.234375 424.816406 353.734375 424.96875 C 353.234375 425.117188 352.726562 425.246094 352.214844 425.347656 C 351.703125 425.449219 351.183594 425.523438 350.664062 425.574219 C 350.144531 425.625 349.621094 425.648438 349.101562 425.648438 C 346.546875 425.664062 344.066406 425.265625 341.648438 424.445312 L 341.648438 424.519531 C 342.1875 426.285156 342.464844 428.089844 342.476562 429.933594 C 342.476562 430.53125 342.449219 431.128906 342.390625 431.722656 C 342.335938 432.320312 342.246094 432.910156 342.132812 433.5 C 342.015625 434.085938 341.871094 434.667969 341.699219 435.238281 C 341.527344 435.8125 341.324219 436.375 341.097656 436.929688 C 340.867188 437.484375 340.613281 438.023438 340.328125 438.550781 C 340.046875 439.082031 339.738281 439.59375 339.40625 440.089844 C 339.074219 440.589844 338.71875 441.070312 338.339844 441.53125 C 337.957031 441.996094 337.554688 442.4375 337.132812 442.863281 C 336.707031 443.285156 336.265625 443.6875 335.800781 444.066406 C 335.335938 444.445312 334.855469 444.800781 334.359375 445.132812 C 333.859375 445.464844 333.34375 445.773438 332.816406 446.054688 C 332.289062 446.335938 331.746094 446.589844 331.191406 446.820312 C 330.636719 447.046875 330.074219 447.25 329.5 447.421875 C 328.925781 447.59375 328.34375 447.738281 327.757812 447.855469 C 327.167969 447.96875 326.574219 448.058594 325.980469 448.113281 C 325.382812 448.171875 324.785156 448.199219 324.183594 448.199219 C 320.152344 448.203125 316.214844 447.601562 312.367188 446.394531 L 312.367188 447.296875 C 312.367188 447.816406 312.34375 448.339844 312.292969 448.859375 C 312.242188 449.378906 312.164062 449.894531 312.066406 450.40625 C 311.964844 450.917969 311.835938 451.425781 311.683594 451.925781 C 311.535156 452.425781 311.359375 452.914062 311.160156 453.398438 C 310.960938 453.878906 310.734375 454.351562 310.488281 454.8125 C 310.242188 455.273438 309.976562 455.71875 309.683594 456.15625 C 309.394531 456.589844 309.082031 457.007812 308.753906 457.410156 C 308.421875 457.816406 308.070312 458.203125 307.699219 458.570312 C 307.332031 458.941406 306.945312 459.289062 306.539062 459.621094 C 306.136719 459.953125 305.714844 460.261719 305.28125 460.550781 C 304.847656 460.84375 304.398438 461.109375 303.9375 461.355469 C 303.476562 461.601562 303.003906 461.824219 302.519531 462.023438 C 302.035156 462.222656 301.546875 462.398438 301.042969 462.550781 C 300.542969 462.703125 300.039062 462.828125 299.523438 462.929688 C 299.011719 463.03125 298.496094 463.105469 297.976562 463.15625 C 297.453125 463.207031 296.933594 463.230469 296.410156 463.230469 C 294.253906 463.230469 292.140625 462.914062 290.078125 462.285156 C 288.011719 461.660156 286.085938 460.746094 284.292969 459.546875 L 257.945312 442.035156 L 148.878906 379.570312 C 140.898438 373.632812 133.769531 366.804688 127.492188 359.097656 C 121.210938 351.386719 115.96875 343.03125 111.769531 334.023438 L 158.285156 258.480469 L 178.457031 268.628906 C 182.894531 270.820312 187.519531 272.480469 192.335938 273.609375 C 197.15625 274.738281 202.039062 275.308594 206.988281 275.316406 L 234.988281 275.316406 L 267.203125 305.382812 L 377.929688 367.621094 C 379.40625 368.4375 380.75 369.433594 381.960938 370.609375 C 383.167969 371.789062 384.199219 373.105469 385.054688 374.558594 C 385.910156 376.015625 386.554688 377.554688 386.992188 379.183594 C 387.433594 380.8125 387.648438 382.472656 387.640625 384.15625 Z M 387.640625 384.15625 " fill-opacity="1" fill-rule="nonzero"/></g><path fill="#9a6e3d" d="M 377.929688 367.621094 L 267.203125 305.382812 L 234.988281 275.316406 L 206.988281 275.316406 C 202.039062 275.308594 197.15625 274.738281 192.335938 273.609375 C 187.519531 272.480469 182.894531 270.820312 178.457031 268.628906 L 158.285156 258.480469 L 124.347656 313.59375 L 126.824219 318.988281 C 132.523438 331.050781 140.027344 341.859375 149.335938 351.421875 C 149.738281 351.023438 150.152344 350.636719 150.578125 350.265625 C 151.003906 349.890625 151.441406 349.527344 151.886719 349.179688 C 152.332031 348.832031 152.789062 348.496094 153.253906 348.175781 C 153.722656 347.851562 154.195312 347.542969 154.679688 347.25 C 155.164062 346.953125 155.65625 346.671875 156.15625 346.40625 C 156.65625 346.140625 157.164062 345.890625 157.679688 345.652344 C 158.195312 345.414062 158.714844 345.195312 159.242188 344.988281 C 159.769531 344.78125 160.304688 344.589844 160.84375 344.414062 C 161.382812 344.238281 161.925781 344.078125 162.472656 343.933594 C 163.023438 343.789062 163.574219 343.660156 164.128906 343.550781 C 164.683594 343.4375 165.242188 343.339844 165.804688 343.261719 C 166.367188 343.179688 166.929688 343.117188 167.492188 343.070312 C 168.058594 343.023438 168.625 342.992188 169.191406 342.976562 C 169.757812 342.964844 170.324219 342.964844 170.890625 342.984375 C 171.457031 343.003906 172.023438 343.039062 172.585938 343.089844 C 173.152344 343.140625 173.714844 343.207031 174.273438 343.292969 C 174.835938 343.375 175.394531 343.476562 175.949219 343.589844 C 176.503906 343.707031 177.054688 343.839844 177.601562 343.988281 C 178.148438 344.136719 178.691406 344.300781 179.226562 344.480469 C 179.765625 344.660156 180.296875 344.855469 180.824219 345.0625 C 181.347656 345.273438 181.867188 345.5 182.382812 345.738281 C 182.894531 345.980469 183.402344 346.234375 183.898438 346.503906 C 184.398438 346.773438 184.886719 347.058594 185.371094 347.359375 C 185.851562 347.65625 186.324219 347.96875 186.789062 348.292969 C 187.25 348.617188 187.707031 348.957031 188.148438 349.308594 C 188.59375 349.660156 189.027344 350.027344 189.449219 350.402344 C 189.871094 350.78125 190.285156 351.167969 190.683594 351.570312 C 191.082031 351.96875 191.472656 352.382812 191.847656 352.804688 C 192.226562 353.230469 192.589844 353.664062 192.9375 354.109375 C 193.289062 354.550781 193.628906 355.007812 193.953125 355.46875 C 194.277344 355.933594 194.589844 356.40625 194.886719 356.890625 C 195.183594 357.371094 195.464844 357.863281 195.734375 358.359375 C 197.179688 358.128906 198.636719 358.011719 200.097656 358 C 201.414062 358.003906 202.722656 358.09375 204.023438 358.273438 C 205.324219 358.453125 206.609375 358.71875 207.875 359.070312 C 209.140625 359.421875 210.378906 359.859375 211.585938 360.375 C 212.792969 360.894531 213.960938 361.488281 215.089844 362.164062 C 216.21875 362.839844 217.292969 363.585938 218.320312 364.402344 C 219.347656 365.222656 220.316406 366.105469 221.222656 367.054688 C 222.132812 368.003906 222.972656 369.007812 223.746094 370.070312 C 224.519531 371.128906 225.21875 372.238281 225.84375 373.394531 C 227.289062 373.164062 228.742188 373.042969 230.207031 373.03125 C 231.171875 373.035156 232.136719 373.082031 233.097656 373.175781 C 234.054688 373.273438 235.011719 373.414062 235.957031 373.601562 C 236.902344 373.792969 237.835938 374.027344 238.761719 374.308594 C 239.683594 374.585938 240.589844 374.914062 241.484375 375.28125 C 242.375 375.652344 243.246094 376.0625 244.097656 376.515625 C 244.945312 376.972656 245.773438 377.46875 246.574219 378.003906 C 247.378906 378.539062 248.152344 379.113281 248.898438 379.722656 C 249.644531 380.335938 250.359375 380.980469 251.039062 381.664062 C 251.722656 382.34375 252.371094 383.058594 252.980469 383.804688 C 253.59375 384.546875 254.167969 385.320312 254.703125 386.121094 C 255.242188 386.921875 255.734375 387.75 256.191406 388.597656 C 256.644531 389.449219 257.058594 390.316406 257.429688 391.207031 C 257.796875 392.097656 258.121094 393.003906 258.402344 393.925781 C 258.683594 394.847656 258.917969 395.78125 259.105469 396.726562 C 259.296875 397.671875 259.4375 398.625 259.535156 399.582031 C 259.628906 400.542969 259.675781 401.503906 259.675781 402.46875 C 259.675781 403.972656 259.601562 405.40625 259.457031 406.863281 C 261.398438 407.949219 263.195312 409.238281 264.84375 410.722656 C 266.496094 412.210938 267.960938 413.863281 269.242188 415.679688 C 270.523438 417.492188 271.589844 419.425781 272.4375 421.480469 C 273.28125 423.53125 273.894531 425.652344 274.265625 427.84375 L 299.34375 444.515625 C 301.136719 445.714844 303.066406 446.625 305.132812 447.253906 C 307.195312 447.882812 309.304688 448.195312 311.464844 448.199219 C 311.742188 448.199219 312.007812 448.121094 312.285156 448.109375 C 312.285156 447.828125 312.367188 447.574219 312.367188 447.296875 L 312.367188 446.394531 C 316.214844 447.601562 320.152344 448.203125 324.183594 448.199219 C 324.785156 448.199219 325.382812 448.171875 325.980469 448.113281 C 326.574219 448.058594 327.167969 447.96875 327.757812 447.855469 C 328.34375 447.738281 328.925781 447.59375 329.5 447.421875 C 330.074219 447.25 330.636719 447.046875 331.191406 446.820312 C 331.746094 446.589844 332.289062 446.335938 332.816406 446.054688 C 333.34375 445.773438 333.859375 445.464844 334.359375 445.132812 C 334.855469 444.800781 335.335938 444.445312 335.800781 444.066406 C 336.265625 443.6875 336.707031 443.285156 337.132812 442.863281 C 337.554688 442.4375 337.957031 441.996094 338.339844 441.53125 C 338.71875 441.070312 339.074219 440.589844 339.40625 440.089844 C 339.738281 439.59375 340.046875 439.082031 340.328125 438.550781 C 340.613281 438.023438 340.867188 437.484375 341.097656 436.929688 C 341.324219 436.375 341.527344 435.8125 341.699219 435.238281 C 341.871094 434.667969 342.015625 434.085938 342.132812 433.5 C 342.246094 432.910156 342.335938 432.320312 342.390625 431.722656 C 342.449219 431.128906 342.476562 430.53125 342.476562 429.933594 C 342.464844 428.089844 342.1875 426.285156 341.648438 424.519531 L 341.648438 424.445312 C 344.066406 425.265625 346.546875 425.664062 349.101562 425.648438 C 349.621094 425.648438 350.144531 425.625 350.664062 425.574219 C 351.183594 425.523438 351.703125 425.449219 352.214844 425.347656 C 352.726562 425.246094 353.234375 425.117188 353.734375 424.96875 C 354.234375 424.816406 354.726562 424.640625 355.210938 424.441406 C 355.695312 424.242188 356.164062 424.019531 356.625 423.773438 C 357.089844 423.527344 357.535156 423.257812 357.972656 422.96875 C 358.40625 422.679688 358.824219 422.371094 359.230469 422.039062 C 359.632812 421.707031 360.019531 421.355469 360.390625 420.988281 C 360.761719 420.617188 361.109375 420.230469 361.441406 419.828125 C 361.773438 419.425781 362.085938 419.007812 362.375 418.570312 C 362.664062 418.136719 362.933594 417.691406 363.179688 417.230469 C 363.425781 416.769531 363.648438 416.296875 363.847656 415.816406 C 364.046875 415.332031 364.222656 414.839844 364.375 414.339844 C 364.527344 413.84375 364.652344 413.335938 364.753906 412.824219 C 364.855469 412.3125 364.933594 411.796875 364.984375 411.277344 C 365.035156 410.757812 365.058594 410.234375 365.058594 409.714844 C 365.070312 407.285156 364.542969 404.980469 363.476562 402.796875 L 363.476562 402.722656 C 365.199219 403 366.929688 403.125 368.671875 403.097656 C 369.714844 403.097656 370.75 403.015625 371.777344 402.84375 C 372.804688 402.675781 373.8125 402.421875 374.800781 402.085938 C 375.789062 401.75 376.742188 401.335938 377.660156 400.839844 C 378.578125 400.347656 379.449219 399.785156 380.273438 399.148438 C 381.097656 398.511719 381.867188 397.8125 382.578125 397.046875 C 383.285156 396.285156 383.929688 395.46875 384.503906 394.601562 C 385.078125 393.730469 385.578125 392.824219 386.003906 391.871094 C 386.425781 390.921875 386.769531 389.941406 387.035156 388.933594 C 387.296875 387.925781 387.476562 386.902344 387.570312 385.867188 C 387.664062 384.828125 387.671875 383.792969 387.59375 382.753906 C 387.515625 381.714844 387.355469 380.691406 387.109375 379.679688 C 386.863281 378.667969 386.535156 377.683594 386.125 376.726562 C 385.714844 375.765625 385.230469 374.847656 384.671875 373.972656 C 384.109375 373.09375 383.480469 372.269531 382.785156 371.492188 C 382.085938 370.71875 381.332031 370.007812 380.515625 369.355469 C 379.703125 368.707031 378.839844 368.128906 377.929688 367.621094 Z M 377.929688 367.621094 " fill-opacity="1" fill-rule="nonzero"/><path fill="#d08d78" d="M 374.738281 365.785156 L 410.621094 338.914062 L 364.613281 264.261719 L 342.476562 275.316406 L 304.402344 256.308594 C 299.675781 253.949219 294.671875 252.765625 289.386719 252.769531 C 284.636719 252.765625 280.089844 253.730469 275.746094 255.660156 L 249.335938 267.378906 C 246.578125 268.605469 243.882812 269.957031 241.257812 271.441406 C 238.628906 272.925781 236.078125 274.53125 233.605469 276.261719 C 231.136719 277.992188 228.753906 279.835938 226.457031 281.792969 C 224.164062 283.753906 221.972656 285.820312 219.878906 287.992188 C 217.785156 290.160156 215.800781 292.429688 213.925781 294.792969 C 212.050781 297.152344 210.296875 299.601562 208.65625 302.132812 C 207.019531 304.664062 205.507812 307.269531 204.121094 309.945312 C 202.738281 312.625 201.484375 315.363281 200.363281 318.160156 C 199.761719 319.664062 199.460938 321.226562 199.460938 322.84375 C 199.460938 323.671875 199.539062 324.492188 199.703125 325.304688 C 199.863281 326.117188 200.101562 326.902344 200.421875 327.667969 C 200.738281 328.433594 201.125 329.160156 201.585938 329.847656 C 202.046875 330.535156 202.570312 331.171875 203.15625 331.757812 C 203.742188 332.34375 204.378906 332.867188 205.070312 333.324219 C 205.757812 333.785156 206.488281 334.171875 207.253906 334.492188 C 208.019531 334.808594 208.808594 335.046875 209.621094 335.207031 C 210.433594 335.371094 211.253906 335.449219 212.082031 335.449219 C 215.328125 335.449219 218.507812 334.980469 221.613281 334.042969 C 224.722656 333.101562 227.628906 331.730469 230.328125 329.933594 L 267.203125 305.382812 " fill-opacity="1" fill-rule="nonzero"/><g clip-path="url(#81a6bc58da)"><path fill="#43b6e5" d="M 493.019531 290.351562 L 458.53125 313.3125 L 407.34375 230.25 L 493.019531 177.601562 Z M 493.019531 290.351562 " fill-opacity="1" fill-rule="nonzero"/></g><path fill="#c1cfe8" d="M 462.910156 320.417969 L 417.746094 350.484375 L 357.53125 252.769531 L 402.695312 222.703125 Z M 462.910156 320.417969 " fill-opacity="1" fill-rule="nonzero"/><path fill="#d08d78" d="M 139.242188 403.738281 C 139.242188 404.683594 139.335938 405.617188 139.519531 406.546875 C 139.707031 407.472656 139.980469 408.371094 140.339844 409.246094 C 140.703125 410.117188 141.148438 410.949219 141.675781 411.734375 C 142.199219 412.519531 142.796875 413.246094 143.464844 413.914062 C 144.136719 414.582031 144.863281 415.179688 145.648438 415.703125 C 146.4375 416.230469 147.269531 416.671875 148.140625 417.035156 C 149.015625 417.394531 149.917969 417.667969 150.84375 417.855469 C 151.773438 418.039062 152.710938 418.132812 153.65625 418.132812 C 154.902344 418.132812 156.125 417.972656 157.332031 417.65625 C 158.535156 417.339844 159.679688 416.875 160.761719 416.261719 C 161.847656 415.652344 162.832031 414.910156 163.726562 414.042969 C 164.617188 413.175781 165.382812 412.207031 166.023438 411.140625 L 180.207031 387.539062 C 181.578125 385.25 182.621094 382.824219 183.335938 380.25 C 184.046875 377.679688 184.40625 375.0625 184.40625 372.394531 C 184.40625 371.449219 184.3125 370.511719 184.128906 369.585938 C 183.941406 368.660156 183.667969 367.757812 183.304688 366.886719 C 182.945312 366.011719 182.5 365.183594 181.972656 364.398438 C 181.449219 363.613281 180.851562 362.886719 180.179688 362.21875 C 179.511719 361.550781 178.785156 360.953125 177.996094 360.429688 C 177.210938 359.902344 176.378906 359.460938 175.507812 359.097656 C 174.632812 358.734375 173.730469 358.460938 172.800781 358.277344 C 171.875 358.09375 170.9375 358 169.992188 358 C 168.746094 358 167.519531 358.15625 166.316406 358.472656 C 165.113281 358.789062 163.96875 359.253906 162.886719 359.867188 C 161.800781 360.480469 160.8125 361.222656 159.921875 362.089844 C 159.03125 362.957031 158.265625 363.921875 157.625 364.988281 L 143.441406 388.59375 C 142.070312 390.878906 141.023438 393.308594 140.3125 395.878906 C 139.597656 398.449219 139.242188 401.070312 139.242188 403.738281 Z M 139.242188 403.738281 " fill-opacity="1" fill-rule="nonzero"/><path fill="#d08d78" d="M 161.824219 426.289062 C 161.824219 427.230469 161.917969 428.167969 162.101562 429.09375 C 162.285156 430.023438 162.5625 430.921875 162.921875 431.792969 C 163.285156 432.667969 163.730469 433.496094 164.253906 434.28125 C 164.78125 435.066406 165.378906 435.796875 166.046875 436.464844 C 166.71875 437.132812 167.445312 437.726562 168.230469 438.253906 C 169.019531 438.777344 169.847656 439.222656 170.722656 439.582031 C 171.597656 439.945312 172.5 440.21875 173.425781 440.402344 C 174.355469 440.589844 175.292969 440.679688 176.238281 440.679688 C 177.484375 440.683594 178.707031 440.523438 179.914062 440.207031 C 181.117188 439.890625 182.261719 439.425781 183.34375 438.8125 C 184.425781 438.199219 185.414062 437.460938 186.308594 436.59375 C 187.199219 435.722656 187.964844 434.757812 188.605469 433.691406 L 210.3125 402.574219 C 211.6875 400.285156 212.730469 397.855469 213.445312 395.285156 C 214.15625 392.714844 214.515625 390.09375 214.515625 387.425781 C 214.511719 386.480469 214.421875 385.546875 214.234375 384.621094 C 214.050781 383.691406 213.777344 382.792969 213.414062 381.917969 C 213.050781 381.046875 212.609375 380.21875 212.082031 379.429688 C 211.554688 378.644531 210.960938 377.917969 210.289062 377.25 C 209.621094 376.582031 208.894531 375.984375 208.105469 375.460938 C 207.320312 374.9375 206.488281 374.492188 205.613281 374.128906 C 204.742188 373.769531 203.839844 373.496094 202.910156 373.308594 C 201.984375 373.125 201.046875 373.03125 200.097656 373.03125 C 198.855469 373.03125 197.628906 373.191406 196.425781 373.507812 C 195.222656 373.824219 194.078125 374.289062 192.992188 374.902344 C 191.910156 375.511719 190.921875 376.253906 190.03125 377.121094 C 189.140625 377.988281 188.375 378.957031 187.730469 380.023438 L 166.023438 411.140625 C 164.648438 413.429688 163.605469 415.859375 162.894531 418.429688 C 162.179688 421 161.824219 423.621094 161.824219 426.289062 Z M 161.824219 426.289062 " fill-opacity="1" fill-rule="nonzero"/><path fill="#d08d78" d="M 191.933594 441.320312 C 191.933594 442.265625 192.027344 443.203125 192.210938 444.128906 C 192.394531 445.054688 192.667969 445.953125 193.03125 446.828125 C 193.394531 447.699219 193.839844 448.53125 194.363281 449.316406 C 194.890625 450.101562 195.488281 450.828125 196.15625 451.496094 C 196.824219 452.164062 197.554688 452.761719 198.339844 453.285156 C 199.128906 453.8125 199.957031 454.253906 200.832031 454.617188 C 201.707031 454.980469 202.609375 455.253906 203.535156 455.4375 C 204.464844 455.621094 205.402344 455.714844 206.347656 455.714844 C 207.59375 455.714844 208.816406 455.554688 210.019531 455.238281 C 211.226562 454.921875 212.367188 454.457031 213.453125 453.847656 C 214.535156 453.234375 215.523438 452.492188 216.414062 451.625 C 217.308594 450.757812 218.074219 449.789062 218.714844 448.722656 L 240.421875 417.605469 C 241.796875 415.316406 242.839844 412.886719 243.554688 410.316406 C 244.265625 407.746094 244.621094 405.128906 244.621094 402.460938 C 244.621094 401.515625 244.53125 400.578125 244.34375 399.652344 C 244.160156 398.726562 243.886719 397.824219 243.523438 396.953125 C 243.160156 396.078125 242.71875 395.25 242.191406 394.464844 C 241.664062 393.679688 241.066406 392.953125 240.398438 392.285156 C 239.730469 391.617188 239 391.019531 238.214844 390.492188 C 237.429688 389.96875 236.597656 389.523438 235.722656 389.164062 C 234.847656 388.800781 233.949219 388.527344 233.019531 388.34375 C 232.09375 388.160156 231.15625 388.066406 230.207031 388.066406 C 228.964844 388.066406 227.738281 388.222656 226.535156 388.539062 C 225.332031 388.855469 224.1875 389.320312 223.101562 389.933594 C 222.019531 390.546875 221.03125 391.285156 220.140625 392.15625 C 219.25 393.023438 218.480469 393.988281 217.839844 395.054688 L 196.132812 426.175781 C 194.757812 428.460938 193.714844 430.890625 193.003906 433.460938 C 192.289062 436.035156 191.933594 438.652344 191.933594 441.320312 Z M 191.933594 441.320312 " fill-opacity="1" fill-rule="nonzero"/><g clip-path="url(#f06183de08)"><path fill="#d08d78" d="M 239.242188 419.289062 C 241.074219 418.519531 242.980469 418.132812 244.96875 418.132812 C 245.933594 418.132812 246.890625 418.226562 247.839844 418.414062 C 248.785156 418.601562 249.707031 418.878906 250.597656 419.25 C 251.488281 419.617188 252.335938 420.070312 253.140625 420.605469 C 253.945312 421.144531 254.6875 421.75 255.371094 422.433594 C 256.050781 423.117188 256.660156 423.859375 257.199219 424.660156 C 257.734375 425.460938 258.1875 426.308594 258.558594 427.199219 C 258.925781 428.089844 259.207031 429.007812 259.394531 429.953125 C 259.582031 430.898438 259.675781 431.855469 259.675781 432.820312 C 259.675781 435.382812 259.304688 437.890625 258.5625 440.34375 C 257.816406 442.796875 256.734375 445.089844 255.3125 447.222656 L 248.988281 456.691406 C 248.316406 457.699219 247.53125 458.605469 246.636719 459.417969 C 245.738281 460.230469 244.757812 460.921875 243.691406 461.492188 C 242.621094 462.0625 241.5 462.496094 240.328125 462.789062 C 239.152344 463.085938 237.960938 463.230469 236.75 463.230469 C 235.785156 463.230469 234.828125 463.136719 233.878906 462.949219 C 232.933594 462.761719 232.011719 462.480469 231.121094 462.113281 C 230.230469 461.742188 229.382812 461.292969 228.578125 460.757812 C 227.773438 460.21875 227.03125 459.609375 226.347656 458.929688 C 225.667969 458.246094 225.054688 457.503906 224.519531 456.703125 C 223.984375 455.902344 223.53125 455.054688 223.160156 454.164062 C 222.792969 453.273438 222.511719 452.355469 222.324219 451.410156 C 222.136719 450.464844 222.042969 449.507812 222.042969 448.542969 C 222.042969 446.722656 222.234375 444.921875 222.613281 443.140625 Z M 239.242188 419.289062 " fill-opacity="1" fill-rule="nonzero"/></g><path fill="#d7e0ef" d="M 161.824219 124.988281 L 237.09375 124.988281 L 237.09375 170.085938 L 161.824219 170.085938 Z M 161.824219 124.988281 " fill-opacity="1" fill-rule="nonzero"/><path fill="#c1cfe8" d="M 161.824219 200.152344 L 237.09375 200.152344 L 237.09375 245.25 L 161.824219 245.25 Z M 161.824219 200.152344 " fill-opacity="1" fill-rule="nonzero"/><path fill="#d7e0ef" d="M 387.640625 42.304688 L 327.421875 42.304688 L 327.421875 87.402344 L 387.640625 87.402344 " fill-opacity="1" fill-rule="nonzero"/><path fill="#c1cfe8" d="M 267.203125 117.46875 L 312.367188 117.46875 L 312.367188 162.570312 L 267.203125 162.570312 " fill-opacity="1" fill-rule="nonzero"/><path fill="#d7e0ef" d="M 387.640625 192.636719 L 327.421875 192.636719 L 327.421875 237.734375 L 387.632812 237.734375 " fill-opacity="1" fill-rule="nonzero"/><g clip-path="url(#bdb65988b3)"><path fill="#e73844" d="M 222.042969 4.722656 L 184.40625 4.722656 L 184.40625 19.753906 L 203.871094 19.753906 L 168.257812 55.308594 L 113.121094 20.898438 C 112.722656 20.648438 112.300781 20.4375 111.863281 20.265625 C 111.421875 20.09375 110.96875 19.964844 110.507812 19.878906 C 110.042969 19.792969 109.574219 19.753906 109.101562 19.753906 C 108.628906 19.757812 108.160156 19.800781 107.699219 19.890625 C 107.234375 19.980469 106.785156 20.113281 106.34375 20.289062 C 105.90625 20.464844 105.488281 20.675781 105.089844 20.929688 C 104.691406 21.183594 104.320312 21.472656 103.976562 21.796875 C 103.632812 22.117188 103.320312 22.46875 103.042969 22.851562 L 42.828125 105.535156 L 55.003906 114.375 L 111.097656 37.359375 L 165.363281 71.226562 C 166.082031 71.679688 166.859375 71.996094 167.6875 72.183594 C 168.519531 72.371094 169.355469 72.417969 170.203125 72.320312 C 171.046875 72.226562 171.855469 71.992188 172.621094 71.625 C 173.386719 71.253906 174.070312 70.769531 174.671875 70.167969 L 214.515625 30.382812 L 214.515625 49.820312 L 229.570312 49.820312 L 229.570312 12.238281 C 229.570312 11.746094 229.519531 11.257812 229.421875 10.773438 C 229.328125 10.289062 229.183594 9.816406 228.996094 9.363281 C 228.804688 8.90625 228.574219 8.472656 228.300781 8.0625 C 228.023438 7.652344 227.714844 7.273438 227.363281 6.921875 C 227.015625 6.574219 226.632812 6.261719 226.222656 5.988281 C 225.8125 5.714844 225.378906 5.484375 224.921875 5.292969 C 224.464844 5.105469 223.996094 4.960938 223.507812 4.867188 C 223.023438 4.769531 222.535156 4.722656 222.042969 4.722656 Z M 222.042969 4.722656 " fill-opacity="1" fill-rule="nonzero"/></g><path fill="#d7e0ef" d="M 456.015625 309.230469 L 402.695312 222.703125 L 364.101562 248.394531 L 389.445312 289.523438 C 390.277344 290.871094 391.167969 292.179688 392.117188 293.445312 C 393.070312 294.710938 394.078125 295.929688 395.140625 297.105469 C 396.199219 298.277344 397.316406 299.402344 398.480469 300.472656 C 399.644531 301.546875 400.855469 302.5625 402.117188 303.527344 C 403.375 304.488281 404.671875 305.390625 406.015625 306.234375 C 407.355469 307.078125 408.730469 307.859375 410.144531 308.578125 C 411.554688 309.292969 413 309.945312 414.46875 310.53125 C 415.941406 311.121094 417.4375 311.636719 418.957031 312.085938 C 420.476562 312.535156 422.015625 312.917969 423.566406 313.226562 C 425.121094 313.535156 426.6875 313.773438 428.261719 313.941406 C 429.839844 314.109375 431.417969 314.203125 433.003906 314.226562 C 434.589844 314.246094 436.171875 314.199219 437.75 314.078125 C 439.332031 313.953125 440.902344 313.761719 442.464844 313.496094 C 444.027344 313.230469 445.574219 312.894531 447.105469 312.488281 C 448.636719 312.082031 450.148438 311.609375 451.636719 311.0625 C 453.125 310.519531 454.582031 309.910156 456.015625 309.230469 Z M 456.015625 309.230469 " fill-opacity="1" fill-rule="nonzero"/><g clip-path="url(#3dbecf147c)"><path fill="#66c3e9" d="M 446.710938 279.074219 C 447.09375 279.695312 447.507812 280.292969 447.949219 280.875 C 448.390625 281.453125 448.859375 282.007812 449.359375 282.539062 C 449.855469 283.070312 450.378906 283.574219 450.929688 284.050781 C 451.476562 284.53125 452.050781 284.980469 452.644531 285.402344 C 453.238281 285.824219 453.851562 286.214844 454.484375 286.574219 C 455.117188 286.933594 455.769531 287.261719 456.433594 287.554688 C 457.101562 287.851562 457.78125 288.109375 458.472656 288.335938 C 459.167969 288.5625 459.867188 288.753906 460.582031 288.910156 C 461.292969 289.066406 462.011719 289.183594 462.734375 289.269531 C 463.457031 289.351562 464.183594 289.398438 464.914062 289.410156 C 465.640625 289.421875 466.371094 289.394531 467.09375 289.332031 C 467.820312 289.269531 468.542969 289.171875 469.257812 289.035156 C 469.976562 288.902344 470.683594 288.730469 471.382812 288.527344 C 472.082031 288.320312 472.765625 288.082031 473.441406 287.804688 C 474.117188 287.53125 474.777344 287.222656 475.421875 286.882812 C 476.0625 286.542969 476.6875 286.167969 477.296875 285.765625 L 493.019531 275.316406 L 493.019531 177.601562 L 414.066406 226.121094 Z M 446.710938 279.074219 " fill-opacity="1" fill-rule="nonzero"/></g><path fill="#f2b9a1" d="M 169.992188 358 C 168.746094 358 167.519531 358.15625 166.316406 358.472656 C 165.113281 358.789062 163.96875 359.253906 162.886719 359.867188 C 161.800781 360.480469 160.8125 361.222656 159.921875 362.089844 C 159.03125 362.957031 158.265625 363.921875 157.625 364.988281 L 143.441406 388.59375 C 141.453125 391.917969 140.171875 395.5 139.605469 399.332031 C 139.757812 400.03125 139.964844 400.714844 140.222656 401.382812 C 140.480469 402.050781 140.785156 402.695312 141.136719 403.320312 C 141.492188 403.941406 141.886719 404.535156 142.332031 405.097656 C 142.773438 405.660156 143.253906 406.1875 143.773438 406.679688 C 144.296875 407.171875 144.851562 407.621094 145.4375 408.03125 C 146.027344 408.441406 146.640625 408.800781 147.285156 409.121094 C 147.925781 409.4375 148.589844 409.703125 149.273438 409.921875 C 149.953125 410.140625 150.648438 410.308594 151.355469 410.421875 C 152.0625 410.539062 152.777344 410.601562 153.492188 410.609375 C 154.210938 410.617188 154.921875 410.574219 155.632812 410.476562 C 156.34375 410.378906 157.042969 410.230469 157.730469 410.027344 C 158.417969 409.824219 159.085938 409.574219 159.734375 409.273438 C 160.386719 408.972656 161.007812 408.625 161.609375 408.230469 C 162.207031 407.835938 162.769531 407.398438 163.304688 406.921875 C 163.835938 406.441406 164.332031 405.925781 164.789062 405.375 C 165.242188 404.820312 165.65625 404.238281 166.023438 403.625 L 180.207031 380.023438 C 182.195312 376.695312 183.472656 373.113281 184.042969 369.28125 C 183.867188 368.488281 183.628906 367.714844 183.320312 366.960938 C 183.015625 366.210938 182.648438 365.488281 182.21875 364.796875 C 181.789062 364.105469 181.304688 363.457031 180.765625 362.847656 C 180.226562 362.238281 179.640625 361.679688 179.003906 361.171875 C 178.371094 360.664062 177.699219 360.210938 176.988281 359.816406 C 176.277344 359.421875 175.535156 359.085938 174.769531 358.816406 C 174 358.546875 173.21875 358.34375 172.414062 358.207031 C 171.613281 358.070312 170.804688 358 169.992188 358 Z M 169.992188 358 " fill-opacity="1" fill-rule="nonzero"/><path fill="#f2b9a1" d="M 200.097656 373.03125 C 198.855469 373.03125 197.628906 373.191406 196.425781 373.507812 C 195.222656 373.824219 194.078125 374.289062 192.992188 374.902344 C 191.910156 375.511719 190.921875 376.253906 190.03125 377.121094 C 189.140625 377.988281 188.375 378.957031 187.730469 380.023438 L 166.023438 411.140625 C 164.855469 413.121094 163.933594 415.207031 163.253906 417.402344 C 163.808594 418.582031 164.511719 419.664062 165.359375 420.652344 C 166.210938 421.640625 167.175781 422.496094 168.261719 423.21875 C 169.34375 423.945312 170.503906 424.511719 171.742188 424.921875 C 172.980469 425.332031 174.25 425.566406 175.550781 425.632812 C 176.855469 425.695312 178.140625 425.585938 179.414062 425.300781 C 180.6875 425.015625 181.898438 424.566406 183.046875 423.953125 C 184.195312 423.335938 185.242188 422.582031 186.1875 421.683594 C 187.128906 420.785156 187.9375 419.777344 188.605469 418.65625 L 210.3125 387.539062 C 211.480469 385.558594 212.40625 383.472656 213.082031 381.277344 C 212.503906 380.046875 211.761719 378.921875 210.863281 377.902344 C 209.960938 376.882812 208.9375 376.003906 207.789062 375.277344 C 206.640625 374.546875 205.410156 373.992188 204.105469 373.609375 C 202.796875 373.226562 201.460938 373.035156 200.097656 373.03125 Z M 200.097656 373.03125 " fill-opacity="1" fill-rule="nonzero"/><path fill="#f2b9a1" d="M 230.207031 388.066406 C 228.964844 388.066406 227.738281 388.222656 226.535156 388.539062 C 225.332031 388.855469 224.1875 389.320312 223.101562 389.933594 C 222.019531 390.546875 221.03125 391.285156 220.140625 392.15625 C 219.25 393.023438 218.480469 393.988281 217.839844 395.054688 L 196.132812 426.175781 C 194.964844 428.152344 194.042969 430.242188 193.363281 432.4375 C 193.917969 433.613281 194.621094 434.695312 195.46875 435.683594 C 196.320312 436.671875 197.285156 437.527344 198.371094 438.253906 C 199.453125 438.976562 200.613281 439.546875 201.851562 439.953125 C 203.089844 440.363281 204.359375 440.601562 205.660156 440.664062 C 206.964844 440.730469 208.25 440.621094 209.523438 440.335938 C 210.796875 440.050781 212.007812 439.597656 213.15625 438.984375 C 214.304688 438.371094 215.351562 437.613281 216.296875 436.714844 C 217.238281 435.816406 218.046875 434.808594 218.714844 433.691406 L 240.421875 402.574219 C 241.589844 400.59375 242.515625 398.507812 243.191406 396.3125 C 242.613281 395.082031 241.871094 393.957031 240.972656 392.933594 C 240.070312 391.914062 239.046875 391.039062 237.898438 390.308594 C 236.75 389.578125 235.519531 389.023438 234.210938 388.640625 C 232.90625 388.261719 231.570312 388.070312 230.207031 388.066406 Z M 230.207031 388.066406 " fill-opacity="1" fill-rule="nonzero"/><path fill="#f2b9a1" d="M 244.96875 418.132812 C 242.980469 418.132812 241.074219 418.519531 239.242188 419.289062 L 222.613281 443.140625 C 222.523438 443.558594 222.546875 443.996094 222.476562 444.425781 C 222.804688 445.816406 223.328125 447.128906 224.039062 448.371094 C 224.753906 449.609375 225.628906 450.71875 226.667969 451.703125 C 227.707031 452.683594 228.867188 453.5 230.144531 454.144531 C 231.421875 454.789062 232.761719 455.238281 234.171875 455.488281 C 235.582031 455.742188 236.996094 455.785156 238.417969 455.625 C 239.839844 455.464844 241.207031 455.105469 242.523438 454.542969 C 243.839844 453.980469 245.050781 453.246094 246.148438 452.332031 C 247.25 451.417969 248.195312 450.367188 248.988281 449.175781 L 255.3125 439.703125 C 257.363281 436.613281 258.691406 433.238281 259.292969 429.578125 C 259.109375 428.773438 258.863281 427.988281 258.546875 427.222656 C 258.234375 426.460938 257.855469 425.726562 257.417969 425.027344 C 256.976562 424.328125 256.484375 423.667969 255.933594 423.050781 C 255.382812 422.433594 254.785156 421.867188 254.140625 421.351562 C 253.492188 420.835938 252.808594 420.375 252.085938 419.976562 C 251.359375 419.574219 250.609375 419.238281 249.828125 418.960938 C 249.046875 418.6875 248.25 418.480469 247.433594 418.34375 C 246.617188 418.203125 245.796875 418.132812 244.96875 418.132812 Z M 244.96875 418.132812 " fill-opacity="1" fill-rule="nonzero"/><path fill="#724d29" d="M 310.109375 453.550781 C 305.90625 452.226562 301.980469 450.335938 298.320312 447.882812 L 263.058594 424.386719 L 271.410156 411.878906 L 306.714844 435.40625 C 309.1875 437.066406 311.84375 438.339844 314.6875 439.230469 Z M 310.109375 453.550781 " fill-opacity="1" fill-rule="nonzero"/><path fill="#724d29" d="M 362.65625 410.195312 C 356.050781 409.476562 349.875 407.453125 344.132812 404.121094 L 301.078125 379.558594 L 308.542969 366.507812 L 351.597656 391.085938 C 355.527344 393.371094 359.75 394.757812 364.265625 395.25 Z M 362.65625 410.195312 " fill-opacity="1" fill-rule="nonzero"/><path fill="#724d29" d="M 339.742188 431.714844 C 337.375 431.066406 335.132812 430.117188 333.023438 428.867188 L 286.058594 402.113281 L 293.511719 389.050781 L 340.480469 415.808594 C 341.445312 416.398438 342.46875 416.855469 343.550781 417.175781 Z M 339.742188 431.714844 " fill-opacity="1" fill-rule="nonzero"/><g clip-path="url(#b7b17c8922)"><path fill="#f9cb5d" d="M 485.199219 388.628906 C 485.199219 389.859375 485.167969 391.089844 485.109375 392.316406 C 485.046875 393.546875 484.957031 394.773438 484.835938 395.996094 C 484.714844 397.222656 484.566406 398.441406 484.382812 399.660156 C 484.203125 400.875 483.992188 402.085938 483.753906 403.292969 C 483.511719 404.5 483.242188 405.699219 482.941406 406.894531 C 482.644531 408.085938 482.316406 409.273438 481.957031 410.449219 C 481.601562 411.625 481.214844 412.792969 480.796875 413.953125 C 480.382812 415.109375 479.941406 416.257812 479.46875 417.394531 C 478.996094 418.53125 478.5 419.65625 477.972656 420.765625 C 477.445312 421.878906 476.890625 422.976562 476.3125 424.0625 C 475.730469 425.148438 475.125 426.21875 474.488281 427.273438 C 473.855469 428.328125 473.199219 429.367188 472.511719 430.390625 C 471.828125 431.410156 471.121094 432.417969 470.386719 433.40625 C 469.652344 434.394531 468.894531 435.363281 468.113281 436.3125 C 467.332031 437.265625 466.527344 438.195312 465.699219 439.109375 C 464.871094 440.019531 464.023438 440.910156 463.152344 441.78125 C 462.28125 442.648438 461.390625 443.496094 460.476562 444.324219 C 459.5625 445.148438 458.632812 445.953125 457.679688 446.734375 C 456.726562 447.511719 455.757812 448.269531 454.765625 449.003906 C 453.777344 449.734375 452.769531 450.445312 451.746094 451.128906 C 450.722656 451.8125 449.679688 452.46875 448.625 453.101562 C 447.566406 453.734375 446.496094 454.339844 445.410156 454.917969 C 444.324219 455.5 443.222656 456.050781 442.109375 456.578125 C 440.996094 457.105469 439.871094 457.601562 438.730469 458.074219 C 437.59375 458.542969 436.445312 458.988281 435.285156 459.402344 C 434.125 459.816406 432.957031 460.203125 431.777344 460.558594 C 430.597656 460.914062 429.410156 461.242188 428.214844 461.542969 C 427.023438 461.839844 425.820312 462.109375 424.613281 462.351562 C 423.402344 462.589844 422.191406 462.800781 420.972656 462.980469 C 419.753906 463.160156 418.53125 463.3125 417.304688 463.433594 C 416.078125 463.554688 414.851562 463.644531 413.621094 463.703125 C 412.390625 463.765625 411.160156 463.792969 409.925781 463.796875 C 408.695312 463.792969 407.464844 463.765625 406.234375 463.703125 C 405.003906 463.644531 403.773438 463.554688 402.550781 463.433594 C 401.324219 463.3125 400.101562 463.160156 398.882812 462.980469 C 397.664062 462.800781 396.449219 462.589844 395.242188 462.351562 C 394.035156 462.109375 392.832031 461.839844 391.636719 461.542969 C 390.441406 461.242188 389.253906 460.914062 388.078125 460.558594 C 386.898438 460.203125 385.730469 459.816406 384.570312 459.402344 C 383.410156 458.988281 382.261719 458.542969 381.121094 458.074219 C 379.984375 457.601562 378.859375 457.105469 377.746094 456.578125 C 376.628906 456.050781 375.53125 455.5 374.445312 454.917969 C 373.359375 454.339844 372.285156 453.734375 371.230469 453.101562 C 370.171875 452.46875 369.132812 451.8125 368.109375 451.128906 C 367.085938 450.445312 366.078125 449.734375 365.085938 449.003906 C 364.097656 448.269531 363.128906 447.511719 362.175781 446.734375 C 361.222656 445.953125 360.289062 445.148438 359.378906 444.324219 C 358.464844 443.496094 357.574219 442.648438 356.703125 441.78125 C 355.832031 440.910156 354.980469 440.019531 354.15625 439.109375 C 353.328125 438.195312 352.523438 437.265625 351.742188 436.3125 C 350.960938 435.363281 350.203125 434.394531 349.46875 433.40625 C 348.734375 432.417969 348.023438 431.410156 347.339844 430.390625 C 346.65625 429.367188 345.996094 428.328125 345.363281 427.273438 C 344.730469 426.21875 344.125 425.148438 343.542969 424.0625 C 342.960938 422.976562 342.410156 421.878906 341.882812 420.765625 C 341.355469 419.65625 340.855469 418.53125 340.386719 417.394531 C 339.914062 416.257812 339.46875 415.109375 339.054688 413.953125 C 338.640625 412.792969 338.253906 411.625 337.898438 410.449219 C 337.539062 409.273438 337.210938 408.085938 336.910156 406.894531 C 336.613281 405.699219 336.34375 404.5 336.101562 403.292969 C 335.859375 402.085938 335.652344 400.875 335.46875 399.660156 C 335.289062 398.441406 335.136719 397.222656 335.019531 395.996094 C 334.898438 394.773438 334.804688 393.546875 334.746094 392.316406 C 334.6875 391.089844 334.65625 389.859375 334.65625 388.628906 C 334.65625 387.398438 334.6875 386.171875 334.746094 384.941406 C 334.804688 383.710938 334.898438 382.484375 335.019531 381.261719 C 335.136719 380.039062 335.289062 378.816406 335.46875 377.601562 C 335.652344 376.382812 335.859375 375.171875 336.101562 373.964844 C 336.34375 372.757812 336.613281 371.558594 336.910156 370.367188 C 337.210938 369.171875 337.539062 367.988281 337.898438 366.808594 C 338.253906 365.632812 338.640625 364.464844 339.054688 363.308594 C 339.46875 362.148438 339.914062 361 340.386719 359.863281 C 340.855469 358.726562 341.355469 357.605469 341.882812 356.492188 C 342.410156 355.378906 342.960938 354.28125 343.542969 353.195312 C 344.125 352.113281 344.730469 351.042969 345.363281 349.988281 C 345.996094 348.929688 346.65625 347.890625 347.339844 346.871094 C 348.023438 345.847656 348.734375 344.839844 349.46875 343.851562 C 350.203125 342.867188 350.960938 341.894531 351.742188 340.945312 C 352.523438 339.992188 353.328125 339.0625 354.15625 338.152344 C 354.980469 337.238281 355.832031 336.347656 356.703125 335.480469 C 357.574219 334.609375 358.464844 333.761719 359.378906 332.9375 C 360.289062 332.109375 361.222656 331.304688 362.175781 330.527344 C 363.128906 329.746094 364.097656 328.988281 365.085938 328.257812 C 366.078125 327.523438 367.085938 326.816406 368.109375 326.132812 C 369.132812 325.449219 370.171875 324.789062 371.230469 324.15625 C 372.285156 323.527344 373.359375 322.917969 374.445312 322.339844 C 375.53125 321.757812 376.628906 321.207031 377.746094 320.679688 C 378.859375 320.15625 379.984375 319.65625 381.121094 319.1875 C 382.261719 318.714844 383.410156 318.273438 384.570312 317.859375 C 385.730469 317.445312 386.898438 317.058594 388.078125 316.699219 C 389.253906 316.34375 390.441406 316.015625 391.636719 315.714844 C 392.832031 315.417969 394.035156 315.148438 395.242188 314.910156 C 396.449219 314.667969 397.664062 314.457031 398.882812 314.277344 C 400.101562 314.097656 401.324219 313.945312 402.550781 313.824219 C 403.773438 313.707031 405.003906 313.613281 406.234375 313.554688 C 407.464844 313.496094 408.695312 313.464844 409.925781 313.464844 C 411.160156 313.464844 412.390625 313.496094 413.621094 313.554688 C 414.851562 313.613281 416.078125 313.707031 417.304688 313.824219 C 418.53125 313.945312 419.753906 314.097656 420.972656 314.277344 C 422.191406 314.457031 423.402344 314.667969 424.613281 314.910156 C 425.820312 315.148438 427.023438 315.417969 428.214844 315.714844 C 429.410156 316.015625 430.597656 316.34375 431.777344 316.699219 C 432.957031 317.058594 434.125 317.445312 435.285156 317.859375 C 436.445312 318.273438 437.59375 318.714844 438.730469 319.1875 C 439.871094 319.65625 440.996094 320.15625 442.109375 320.679688 C 443.222656 321.207031 444.324219 321.757812 445.410156 322.339844 C 446.496094 322.917969 447.566406 323.527344 448.625 324.15625 C 449.679688 324.789062 450.722656 325.449219 451.746094 326.132812 C 452.769531 326.816406 453.777344 327.523438 454.765625 328.257812 C 455.757812 328.988281 456.726562 329.746094 457.679688 330.527344 C 458.632812 331.304688 459.5625 332.109375 460.476562 332.9375 C 461.390625 333.761719 462.28125 334.609375 463.152344 335.480469 C 464.023438 336.347656 464.871094 337.238281 465.699219 338.152344 C 466.527344 339.0625 467.332031 339.992188 468.113281 340.945312 C 468.894531 341.894531 469.652344 342.867188 470.386719 343.851562 C 471.121094 344.839844 471.828125 345.847656 472.511719 346.871094 C 473.199219 347.890625 473.855469 348.929688 474.488281 349.988281 C 475.125 351.042969 475.730469 352.113281 476.3125 353.195312 C 476.890625 354.28125 477.445312 355.378906 477.972656 356.492188 C 478.5 357.605469 478.996094 358.726562 479.46875 359.863281 C 479.941406 361 480.382812 362.148438 480.796875 363.308594 C 481.214844 364.464844 481.601562 365.632812 481.957031 366.808594 C 482.316406 367.988281 482.644531 369.171875 482.941406 370.367188 C 483.242188 371.558594 483.511719 372.757812 483.753906 373.964844 C 483.992188 375.171875 484.203125 376.382812 484.382812 377.601562 C 484.566406 378.816406 484.714844 380.039062 484.835938 381.261719 C 484.957031 382.484375 485.046875 383.710938 485.109375 384.941406 C 485.167969 386.171875 485.199219 387.398438 485.199219 388.628906 Z M 485.199219 388.628906 " fill-opacity="1" fill-rule="nonzero"/></g><path fill="#ffd98c" d="M 409.925781 313.464844 C 405.882812 313.464844 401.867188 313.789062 397.878906 314.4375 C 393.886719 315.085938 389.976562 316.054688 386.144531 317.335938 C 382.308594 318.621094 378.605469 320.203125 375.027344 322.085938 C 371.453125 323.964844 368.050781 326.125 364.824219 328.558594 C 363.476562 330.347656 362.210938 332.191406 361.027344 334.09375 C 359.84375 335.996094 358.75 337.945312 357.738281 339.945312 C 356.730469 341.945312 355.816406 343.984375 354.988281 346.066406 C 354.164062 348.148438 353.433594 350.261719 352.796875 352.410156 C 352.160156 354.554688 351.621094 356.726562 351.179688 358.921875 C 350.738281 361.117188 350.398438 363.328125 350.152344 365.550781 C 349.910156 367.777344 349.765625 370.007812 349.722656 372.246094 C 349.679688 374.484375 349.738281 376.722656 349.894531 378.957031 C 350.050781 381.1875 350.308594 383.410156 350.664062 385.621094 C 351.019531 387.832031 351.472656 390.019531 352.023438 392.191406 C 352.578125 394.359375 353.226562 396.5 353.96875 398.613281 C 354.714844 400.726562 355.550781 402.800781 356.480469 404.835938 C 357.410156 406.875 358.429688 408.867188 359.539062 410.8125 C 360.644531 412.757812 361.839844 414.652344 363.117188 416.488281 C 364.394531 418.328125 365.753906 420.109375 367.191406 421.828125 C 368.628906 423.542969 370.140625 425.195312 371.726562 426.777344 C 373.308594 428.359375 374.964844 429.871094 376.683594 431.304688 C 378.402344 432.742188 380.183594 434.097656 382.027344 435.371094 C 383.871094 436.648438 385.765625 437.839844 387.714844 438.949219 C 389.664062 440.054688 391.65625 441.070312 393.695312 442 C 395.738281 442.929688 397.8125 443.765625 399.929688 444.507812 C 402.042969 445.25 404.1875 445.898438 406.359375 446.449219 C 408.535156 447 410.726562 447.453125 412.941406 447.808594 C 415.152344 448.164062 417.378906 448.421875 419.613281 448.578125 C 421.851562 448.734375 424.089844 448.792969 426.332031 448.75 C 428.574219 448.707031 430.808594 448.5625 433.039062 448.320312 C 435.265625 448.074219 437.480469 447.734375 439.675781 447.292969 C 441.875 446.851562 444.050781 446.3125 446.199219 445.679688 C 448.347656 445.042969 450.464844 444.3125 452.550781 443.488281 C 454.636719 442.664062 456.679688 441.75 458.679688 440.742188 C 460.683594 439.734375 462.636719 438.640625 464.542969 437.460938 C 466.445312 436.277344 468.292969 435.015625 470.085938 433.667969 C 471.128906 432.28125 472.125 430.863281 473.070312 429.40625 C 474.015625 427.953125 474.910156 426.46875 475.753906 424.953125 C 476.597656 423.433594 477.386719 421.890625 478.121094 420.320312 C 478.859375 418.75 479.539062 417.152344 480.164062 415.535156 C 480.789062 413.917969 481.355469 412.277344 481.867188 410.621094 C 482.378906 408.964844 482.832031 407.289062 483.226562 405.601562 C 483.625 403.914062 483.960938 402.210938 484.238281 400.5 C 484.511719 398.785156 484.730469 397.066406 484.886719 395.339844 C 485.046875 393.613281 485.144531 391.882812 485.179688 390.148438 C 485.21875 388.414062 485.195312 386.679688 485.113281 384.949219 C 485.03125 383.214844 484.886719 381.488281 484.6875 379.765625 C 484.484375 378.042969 484.222656 376.328125 483.898438 374.625 C 483.578125 372.917969 483.195312 371.226562 482.757812 369.550781 C 482.320312 367.871094 481.820312 366.210938 481.269531 364.566406 C 480.714844 362.921875 480.101562 361.300781 479.4375 359.699219 C 478.769531 358.097656 478.046875 356.519531 477.269531 354.96875 C 476.492188 353.417969 475.664062 351.894531 474.78125 350.402344 C 473.898438 348.90625 472.96875 347.445312 471.984375 346.015625 C 471 344.585938 469.96875 343.191406 468.886719 341.835938 C 467.808594 340.476562 466.679688 339.15625 465.507812 337.875 C 464.335938 336.597656 463.121094 335.359375 461.863281 334.164062 C 460.605469 332.964844 459.308594 331.816406 457.96875 330.710938 C 456.632812 329.601562 455.257812 328.542969 453.847656 327.535156 C 452.433594 326.523438 450.988281 325.5625 449.511719 324.648438 C 448.035156 323.738281 446.527344 322.878906 444.988281 322.074219 C 443.449219 321.265625 441.886719 320.515625 440.296875 319.816406 C 438.707031 319.117188 437.09375 318.476562 435.460938 317.890625 C 433.824219 317.300781 432.171875 316.773438 430.5 316.300781 C 428.828125 315.828125 427.144531 315.414062 425.445312 315.058594 C 423.742188 314.703125 422.03125 314.40625 420.3125 314.167969 C 418.59375 313.933594 416.863281 313.753906 415.132812 313.636719 C 413.398438 313.519531 411.664062 313.460938 409.925781 313.464844 Z M 409.925781 313.464844 " fill-opacity="1" fill-rule="nonzero"/><path fill="#ec8329" d="M 470.144531 388.628906 C 470.144531 390.597656 470.046875 392.5625 469.855469 394.523438 C 469.660156 396.484375 469.371094 398.429688 468.988281 400.359375 C 468.601562 402.292969 468.125 404.199219 467.550781 406.085938 C 466.980469 407.96875 466.316406 409.820312 465.5625 411.640625 C 464.804688 413.460938 463.964844 415.238281 463.035156 416.976562 C 462.105469 418.710938 461.089844 420.398438 459.996094 422.039062 C 458.898438 423.675781 457.726562 425.253906 456.476562 426.777344 C 455.226562 428.300781 453.902344 429.757812 452.507812 431.148438 C 451.113281 432.542969 449.652344 433.863281 448.128906 435.113281 C 446.605469 436.363281 445.023438 437.535156 443.382812 438.628906 C 441.742188 439.722656 440.054688 440.734375 438.3125 441.660156 C 436.574219 442.589844 434.792969 443.429688 432.972656 444.183594 C 431.148438 444.9375 429.292969 445.601562 427.40625 446.171875 C 425.519531 446.746094 423.609375 447.222656 421.675781 447.605469 C 419.742188 447.992188 417.792969 448.277344 415.828125 448.472656 C 413.867188 448.664062 411.898438 448.761719 409.925781 448.761719 C 407.953125 448.761719 405.988281 448.664062 404.023438 448.472656 C 402.0625 448.277344 400.113281 447.992188 398.179688 447.605469 C 396.246094 447.222656 394.335938 446.746094 392.445312 446.171875 C 390.558594 445.601562 388.703125 444.9375 386.882812 444.183594 C 385.0625 443.429688 383.28125 442.589844 381.539062 441.660156 C 379.800781 440.734375 378.113281 439.722656 376.472656 438.628906 C 374.832031 437.535156 373.25 436.363281 371.726562 435.113281 C 370.199219 433.863281 368.742188 432.542969 367.347656 431.148438 C 365.953125 429.757812 364.628906 428.300781 363.378906 426.777344 C 362.128906 425.253906 360.953125 423.675781 359.859375 422.039062 C 358.761719 420.398438 357.75 418.710938 356.820312 416.976562 C 355.890625 415.238281 355.046875 413.460938 354.292969 411.640625 C 353.539062 409.820312 352.875 407.96875 352.300781 406.085938 C 351.730469 404.199219 351.25 402.292969 350.867188 400.359375 C 350.480469 398.429688 350.191406 396.484375 350 394.523438 C 349.804688 392.5625 349.710938 390.597656 349.710938 388.628906 C 349.710938 386.660156 349.804688 384.695312 350 382.734375 C 350.191406 380.777344 350.480469 378.828125 350.867188 376.898438 C 351.25 374.964844 351.730469 373.058594 352.300781 371.175781 C 352.875 369.289062 353.539062 367.4375 354.292969 365.617188 C 355.046875 363.796875 355.890625 362.019531 356.820312 360.285156 C 357.75 358.546875 358.761719 356.859375 359.859375 355.222656 C 360.953125 353.585938 362.128906 352.003906 363.378906 350.480469 C 364.628906 348.960938 365.953125 347.503906 367.347656 346.109375 C 368.742188 344.71875 370.199219 343.394531 371.726562 342.148438 C 373.25 340.898438 374.832031 339.726562 376.472656 338.632812 C 378.113281 337.535156 379.800781 336.527344 381.539062 335.597656 C 383.28125 334.667969 385.0625 333.828125 386.882812 333.074219 C 388.703125 332.320312 390.558594 331.65625 392.445312 331.085938 C 394.335938 330.515625 396.246094 330.035156 398.179688 329.652344 C 400.113281 329.269531 402.0625 328.980469 404.023438 328.785156 C 405.988281 328.59375 407.953125 328.496094 409.925781 328.496094 C 411.898438 328.496094 413.867188 328.59375 415.828125 328.785156 C 417.792969 328.980469 419.742188 329.269531 421.675781 329.652344 C 423.609375 330.035156 425.519531 330.515625 427.40625 331.085938 C 429.292969 331.65625 431.148438 332.320312 432.972656 333.074219 C 434.792969 333.828125 436.574219 334.667969 438.3125 335.597656 C 440.054688 336.527344 441.742188 337.535156 443.382812 338.632812 C 445.023438 339.726562 446.605469 340.898438 448.128906 342.148438 C 449.652344 343.394531 451.113281 344.71875 452.507812 346.109375 C 453.902344 347.503906 455.226562 348.960938 456.476562 350.480469 C 457.726562 352.003906 458.898438 353.585938 459.996094 355.222656 C 461.089844 356.859375 462.105469 358.546875 463.035156 360.285156 C 463.964844 362.019531 464.804688 363.796875 465.5625 365.617188 C 466.316406 367.4375 466.980469 369.289062 467.550781 371.175781 C 468.125 373.058594 468.601562 374.964844 468.988281 376.898438 C 469.371094 378.828125 469.660156 380.777344 469.855469 382.734375 C 470.046875 384.695312 470.144531 386.660156 470.144531 388.628906 Z M 470.144531 388.628906 " fill-opacity="1" fill-rule="nonzero"/><path fill="#f79b31" d="M 402.398438 336.011719 C 398.894531 336.007812 395.414062 336.308594 391.960938 336.914062 C 388.507812 337.519531 385.132812 338.421875 381.839844 339.621094 C 378.542969 340.816406 375.378906 342.289062 372.34375 344.042969 C 369.308594 345.792969 366.445312 347.792969 363.761719 350.046875 C 362.574219 351.472656 361.457031 352.949219 360.40625 354.480469 C 359.359375 356.007812 358.378906 357.582031 357.476562 359.203125 C 356.570312 360.820312 355.746094 362.480469 354.992188 364.175781 C 354.242188 365.871094 353.574219 367.597656 352.980469 369.355469 C 352.390625 371.113281 351.882812 372.894531 351.457031 374.699219 C 351.03125 376.503906 350.691406 378.324219 350.433594 380.160156 C 350.175781 381.996094 350.003906 383.839844 349.917969 385.691406 C 349.832031 387.542969 349.832031 389.394531 349.914062 391.25 C 350 393.101562 350.171875 394.945312 350.429688 396.78125 C 350.683594 398.617188 351.023438 400.4375 351.449219 402.242188 C 351.875 404.046875 352.382812 405.828125 352.972656 407.585938 C 353.558594 409.34375 354.230469 411.070312 354.980469 412.769531 C 355.730469 414.464844 356.554688 416.121094 357.460938 417.742188 C 358.363281 419.363281 359.339844 420.9375 360.386719 422.464844 C 361.4375 423.996094 362.554688 425.472656 363.742188 426.902344 C 364.925781 428.328125 366.175781 429.695312 367.488281 431.007812 C 368.800781 432.316406 370.171875 433.566406 371.601562 434.75 C 373.03125 435.933594 374.511719 437.050781 376.042969 438.097656 C 377.574219 439.144531 379.152344 440.121094 380.773438 441.023438 C 382.394531 441.925781 384.054688 442.75 385.753906 443.5 C 387.453125 444.246094 389.183594 444.917969 390.941406 445.503906 C 392.703125 446.09375 394.488281 446.601562 396.292969 447.023438 C 398.101562 447.449219 399.925781 447.789062 401.765625 448.042969 C 403.601562 448.300781 405.449219 448.472656 407.304688 448.554688 C 409.160156 448.640625 411.015625 448.640625 412.867188 448.554688 C 414.722656 448.46875 416.570312 448.296875 418.410156 448.039062 C 420.246094 447.78125 422.070312 447.441406 423.878906 447.015625 C 425.683594 446.59375 427.46875 446.085938 429.230469 445.496094 C 430.988281 444.90625 432.71875 444.234375 434.417969 443.484375 C 436.113281 442.734375 437.773438 441.910156 439.394531 441.007812 C 441.019531 440.101562 442.59375 439.128906 444.125 438.078125 C 445.65625 437.03125 447.136719 435.914062 448.5625 434.726562 C 450.390625 432.546875 452.054688 430.246094 453.558594 427.828125 C 455.058594 425.410156 456.382812 422.898438 457.523438 420.292969 C 458.667969 417.6875 459.625 415.015625 460.386719 412.273438 C 461.152344 409.535156 461.71875 406.753906 462.085938 403.933594 C 462.457031 401.113281 462.625 398.28125 462.589844 395.433594 C 462.554688 392.589844 462.320312 389.761719 461.886719 386.949219 C 461.449219 384.140625 460.816406 381.375 459.988281 378.652344 C 459.160156 375.929688 458.144531 373.28125 456.9375 370.703125 C 455.730469 368.125 454.351562 365.644531 452.792969 363.261719 C 451.234375 360.882812 449.515625 358.621094 447.636719 356.484375 C 445.757812 354.34375 443.738281 352.351562 441.574219 350.5 C 439.414062 348.648438 437.128906 346.957031 434.726562 345.429688 C 432.324219 343.898438 429.824219 342.546875 427.230469 341.375 C 424.636719 340.199219 421.96875 339.214844 419.234375 338.417969 C 416.5 337.621094 413.722656 337.023438 410.902344 336.621094 C 408.082031 336.214844 405.25 336.015625 402.398438 336.011719 Z M 402.398438 336.011719 " fill-opacity="1" fill-rule="nonzero"/><g clip-path="url(#1d8a1b74b6)"><path fill="#ffd98c" d="M 417.453125 440.179688 C 418.332031 439.953125 419.195312 439.6875 420.050781 439.382812 C 420.902344 439.082031 421.738281 438.738281 422.5625 438.359375 C 423.382812 437.980469 424.1875 437.566406 424.972656 437.113281 C 425.757812 436.664062 426.519531 436.175781 427.257812 435.65625 C 428 435.136719 428.714844 434.582031 429.40625 434 C 430.097656 433.414062 430.757812 432.796875 431.394531 432.152344 C 432.027344 431.507812 432.632812 430.835938 433.207031 430.136719 C 433.78125 429.4375 434.320312 428.714844 434.828125 427.964844 C 435.339844 427.21875 435.8125 426.449219 436.25 425.65625 C 436.6875 424.867188 437.089844 424.058594 437.457031 423.230469 C 437.820312 422.402344 438.148438 421.5625 438.4375 420.703125 C 438.726562 419.847656 438.976562 418.980469 439.1875 418.097656 C 439.398438 417.21875 439.570312 416.332031 439.699219 415.4375 C 439.832031 414.542969 439.921875 413.644531 439.96875 412.742188 C 440.019531 411.839844 440.027344 410.933594 439.992188 410.03125 C 439.960938 409.128906 439.886719 408.226562 439.773438 407.332031 C 439.660156 406.433594 439.503906 405.542969 439.308594 404.660156 C 439.113281 403.777344 438.878906 402.90625 438.605469 402.042969 C 438.332031 401.183594 438.019531 400.332031 437.667969 399.5 C 437.320312 398.667969 436.929688 397.851562 436.507812 397.050781 C 436.082031 396.253906 435.621094 395.476562 435.128906 394.71875 C 434.632812 393.960938 434.105469 393.226562 433.542969 392.519531 C 432.980469 391.808594 432.390625 391.125 431.765625 390.46875 C 431.144531 389.8125 430.492188 389.1875 429.8125 388.589844 C 429.132812 387.992188 428.425781 387.425781 427.695312 386.894531 C 426.964844 386.359375 426.210938 385.859375 425.433594 385.394531 C 424.65625 384.929688 423.863281 384.5 423.046875 384.105469 C 422.230469 383.710938 421.402344 383.355469 420.554688 383.039062 C 419.707031 382.71875 418.847656 382.4375 417.972656 382.199219 C 417.101562 381.957031 416.21875 381.757812 415.328125 381.59375 C 414.4375 381.433594 413.539062 381.3125 412.636719 381.230469 C 411.734375 381.152344 410.832031 381.113281 409.925781 381.113281 C 408.9375 381.113281 407.960938 381.015625 406.988281 380.824219 C 406.019531 380.632812 405.078125 380.347656 404.167969 379.96875 C 403.253906 379.589844 402.386719 379.128906 401.5625 378.578125 C 400.742188 378.03125 399.980469 377.40625 399.28125 376.710938 C 398.582031 376.011719 397.960938 375.253906 397.410156 374.433594 C 396.859375 373.609375 396.398438 372.746094 396.019531 371.832031 C 395.640625 370.921875 395.355469 369.980469 395.160156 369.011719 C 394.96875 368.042969 394.871094 367.066406 394.871094 366.078125 C 394.871094 365.09375 394.96875 364.113281 395.160156 363.148438 C 395.355469 362.179688 395.640625 361.238281 396.019531 360.328125 C 396.398438 359.414062 396.859375 358.546875 397.410156 357.726562 C 397.960938 356.90625 398.582031 356.148438 399.28125 355.449219 C 399.980469 354.75 400.742188 354.128906 401.5625 353.582031 C 402.386719 353.03125 403.253906 352.570312 404.167969 352.191406 C 405.078125 351.8125 406.019531 351.527344 406.988281 351.335938 C 407.960938 351.144531 408.9375 351.046875 409.925781 351.046875 C 410.914062 351.046875 411.894531 351.144531 412.863281 351.335938 C 413.832031 351.527344 414.773438 351.8125 415.6875 352.191406 C 416.601562 352.570312 417.46875 353.03125 418.289062 353.582031 C 419.113281 354.128906 419.875 354.75 420.570312 355.449219 C 421.269531 356.148438 421.894531 356.90625 422.445312 357.726562 C 422.992188 358.546875 423.457031 359.414062 423.835938 360.328125 C 424.214844 361.238281 424.5 362.179688 424.691406 363.148438 C 424.886719 364.113281 424.980469 365.09375 424.980469 366.078125 L 440.035156 366.078125 C 440.03125 364.429688 439.886719 362.789062 439.613281 361.164062 C 439.335938 359.535156 438.925781 357.941406 438.386719 356.382812 C 437.847656 354.824219 437.1875 353.316406 436.398438 351.867188 C 435.609375 350.414062 434.710938 349.039062 433.695312 347.734375 C 432.679688 346.433594 431.566406 345.222656 430.351562 344.101562 C 429.136719 342.984375 427.839844 341.96875 426.460938 341.0625 C 425.078125 340.15625 423.632812 339.371094 422.121094 338.703125 C 420.609375 338.035156 419.054688 337.492188 417.453125 337.082031 L 417.453125 313.847656 C 414.976562 313.597656 412.464844 313.464844 409.925781 313.464844 C 407.410156 313.464844 404.902344 313.59375 402.398438 313.847656 L 402.398438 337.082031 C 401.523438 337.304688 400.65625 337.570312 399.804688 337.875 C 398.953125 338.175781 398.113281 338.519531 397.292969 338.898438 C 396.46875 339.277344 395.667969 339.691406 394.882812 340.144531 C 394.097656 340.59375 393.335938 341.082031 392.59375 341.601562 C 391.855469 342.121094 391.140625 342.675781 390.449219 343.261719 C 389.757812 343.84375 389.097656 344.460938 388.460938 345.105469 C 387.828125 345.75 387.222656 346.421875 386.648438 347.121094 C 386.074219 347.820312 385.53125 348.542969 385.023438 349.292969 C 384.515625 350.039062 384.042969 350.808594 383.605469 351.601562 C 383.164062 352.390625 382.761719 353.203125 382.398438 354.027344 C 382.03125 354.855469 381.703125 355.699219 381.414062 356.554688 C 381.125 357.410156 380.875 358.28125 380.664062 359.160156 C 380.453125 360.039062 380.285156 360.925781 380.152344 361.820312 C 380.023438 362.714844 379.933594 363.613281 379.886719 364.515625 C 379.835938 365.421875 379.828125 366.324219 379.859375 367.226562 C 379.894531 368.128906 379.96875 369.03125 380.082031 369.929688 C 380.195312 370.824219 380.351562 371.714844 380.546875 372.597656 C 380.742188 373.480469 380.976562 374.351562 381.25 375.214844 C 381.523438 376.078125 381.835938 376.925781 382.183594 377.757812 C 382.535156 378.59375 382.921875 379.410156 383.347656 380.207031 C 383.773438 381.003906 384.230469 381.785156 384.726562 382.539062 C 385.222656 383.296875 385.75 384.03125 386.3125 384.742188 C 386.871094 385.449219 387.464844 386.132812 388.089844 386.789062 C 388.710938 387.445312 389.363281 388.070312 390.042969 388.667969 C 390.722656 389.265625 391.429688 389.832031 392.160156 390.367188 C 392.890625 390.898438 393.644531 391.398438 394.421875 391.863281 C 395.195312 392.328125 395.992188 392.757812 396.808594 393.152344 C 397.621094 393.546875 398.453125 393.902344 399.300781 394.222656 C 400.148438 394.539062 401.007812 394.820312 401.882812 395.0625 C 402.753906 395.300781 403.636719 395.503906 404.527344 395.664062 C 405.417969 395.824219 406.3125 395.945312 407.214844 396.027344 C 408.117188 396.109375 409.023438 396.148438 409.925781 396.144531 C 410.914062 396.144531 411.894531 396.242188 412.863281 396.433594 C 413.832031 396.628906 414.773438 396.914062 415.6875 397.289062 C 416.601562 397.667969 417.46875 398.132812 418.289062 398.679688 C 419.113281 399.226562 419.875 399.851562 420.570312 400.550781 C 421.269531 401.246094 421.894531 402.007812 422.445312 402.828125 C 422.992188 403.648438 423.457031 404.515625 423.835938 405.425781 C 424.214844 406.339844 424.5 407.277344 424.691406 408.246094 C 424.886719 409.214844 424.980469 410.191406 424.980469 411.179688 C 424.980469 412.167969 424.886719 413.144531 424.691406 414.113281 C 424.5 415.078125 424.214844 416.019531 423.835938 416.933594 C 423.457031 417.84375 422.992188 418.710938 422.445312 419.53125 C 421.894531 420.351562 421.269531 421.109375 420.570312 421.808594 C 419.875 422.507812 419.113281 423.128906 418.289062 423.679688 C 417.46875 424.226562 416.601562 424.691406 415.6875 425.066406 C 414.773438 425.445312 413.832031 425.730469 412.863281 425.921875 C 411.894531 426.117188 410.914062 426.210938 409.925781 426.210938 C 408.9375 426.210938 407.960938 426.117188 406.988281 425.921875 C 406.019531 425.730469 405.078125 425.445312 404.167969 425.066406 C 403.253906 424.691406 402.386719 424.226562 401.5625 423.679688 C 400.742188 423.128906 399.980469 422.507812 399.28125 421.808594 C 398.582031 421.109375 397.960938 420.351562 397.410156 419.53125 C 396.859375 418.710938 396.398438 417.84375 396.019531 416.933594 C 395.640625 416.019531 395.355469 415.078125 395.160156 414.113281 C 394.96875 413.144531 394.871094 412.167969 394.871094 411.179688 L 379.820312 411.179688 C 379.824219 412.828125 379.964844 414.46875 380.242188 416.09375 C 380.519531 417.722656 380.925781 419.316406 381.464844 420.875 C 382.003906 422.4375 382.667969 423.941406 383.457031 425.390625 C 384.242188 426.84375 385.144531 428.21875 386.160156 429.523438 C 387.171875 430.824219 388.289062 432.035156 389.5 433.15625 C 390.714844 434.277344 392.011719 435.289062 393.394531 436.195312 C 394.777344 437.101562 396.222656 437.886719 397.734375 438.554688 C 399.246094 439.226562 400.800781 439.765625 402.398438 440.179688 L 402.398438 463.417969 C 404.875 463.660156 407.382812 463.792969 409.925781 463.792969 C 412.472656 463.792969 414.976562 463.660156 417.453125 463.417969 Z M 417.453125 440.179688 " fill-opacity="1" fill-rule="nonzero"/></g><path fill="#4c4c4c" d="M 26.335938 290.351562 L 60.824219 313.3125 L 112.007812 230.25 L 26.335938 177.601562 Z M 26.335938 290.351562 " fill-opacity="1" fill-rule="nonzero"/><path fill="#c1cfe8" d="M 56.445312 320.417969 L 101.605469 350.484375 L 161.824219 252.769531 L 116.660156 222.703125 Z M 56.445312 320.417969 " fill-opacity="1" fill-rule="nonzero"/><path fill="#d7e0ef" d="M 63.339844 309.230469 L 116.660156 222.703125 L 155.253906 248.394531 L 129.910156 289.523438 C 129.078125 290.871094 128.1875 292.179688 127.234375 293.445312 C 126.285156 294.710938 125.277344 295.929688 124.214844 297.105469 C 123.152344 298.277344 122.039062 299.402344 120.875 300.472656 C 119.707031 301.546875 118.496094 302.5625 117.238281 303.527344 C 115.980469 304.488281 114.679688 305.390625 113.339844 306.234375 C 112 307.078125 110.621094 307.859375 109.210938 308.578125 C 107.796875 309.292969 106.355469 309.945312 104.882812 310.53125 C 103.410156 311.121094 101.917969 311.636719 100.398438 312.085938 C 98.878906 312.535156 97.339844 312.917969 95.785156 313.226562 C 94.230469 313.535156 92.667969 313.773438 91.089844 313.941406 C 89.515625 314.109375 87.933594 314.203125 86.351562 314.226562 C 84.765625 314.246094 83.183594 314.199219 81.601562 314.078125 C 80.023438 313.953125 78.453125 313.761719 76.890625 313.496094 C 75.328125 313.230469 73.78125 312.894531 72.25 312.488281 C 70.71875 312.082031 69.207031 311.609375 67.71875 311.0625 C 66.230469 310.519531 64.769531 309.910156 63.339844 309.230469 Z M 63.339844 309.230469 " fill-opacity="1" fill-rule="nonzero"/><path fill="#5b5b5b" d="M 72.640625 279.074219 C 72.261719 279.695312 71.847656 280.292969 71.40625 280.875 C 70.964844 281.453125 70.492188 282.007812 69.996094 282.539062 C 69.496094 283.070312 68.972656 283.574219 68.425781 284.050781 C 67.875 284.53125 67.304688 284.980469 66.710938 285.402344 C 66.117188 285.824219 65.503906 286.214844 64.867188 286.574219 C 64.234375 286.933594 63.585938 287.261719 62.917969 287.554688 C 62.253906 287.851562 61.574219 288.109375 60.878906 288.335938 C 60.1875 288.5625 59.484375 288.753906 58.773438 288.910156 C 58.0625 289.066406 57.34375 289.183594 56.621094 289.269531 C 55.894531 289.351562 55.167969 289.398438 54.441406 289.410156 C 53.710938 289.421875 52.984375 289.394531 52.257812 289.332031 C 51.53125 289.269531 50.8125 289.171875 50.097656 289.035156 C 49.378906 288.902344 48.671875 288.730469 47.972656 288.527344 C 47.273438 288.320312 46.585938 288.082031 45.914062 287.804688 C 45.238281 287.53125 44.578125 287.222656 43.933594 286.882812 C 43.289062 286.542969 42.664062 286.167969 42.058594 285.765625 L 26.335938 275.316406 L 26.335938 177.601562 L 105.289062 226.121094 Z M 72.640625 279.074219 " fill-opacity="1" fill-rule="nonzero"/><path fill="#d7e0ef" d="M 274.730469 140.019531 C 274.753906 147.589844 275.402344 155.105469 276.679688 162.570312 L 312.367188 162.570312 L 312.367188 117.46875 L 274.730469 117.46875 Z M 274.730469 140.019531 " fill-opacity="1" fill-rule="nonzero"/><path fill="#d7e0ef" d="M 161.824219 209.425781 C 168.78125 222.867188 177.738281 234.804688 188.695312 245.25 L 237.09375 245.25 L 237.09375 200.152344 L 161.824219 200.152344 Z M 161.824219 209.425781 " fill-opacity="1" fill-rule="nonzero"/></svg>