<svg xmlns="http://www.w3.org/2000/svg" xmlns:xlink="http://www.w3.org/1999/xlink" width="692" zoomAndPan="magnify" viewBox="0 0 519 469.499982" height="626" preserveAspectRatio="xMidYMid meet" version="1.0"><defs><clipPath id="1eb3c551d0"><path d="M 61 56.121094 L 437 56.121094 L 437 262 L 61 262 Z M 61 56.121094 " clip-rule="nonzero"/></clipPath><clipPath id="1115fd29f0"><path d="M 8.703125 410 L 510.667969 410 L 510.667969 412.652344 L 8.703125 412.652344 Z M 8.703125 410 " clip-rule="nonzero"/></clipPath></defs><g clip-path="url(#1eb3c551d0)"><path fill="#8fc3f3" d="M 414.070312 56.238281 L 83.675781 56.238281 C 71.253906 56.238281 61.148438 66.332031 61.148438 78.742188 L 61.148438 238.875 C 61.148438 251.285156 71.253906 261.378906 83.675781 261.378906 L 414.070312 261.378906 C 426.492188 261.378906 436.597656 251.285156 436.597656 238.875 L 436.597656 78.742188 C 436.597656 66.332031 426.492188 56.238281 414.070312 56.238281 " fill-opacity="1" fill-rule="nonzero"/></g><path fill="#ffffff" d="M 414.070312 258.730469 L 83.675781 258.730469 C 72.699219 258.730469 63.800781 249.839844 63.800781 238.875 L 63.800781 78.742188 C 63.800781 67.777344 72.699219 58.890625 83.675781 58.890625 L 414.070312 58.890625 C 425.046875 58.890625 433.945312 67.777344 433.945312 78.742188 L 433.945312 238.875 C 433.945312 249.839844 425.046875 258.730469 414.070312 258.730469 " fill-opacity="1" fill-rule="nonzero"/><path fill="#c3dff9" d="M 414.070312 58.890625 L 83.675781 58.890625 C 72.699219 58.890625 63.800781 67.777344 63.800781 78.742188 L 63.800781 81.273438 L 433.945312 81.273438 L 433.945312 78.742188 C 433.945312 67.777344 425.046875 58.890625 414.070312 58.890625 " fill-opacity="1" fill-rule="nonzero"/><path fill="#eaab21" d="M 86.53125 70.535156 C 86.53125 72.230469 85.160156 73.601562 83.46875 73.601562 C 81.773438 73.601562 80.398438 72.230469 80.398438 70.535156 C 80.398438 68.84375 81.773438 67.472656 83.46875 67.472656 C 85.160156 67.472656 86.53125 68.84375 86.53125 70.535156 " fill-opacity="1" fill-rule="nonzero"/><path fill="#eaab21" d="M 100.875 70.535156 C 100.875 72.230469 99.503906 73.601562 97.808594 73.601562 C 96.117188 73.601562 94.742188 72.230469 94.742188 70.535156 C 94.742188 68.84375 96.117188 67.472656 97.808594 67.472656 C 99.503906 67.472656 100.875 68.84375 100.875 70.535156 " fill-opacity="1" fill-rule="nonzero"/><path fill="#eaab21" d="M 115.21875 70.535156 C 115.21875 72.230469 113.847656 73.601562 112.148438 73.601562 C 110.457031 73.601562 109.085938 72.230469 109.085938 70.535156 C 109.085938 68.84375 110.457031 67.472656 112.148438 67.472656 C 113.847656 67.472656 115.21875 68.84375 115.21875 70.535156 " fill-opacity="1" fill-rule="nonzero"/><path fill="#c3dff9" d="M 82.203125 108.359375 L 82.203125 126.257812 L 101.835938 126.257812 L 101.835938 108.359375 L 82.203125 108.359375 " fill-opacity="1" fill-rule="nonzero"/><path fill="#f2cd7a" d="M 82.203125 151.195312 L 101.835938 151.195312 L 101.835938 133.300781 L 82.203125 133.300781 L 82.203125 151.195312 " fill-opacity="1" fill-rule="nonzero"/><path fill="#8fc3f3" d="M 82.203125 176.136719 L 101.835938 176.136719 L 101.835938 158.242188 L 82.203125 158.242188 L 82.203125 176.136719 " fill-opacity="1" fill-rule="nonzero"/><path fill="#c3dff9" d="M 82.203125 201.078125 L 101.835938 201.078125 L 101.835938 183.179688 L 82.203125 183.179688 L 82.203125 201.078125 " fill-opacity="1" fill-rule="nonzero"/><path fill="#8fc3f3" d="M 82.203125 226.015625 L 101.835938 226.015625 L 101.835938 208.121094 L 82.203125 208.121094 L 82.203125 226.015625 " fill-opacity="1" fill-rule="nonzero"/><path fill="#8fc3f3" d="M 109.832031 108.359375 L 109.832031 126.257812 L 129.464844 126.257812 L 129.464844 108.359375 L 109.832031 108.359375 " fill-opacity="1" fill-rule="nonzero"/><path fill="#c3dff9" d="M 109.832031 151.195312 L 129.464844 151.195312 L 129.464844 133.300781 L 109.832031 133.300781 L 109.832031 151.195312 " fill-opacity="1" fill-rule="nonzero"/><path fill="#f2cd7a" d="M 109.832031 176.136719 L 129.464844 176.136719 L 129.464844 158.242188 L 109.832031 158.242188 L 109.832031 176.136719 " fill-opacity="1" fill-rule="nonzero"/><path fill="#8fc3f3" d="M 109.832031 201.078125 L 129.464844 201.078125 L 129.464844 183.179688 L 109.832031 183.179688 L 109.832031 201.078125 " fill-opacity="1" fill-rule="nonzero"/><path fill="#c3dff9" d="M 109.832031 226.015625 L 129.464844 226.015625 L 129.464844 208.121094 L 109.832031 208.121094 L 109.832031 226.015625 " fill-opacity="1" fill-rule="nonzero"/><path fill="#f2cd7a" d="M 137.457031 108.359375 L 137.457031 126.257812 L 157.089844 126.257812 L 157.089844 108.359375 L 137.457031 108.359375 " fill-opacity="1" fill-rule="nonzero"/><path fill="#f2cd7a" d="M 137.457031 151.195312 L 157.089844 151.195312 L 157.089844 133.300781 L 137.457031 133.300781 L 137.457031 151.195312 " fill-opacity="1" fill-rule="nonzero"/><path fill="#c3dff9" d="M 137.457031 176.136719 L 157.089844 176.136719 L 157.089844 158.242188 L 137.457031 158.242188 L 137.457031 176.136719 " fill-opacity="1" fill-rule="nonzero"/><path fill="#8fc3f3" d="M 137.457031 201.078125 L 157.089844 201.078125 L 157.089844 183.179688 L 137.457031 183.179688 L 137.457031 201.078125 " fill-opacity="1" fill-rule="nonzero"/><path fill="#c3dff9" d="M 137.457031 226.015625 L 157.089844 226.015625 L 157.089844 208.121094 L 137.457031 208.121094 L 137.457031 226.015625 " fill-opacity="1" fill-rule="nonzero"/><path fill="#c3dff9" d="M 192.863281 108.359375 L 192.863281 226.015625 L 413.0625 226.015625 L 413.0625 108.359375 L 192.863281 108.359375 " fill-opacity="1" fill-rule="nonzero"/><path fill="#ffffff" d="M 205.023438 214.925781 C 214.300781 199.398438 225.40625 184.800781 239.199219 172.992188 C 246.023438 167.148438 253.527344 161.972656 261.613281 158.023438 C 269.769531 154.042969 280.914062 150.8125 286.832031 159.9375 C 292.761719 169.078125 293.835938 187.625 307.914062 187.988281 C 316.175781 188.203125 322.621094 182.230469 328.390625 177.109375 C 335.785156 170.546875 343.082031 163.855469 350.6875 157.527344 C 367.855469 143.25 387.214844 130.714844 409.699219 127.296875 C 410.78125 127.128906 410.320312 125.488281 409.246094 125.652344 C 389.859375 128.597656 372.542969 138.34375 357.183594 150.152344 C 349.460938 156.082031 342.164062 162.527344 334.90625 169.007812 C 327.777344 175.375 319.339844 185.761719 309.082031 186.269531 C 292.769531 187.078125 294.824219 162.5625 284.535156 154.871094 C 278.484375 150.347656 270.285156 152.433594 263.933594 155.101562 C 256.132812 158.382812 248.871094 163.117188 242.230469 168.316406 C 226.371094 180.722656 213.820312 196.871094 203.554688 214.066406 C 202.988281 215.011719 204.460938 215.867188 205.023438 214.925781 " fill-opacity="1" fill-rule="nonzero"/><path fill="#ffffff" d="M 295.234375 163.441406 C 295.234375 166.558594 292.703125 169.089844 289.582031 169.089844 C 286.460938 169.089844 283.929688 166.558594 283.929688 163.441406 C 283.929688 160.324219 286.460938 157.796875 289.582031 157.796875 C 292.703125 157.796875 295.234375 160.324219 295.234375 163.441406 " fill-opacity="1" fill-rule="nonzero"/><path fill="#ffc93e" d="M 289.582031 158.363281 C 286.78125 158.363281 284.496094 160.640625 284.496094 163.441406 C 284.496094 166.242188 286.78125 168.523438 289.582031 168.523438 C 292.386719 168.523438 294.667969 166.242188 294.667969 163.441406 C 294.667969 160.640625 292.386719 158.363281 289.582031 158.363281 Z M 289.582031 169.65625 C 286.152344 169.65625 283.359375 166.867188 283.359375 163.441406 C 283.359375 160.015625 286.152344 157.226562 289.582031 157.226562 C 293.015625 157.226562 295.804688 160.015625 295.804688 163.441406 C 295.804688 166.867188 293.015625 169.65625 289.582031 169.65625 " fill-opacity="1" fill-rule="nonzero"/><path fill="#ffffff" d="M 398.839844 130.558594 C 398.839844 133.675781 396.308594 136.207031 393.1875 136.207031 C 390.066406 136.207031 387.53125 133.675781 387.53125 130.558594 C 387.53125 127.441406 390.066406 124.910156 393.1875 124.910156 C 396.308594 124.910156 398.839844 127.441406 398.839844 130.558594 " fill-opacity="1" fill-rule="nonzero"/><path fill="#ffc93e" d="M 393.1875 125.480469 C 390.382812 125.480469 388.101562 127.757812 388.101562 130.558594 C 388.101562 133.359375 390.382812 135.636719 393.1875 135.636719 C 395.992188 135.636719 398.269531 133.359375 398.269531 130.558594 C 398.269531 127.757812 395.992188 125.480469 393.1875 125.480469 Z M 393.1875 136.773438 C 389.757812 136.773438 386.964844 133.984375 386.964844 130.558594 C 386.964844 127.128906 389.757812 124.34375 393.1875 124.34375 C 396.617188 124.34375 399.410156 127.128906 399.410156 130.558594 C 399.410156 133.984375 396.617188 136.773438 393.1875 136.773438 " fill-opacity="1" fill-rule="nonzero"/><path fill="#343435" d="M 82.238281 409.167969 C 82.320312 409.167969 82.402344 409.15625 82.480469 409.125 C 82.847656 408.992188 83.042969 408.585938 82.90625 408.214844 L 65.0625 358.753906 L 27.839844 387.757812 C 27.53125 387.996094 27.476562 388.445312 27.71875 388.75 C 27.957031 389.058594 28.402344 389.117188 28.710938 388.875 L 64.390625 361.074219 L 81.570312 408.699219 C 81.675781 408.984375 81.949219 409.167969 82.238281 409.167969 " fill-opacity="1" fill-rule="nonzero"/><path fill="#343435" d="M 19.757812 409.167969 C 20.046875 409.167969 20.320312 408.984375 20.421875 408.699219 L 37.617188 361.046875 L 74.246094 387.855469 C 74.5625 388.085938 75.007812 388.019531 75.238281 387.703125 C 75.472656 387.386719 75.402344 386.941406 75.085938 386.710938 L 36.925781 358.777344 L 19.085938 408.214844 C 18.953125 408.585938 19.148438 408.992188 19.515625 409.125 C 19.59375 409.15625 19.675781 409.167969 19.757812 409.167969 " fill-opacity="1" fill-rule="nonzero"/><path fill="#ff9c8a" d="M 88.949219 398.683594 L 89.109375 403.886719 C 89.109375 403.886719 88.160156 404.988281 86.582031 404.988281 C 85.003906 404.988281 84.585938 402.445312 84.585938 402.445312 L 84.847656 398.683594 L 88.949219 398.683594 " fill-opacity="1" fill-rule="nonzero"/><path fill="#ff9c8a" d="M 115.144531 399.160156 L 116.167969 403.886719 C 116.167969 403.886719 115.222656 404.988281 113.644531 404.988281 C 112.066406 404.988281 111.648438 402.445312 111.648438 402.445312 L 111.199219 398.84375 L 115.144531 399.160156 " fill-opacity="1" fill-rule="nonzero"/><path fill="#eaab21" d="M 27.335938 351.71875 C 27.335938 351.71875 26.863281 358.332031 31.59375 359.109375 C 36.328125 359.886719 68.519531 361.835938 75.617188 359.109375 C 79.574219 357.59375 78.929688 351.71875 78.929688 351.71875 L 27.335938 351.71875 " fill-opacity="1" fill-rule="nonzero"/><path fill="#f4b12a" d="M 29.703125 351.71875 C 29.703125 351.71875 15.976562 298.285156 24.023438 292.140625 C 32.066406 285.992188 77.039062 285.519531 77.039062 295.445312 C 77.039062 305.378906 74.199219 352.660156 74.199219 352.660156 L 29.703125 351.71875 " fill-opacity="1" fill-rule="nonzero"/><path fill="#343435" d="M 117.289062 399.316406 C 117.289062 399.316406 113.011719 352.257812 100.960938 344.378906 C 88.910156 336.496094 66.28125 337.128906 61.871094 334.609375 C 57.460938 332.085938 60.941406 330.910156 60.941406 330.910156 L 35.128906 331.453125 C 35.128906 331.453125 31.285156 349.601562 54.523438 352.890625 C 77.984375 356.207031 96.257812 359.191406 96.257812 359.191406 C 96.257812 359.191406 97.429688 365.269531 101.652344 378.195312 C 105.457031 389.835938 111.117188 399.316406 111.117188 399.316406 L 117.289062 399.316406 " fill-opacity="1" fill-rule="nonzero"/><path fill="#515151" d="M 89.203125 399.316406 L 84.207031 399.316406 C 84.207031 399.316406 79.878906 387.179688 79.210938 372.433594 C 78.742188 362.007812 76.5625 355.972656 76.5625 355.972656 C 76.5625 355.972656 49.046875 357.230469 39.640625 351.246094 C 30.238281 345.253906 35.128906 331.453125 35.128906 331.453125 L 60.941406 330.910156 C 60.941406 330.910156 60.710938 336.425781 70.410156 338.949219 C 80.109375 341.46875 91.554688 344.691406 92.4375 350.683594 C 93.320312 356.671875 89.203125 399.316406 89.203125 399.316406 " fill-opacity="1" fill-rule="nonzero"/><path fill="#449beb" d="M 33.5625 332.402344 C 33.5625 332.402344 29.226562 304.429688 33.015625 294.503906 C 36.585938 285.140625 40.429688 285.675781 51.476562 287.882812 C 62.519531 290.089844 62.597656 293.3125 60.390625 307.8125 C 58.179688 322.3125 59.441406 322.945312 61.019531 326.726562 C 62.597656 330.511719 63.859375 332.402344 63.859375 332.402344 C 63.859375 332.402344 56.285156 335.238281 48.082031 335.550781 C 39.875 335.867188 33.5625 332.402344 33.5625 332.402344 " fill-opacity="1" fill-rule="nonzero"/><path fill="#69afef" d="M 40.429688 287.253906 C 36.960938 285.675781 29.777344 291.738281 20.941406 304.34375 C 12.105469 316.953125 13.683594 322.3125 13.683594 322.3125 L 55.652344 322.628906 L 55.652344 317.585938 C 55.652344 317.585938 50.53125 315.9375 40.746094 314.992188 C 30.964844 314.046875 26.621094 317.585938 32.933594 310.964844 C 39.242188 304.34375 43.902344 288.828125 40.429688 287.253906 " fill-opacity="1" fill-rule="nonzero"/><path fill="#b4d7f7" d="M 97.390625 299.703125 L 90.113281 322.558594 L 55.894531 322.558594 L 61.71875 299.703125 L 97.390625 299.703125 " fill-opacity="1" fill-rule="nonzero"/><path fill="#ff9c8a" d="M 46.03125 286.9375 L 54.789062 276.21875 L 58.101562 281.734375 L 53.84375 291.429688 C 53.84375 291.429688 52.183594 292.847656 49.820312 291.191406 C 47.453125 289.535156 46.03125 286.9375 46.03125 286.9375 " fill-opacity="1" fill-rule="nonzero"/><path fill="#449beb" d="M 101.90625 405.808594 C 99.277344 405.167969 94.382812 404.527344 92.46875 403.246094 C 90.558594 401.964844 88.886719 402.445312 88.886719 402.445312 C 88.886719 402.445312 89.128906 403.566406 87.21875 403.886719 C 85.304688 404.207031 84.585938 402.445312 84.585938 402.445312 L 84.21875 407.730469 L 103.714844 407.730469 C 103.609375 406.949219 103.175781 406.121094 101.90625 405.808594 " fill-opacity="1" fill-rule="nonzero"/><path fill="#4a7eb2" d="M 84.21875 407.730469 L 84.109375 409.332031 L 103.578125 409.332031 C 103.578125 409.332031 103.832031 408.5625 103.714844 407.730469 L 84.21875 407.730469 " fill-opacity="1" fill-rule="nonzero"/><path fill="#449beb" d="M 128.8125 405.730469 C 126.179688 405.089844 121.285156 404.449219 119.371094 403.167969 C 117.460938 401.886719 115.789062 402.367188 115.789062 402.367188 C 115.789062 402.367188 116.027344 403.488281 114.117188 403.808594 C 112.207031 404.128906 111.488281 402.367188 111.488281 402.367188 L 111.125 407.652344 L 130.617188 407.652344 C 130.511719 406.875 130.082031 406.039062 128.8125 405.730469 " fill-opacity="1" fill-rule="nonzero"/><path fill="#4a7eb2" d="M 111.125 407.652344 L 111.011719 409.253906 L 130.480469 409.253906 C 130.480469 409.253906 130.734375 408.484375 130.617188 407.652344 L 111.125 407.652344 " fill-opacity="1" fill-rule="nonzero"/><path fill="#f287b7" d="M 55.855469 272.277344 C 55.855469 272.277344 54.316406 269.558594 53.25 270.980469 C 52.183594 272.398438 53.015625 273.816406 53.726562 274.527344 C 54.433594 275.234375 54.789062 275.46875 54.789062 275.46875 L 55.855469 272.277344 " fill-opacity="1" fill-rule="nonzero"/><path fill="#ff5e57" d="M 57.15625 283.863281 L 56.328125 285.753906 C 56.328125 285.753906 55.160156 284.160156 54.550781 281.261719 C 54.078125 279.015625 54.316406 277.363281 54.316406 277.363281 L 57.15625 283.863281 " fill-opacity="1" fill-rule="nonzero"/><path fill="#ff9c8a" d="M 59.652344 285.652344 C 57.027344 285.304688 52.6875 277.832031 53.9375 272.019531 C 55.179688 266.207031 58.894531 263.113281 63.050781 264.425781 C 68.265625 266.074219 69.84375 271.464844 68.257812 276.453125 C 66.667969 281.449219 62.988281 286.097656 59.652344 285.652344 " fill-opacity="1" fill-rule="nonzero"/><path fill="#ffd881" d="M 68.582031 281.972656 C 68.582031 281.972656 67.367188 279.453125 68.210938 277.953125 C 69.054688 276.453125 69.824219 274.882812 67.964844 272.75 C 66.105469 270.625 64.367188 270.152344 63.25 268.617188 C 62.132812 267.078125 56.792969 273.9375 55.261719 271.453125 C 54.316406 269.914062 54.320312 272.632812 54.320312 274.761719 C 54.320312 276.890625 54.195312 277.832031 53.699219 277.363281 C 53.203125 276.890625 49.480469 268.496094 53.453125 264.949219 C 57.421875 261.402344 59.03125 262.820312 59.03125 262.820312 C 59.03125 262.820312 58.097656 261.589844 58.246094 260.144531 C 58.417969 258.488281 59.804688 256.605469 62.382812 256.792969 C 67.21875 257.148438 67.746094 260.207031 67.097656 261.757812 C 66.1875 263.925781 65.113281 263.648438 65.113281 263.648438 C 65.113281 263.648438 67.714844 262.351562 70.195312 264.121094 C 72.675781 265.898438 72.800781 270.152344 71.3125 272.871094 C 69.824219 275.589844 70.691406 275.707031 70.074219 276.773438 C 69.449219 277.832031 68.957031 279.253906 68.957031 279.964844 C 68.957031 280.671875 68.582031 281.972656 68.582031 281.972656 " fill-opacity="1" fill-rule="nonzero"/><path fill="#ff5e57" d="M 63.210938 281.378906 L 64.71875 276.605469 L 64.269531 276.464844 L 62.9375 280.675781 L 61.535156 279.878906 L 61.296875 280.285156 L 63.210938 281.378906 " fill-opacity="1" fill-rule="nonzero"/><path fill="#ff5e57" d="M 62.789062 275.546875 L 63.238281 275.394531 C 63.226562 275.363281 62.964844 274.597656 62.1875 274.140625 C 61.296875 273.628906 60.808594 273.75 60.757812 273.765625 L 60.890625 274.21875 C 60.894531 274.222656 61.25 274.148438 61.945312 274.554688 C 62.574219 274.917969 62.789062 275.539062 62.789062 275.546875 " fill-opacity="1" fill-rule="nonzero"/><path fill="#ff5e57" d="M 67.039062 277.71875 L 67.511719 277.71875 C 67.511719 277.699219 67.503906 277.199219 67.085938 276.78125 C 66.660156 276.359375 65.746094 276.464844 65.644531 276.480469 L 65.707031 276.945312 C 66.007812 276.90625 66.554688 276.917969 66.753906 277.113281 C 67.027344 277.390625 67.039062 277.707031 67.039062 277.71875 " fill-opacity="1" fill-rule="nonzero"/><path fill="#ff5e57" d="M 61.335938 283.566406 C 61.695312 283.566406 61.933594 283.425781 61.953125 283.414062 L 61.710938 283.011719 L 61.832031 283.214844 L 61.710938 283.011719 C 61.691406 283.019531 61.234375 283.269531 60.671875 282.847656 C 59.855469 282.234375 60.035156 281.597656 60.046875 281.570312 L 59.59375 281.425781 C 59.582031 281.464844 59.285156 282.402344 60.386719 283.226562 C 60.738281 283.488281 61.070312 283.566406 61.335938 283.566406 " fill-opacity="1" fill-rule="nonzero"/><path fill="#ffffff" d="M 56.238281 317.972656 L 56.335938 317.511719 C 56.226562 317.488281 45.429688 315.226562 38.546875 314.914062 C 36.039062 314.800781 34.058594 314.851562 32.613281 314.886719 C 31.160156 314.921875 29.90625 314.957031 29.769531 314.722656 C 29.765625 314.714844 29.722656 314.625 29.902344 314.324219 C 30.191406 313.851562 31.039062 312.800781 32.117188 311.476562 C 34.523438 308.511719 38.164062 304.03125 39.699219 300.746094 L 39.269531 300.550781 C 37.761719 303.78125 34.140625 308.234375 31.75 311.179688 C 30.660156 312.519531 29.800781 313.578125 29.496094 314.082031 C 29.355469 314.316406 29.1875 314.667969 29.359375 314.960938 C 29.636719 315.433594 30.574219 315.410156 32.625 315.359375 C 34.0625 315.324219 36.035156 315.273438 38.527344 315.386719 C 45.371094 315.695312 56.128906 317.949219 56.238281 317.972656 " fill-opacity="1" fill-rule="nonzero"/><path fill="#c3dff9" d="M 501.226562 411.617188 L 411.796875 411.617188 L 411.796875 285.707031 L 501.226562 285.707031 L 501.226562 411.617188 " fill-opacity="1" fill-rule="nonzero"/><path fill="#ffffff" d="M 421.78125 403.21875 L 492.144531 403.21875 L 492.144531 355.203125 L 421.78125 355.203125 Z M 492.902344 403.976562 L 421.019531 403.976562 L 421.019531 354.445312 L 492.902344 354.445312 L 492.902344 403.976562 " fill-opacity="1" fill-rule="nonzero"/><path fill="#ffffff" d="M 456.960938 362.128906 C 456.308594 362.128906 455.777344 362.65625 455.777344 363.3125 C 455.777344 363.964844 456.308594 364.496094 456.960938 364.496094 C 457.617188 364.496094 458.148438 363.964844 458.148438 363.3125 C 458.148438 362.65625 457.617188 362.128906 456.960938 362.128906 Z M 456.960938 365.253906 C 455.890625 365.253906 455.019531 364.382812 455.019531 363.3125 C 455.019531 362.242188 455.890625 361.371094 456.960938 361.371094 C 458.035156 361.371094 458.90625 362.242188 458.90625 363.3125 C 458.90625 364.382812 458.035156 365.253906 456.960938 365.253906 " fill-opacity="1" fill-rule="nonzero"/><path fill="#ffffff" d="M 421.78125 349.132812 L 492.144531 349.132812 L 492.144531 327.378906 L 421.78125 327.378906 Z M 492.902344 349.890625 L 421.019531 349.890625 L 421.019531 326.621094 L 492.902344 326.621094 L 492.902344 349.890625 " fill-opacity="1" fill-rule="nonzero"/><path fill="#ffffff" d="M 456.960938 334.304688 C 456.308594 334.304688 455.777344 334.835938 455.777344 335.484375 C 455.777344 336.140625 456.308594 336.671875 456.960938 336.671875 C 457.617188 336.671875 458.148438 336.140625 458.148438 335.484375 C 458.148438 334.835938 457.617188 334.304688 456.960938 334.304688 Z M 456.960938 337.429688 C 455.890625 337.429688 455.019531 336.558594 455.019531 335.484375 C 455.019531 334.414062 455.890625 333.546875 456.960938 333.546875 C 458.035156 333.546875 458.90625 334.414062 458.90625 335.484375 C 458.90625 336.558594 458.035156 337.429688 456.960938 337.429688 " fill-opacity="1" fill-rule="nonzero"/><path fill="#ffffff" d="M 421.78125 321.933594 L 492.144531 321.933594 L 492.144531 300.179688 L 421.78125 300.179688 Z M 492.902344 322.6875 L 421.019531 322.6875 L 421.019531 299.421875 L 492.902344 299.421875 L 492.902344 322.6875 " fill-opacity="1" fill-rule="nonzero"/><path fill="#ffffff" d="M 456.960938 307.101562 C 456.308594 307.101562 455.777344 307.632812 455.777344 308.285156 C 455.777344 308.9375 456.308594 309.472656 456.960938 309.472656 C 457.617188 309.472656 458.148438 308.9375 458.148438 308.285156 C 458.148438 307.632812 457.617188 307.101562 456.960938 307.101562 Z M 456.960938 310.230469 C 455.890625 310.230469 455.019531 309.355469 455.019531 308.285156 C 455.019531 307.214844 455.890625 306.34375 456.960938 306.34375 C 458.035156 306.34375 458.90625 307.214844 458.90625 308.285156 C 458.90625 309.355469 458.035156 310.230469 456.960938 310.230469 " fill-opacity="1" fill-rule="nonzero"/><path fill="#ff9c8a" d="M 236.492188 309.046875 C 236.492188 309.046875 236.355469 311.039062 236.355469 311.976562 C 236.355469 312.914062 236.355469 315.726562 236.824219 316.667969 C 237.292969 317.605469 237.644531 318.425781 237.878906 317.488281 C 238.117188 316.550781 237.644531 312.214844 238.585938 313.386719 C 239.523438 314.558594 240.816406 316.902344 240.347656 318.3125 C 239.875 319.714844 239.171875 320.890625 239.875 321.589844 C 240.582031 322.296875 242.695312 319.25 243.164062 317.371094 C 243.632812 315.496094 242.457031 312.214844 241.753906 310.804688 C 241.050781 309.402344 240.433594 308.132812 240.433594 308.132812 L 236.492188 309.046875 " fill-opacity="1" fill-rule="nonzero"/><path fill="#ff9c8a" d="M 123.621094 239.167969 C 123.15625 238.582031 122.101562 239.167969 121.164062 238.230469 C 120.230469 237.296875 119.0625 236.480469 119.175781 238.582031 C 119.296875 240.683594 118.125 243.605469 119.878906 245.007812 C 121.632812 246.40625 122.335938 246.992188 123.035156 248.042969 C 123.738281 249.089844 124.085938 249.589844 124.085938 249.589844 L 126.777344 244.886719 C 126.777344 244.886719 125.375 243.371094 124.671875 241.734375 C 123.972656 240.097656 123.621094 239.167969 123.621094 239.167969 " fill-opacity="1" fill-rule="nonzero"/><path fill="#ff9c8a" d="M 230.898438 400.234375 L 233.679688 406.789062 L 238.65625 406.574219 L 236.632812 400.5 L 230.898438 400.234375 " fill-opacity="1" fill-rule="nonzero"/><path fill="#ff9c8a" d="M 187.734375 401.5 L 188.453125 406.65625 L 193.160156 406.820312 L 192.734375 401.039062 L 187.734375 401.5 " fill-opacity="1" fill-rule="nonzero"/><path fill="#515151" d="M 175.53125 302.226562 C 175.53125 302.226562 171.792969 328.863281 176.441406 354.949219 C 181.09375 381.035156 184.886719 403.085938 184.886719 403.085938 L 192.898438 403.085938 L 195.640625 322.785156 C 195.640625 322.785156 198.160156 338.070312 211.839844 365.445312 C 226.011719 393.808594 230.921875 402.132812 230.921875 402.132812 L 238.792969 402.132812 C 238.792969 402.132812 228.671875 364.238281 221.875 340.300781 C 215.078125 316.355469 212.941406 301.296875 212.941406 301.296875 L 175.53125 302.226562 " fill-opacity="1" fill-rule="nonzero"/><path fill="#80dccb" d="M 232.722656 404.476562 L 232.203125 410.046875 L 253.355469 410.046875 C 253.355469 410.046875 254.394531 407.714844 251.539062 407.195312 C 248.683594 406.675781 243.363281 406.15625 241.285156 405.121094 C 239.210938 404.085938 237.394531 404.476562 237.394531 404.476562 C 237.394531 404.476562 237.652344 405.378906 235.578125 405.640625 C 233.5 405.902344 232.722656 404.476562 232.722656 404.476562 " fill-opacity="1" fill-rule="nonzero"/><path fill="#ffffff" d="M 233.421875 408.984375 L 232.722656 408.984375 C 232.59375 408.984375 232.488281 408.878906 232.488281 408.75 C 232.488281 408.621094 232.59375 408.519531 232.722656 408.519531 L 233.421875 408.519531 C 233.554688 408.519531 233.65625 408.621094 233.65625 408.75 C 233.65625 408.878906 233.554688 408.984375 233.421875 408.984375 " fill-opacity="1" fill-rule="nonzero"/><path fill="#ffffff" d="M 236.351562 408.984375 L 234.886719 408.984375 C 234.757812 408.984375 234.65625 408.878906 234.65625 408.75 C 234.65625 408.621094 234.757812 408.519531 234.886719 408.519531 L 236.351562 408.519531 C 236.480469 408.519531 236.585938 408.621094 236.585938 408.75 C 236.585938 408.878906 236.480469 408.984375 236.351562 408.984375 Z M 239.28125 408.984375 L 237.816406 408.984375 C 237.6875 408.984375 237.582031 408.878906 237.582031 408.75 C 237.582031 408.621094 237.6875 408.519531 237.816406 408.519531 L 239.28125 408.519531 C 239.410156 408.519531 239.515625 408.621094 239.515625 408.75 C 239.515625 408.878906 239.410156 408.984375 239.28125 408.984375 Z M 242.210938 408.984375 L 240.742188 408.984375 C 240.617188 408.984375 240.511719 408.878906 240.511719 408.75 C 240.511719 408.621094 240.617188 408.519531 240.742188 408.519531 L 242.210938 408.519531 C 242.339844 408.519531 242.441406 408.621094 242.441406 408.75 C 242.441406 408.878906 242.339844 408.984375 242.210938 408.984375 Z M 245.136719 408.984375 L 243.671875 408.984375 C 243.546875 408.984375 243.4375 408.878906 243.4375 408.75 C 243.4375 408.621094 243.546875 408.519531 243.671875 408.519531 L 245.136719 408.519531 C 245.265625 408.519531 245.371094 408.621094 245.371094 408.75 C 245.371094 408.878906 245.265625 408.984375 245.136719 408.984375 Z M 248.066406 408.984375 L 246.601562 408.984375 C 246.472656 408.984375 246.367188 408.878906 246.367188 408.75 C 246.367188 408.621094 246.472656 408.519531 246.601562 408.519531 L 248.066406 408.519531 C 248.195312 408.519531 248.296875 408.621094 248.296875 408.75 C 248.296875 408.878906 248.195312 408.984375 248.066406 408.984375 Z M 250.996094 408.984375 L 249.53125 408.984375 C 249.398438 408.984375 249.296875 408.878906 249.296875 408.75 C 249.296875 408.621094 249.398438 408.519531 249.53125 408.519531 L 250.996094 408.519531 C 251.125 408.519531 251.230469 408.621094 251.230469 408.75 C 251.230469 408.878906 251.125 408.984375 250.996094 408.984375 " fill-opacity="1" fill-rule="nonzero"/><path fill="#ffffff" d="M 253.160156 408.984375 L 252.460938 408.984375 C 252.328125 408.984375 252.226562 408.878906 252.226562 408.75 C 252.226562 408.621094 252.328125 408.519531 252.460938 408.519531 L 253.160156 408.519531 C 253.289062 408.519531 253.394531 408.621094 253.394531 408.75 C 253.394531 408.878906 253.289062 408.984375 253.160156 408.984375 " fill-opacity="1" fill-rule="nonzero"/><path fill="#80dccb" d="M 193.160156 404.238281 L 193.675781 409.8125 L 172.527344 409.8125 C 172.527344 409.8125 171.484375 407.480469 174.339844 406.960938 C 177.195312 406.441406 182.519531 405.925781 184.59375 404.890625 C 186.667969 403.851562 188.488281 404.238281 188.488281 404.238281 C 188.488281 404.238281 188.226562 405.144531 190.304688 405.40625 C 192.378906 405.664062 193.160156 404.238281 193.160156 404.238281 " fill-opacity="1" fill-rule="nonzero"/><path fill="#ffffff" d="M 193.160156 408.75 L 192.457031 408.75 C 192.324219 408.75 192.222656 408.644531 192.222656 408.519531 C 192.222656 408.386719 192.324219 408.28125 192.457031 408.28125 L 193.160156 408.28125 C 193.289062 408.28125 193.390625 408.386719 193.390625 408.519531 C 193.390625 408.644531 193.289062 408.75 193.160156 408.75 " fill-opacity="1" fill-rule="nonzero"/><path fill="#ffffff" d="M 176.347656 408.75 L 174.886719 408.75 C 174.753906 408.75 174.652344 408.644531 174.652344 408.519531 C 174.652344 408.386719 174.753906 408.28125 174.886719 408.28125 L 176.347656 408.28125 C 176.480469 408.28125 176.582031 408.386719 176.582031 408.519531 C 176.582031 408.644531 176.480469 408.75 176.347656 408.75 Z M 179.277344 408.75 L 177.816406 408.75 C 177.683594 408.75 177.582031 408.644531 177.582031 408.519531 C 177.582031 408.386719 177.683594 408.28125 177.816406 408.28125 L 179.277344 408.28125 C 179.40625 408.28125 179.511719 408.386719 179.511719 408.519531 C 179.511719 408.644531 179.40625 408.75 179.277344 408.75 Z M 182.207031 408.75 L 180.742188 408.75 C 180.613281 408.75 180.507812 408.644531 180.507812 408.519531 C 180.507812 408.386719 180.613281 408.28125 180.742188 408.28125 L 182.207031 408.28125 C 182.335938 408.28125 182.441406 408.386719 182.441406 408.519531 C 182.441406 408.644531 182.335938 408.75 182.207031 408.75 Z M 185.136719 408.75 L 183.667969 408.75 C 183.542969 408.75 183.4375 408.644531 183.4375 408.519531 C 183.4375 408.386719 183.542969 408.28125 183.667969 408.28125 L 185.136719 408.28125 C 185.265625 408.28125 185.371094 408.386719 185.371094 408.519531 C 185.371094 408.644531 185.265625 408.75 185.136719 408.75 Z M 188.066406 408.75 L 186.597656 408.75 C 186.472656 408.75 186.363281 408.644531 186.363281 408.519531 C 186.363281 408.386719 186.472656 408.28125 186.597656 408.28125 L 188.066406 408.28125 C 188.195312 408.28125 188.296875 408.386719 188.296875 408.519531 C 188.296875 408.644531 188.195312 408.75 188.066406 408.75 Z M 190.992188 408.75 L 189.527344 408.75 C 189.398438 408.75 189.292969 408.644531 189.292969 408.519531 C 189.292969 408.386719 189.398438 408.28125 189.527344 408.28125 L 190.992188 408.28125 C 191.121094 408.28125 191.226562 408.386719 191.226562 408.519531 C 191.226562 408.644531 191.121094 408.75 190.992188 408.75 " fill-opacity="1" fill-rule="nonzero"/><path fill="#ffffff" d="M 173.421875 408.75 L 172.722656 408.75 C 172.589844 408.75 172.488281 408.644531 172.488281 408.519531 C 172.488281 408.386719 172.589844 408.28125 172.722656 408.28125 L 173.421875 408.28125 C 173.550781 408.28125 173.652344 408.386719 173.652344 408.519531 C 173.652344 408.644531 173.550781 408.75 173.421875 408.75 " fill-opacity="1" fill-rule="nonzero"/><path fill="#ff9c8a" d="M 150.523438 253.40625 C 137.394531 252.277344 126.777344 244.886719 126.777344 244.886719 L 124.085938 249.589844 C 124.085938 249.589844 131.257812 258.925781 146.042969 265.722656 C 148.734375 266.957031 151.320312 267.449219 153.785156 267.457031 L 153.785156 253.382812 C 152.714844 253.488281 151.636719 253.503906 150.523438 253.40625 " fill-opacity="1" fill-rule="nonzero"/><path fill="#37b27f" d="M 197.542969 239.078125 C 190.5625 238.765625 185.929688 239.417969 180.101562 241.25 C 169.65625 244.53125 162.238281 251.726562 153.785156 252.632812 L 153.785156 268.390625 C 164.878906 268.4375 173.410156 257.527344 176.710938 262.195312 L 173.964844 304.246094 C 173.964844 304.246094 180.179688 307.925781 192.726562 307.449219 C 205.273438 306.972656 213.335938 307.121094 214.230469 303.792969 C 215.128906 300.464844 210.570312 273.101562 209.226562 265.023438 C 207.882812 256.941406 213.898438 269.957031 219.488281 281.207031 C 219.992188 282.21875 220.5 283.203125 221 284.164062 L 232.539062 275.519531 C 225.039062 254.597656 217.972656 240 197.542969 239.078125 " fill-opacity="1" fill-rule="nonzero"/><path fill="#ff9c8a" d="M 240.386719 308.671875 C 240.386719 308.671875 238.144531 297.492188 232.269531 277.820312 C 232.070312 277.164062 231.875 276.515625 231.679688 275.871094 L 221.933594 284.511719 C 229.359375 301.273438 236.460938 309.585938 236.460938 309.585938 L 240.386719 308.671875 " fill-opacity="1" fill-rule="nonzero"/><path fill="#ff9c8a" d="M 188.117188 241.167969 C 188.117188 241.167969 189.632812 237.328125 190.039062 234.292969 C 190.445312 231.261719 190.847656 229.242188 190.847656 229.242188 L 195.90625 229.242188 C 195.90625 229.242188 195.90625 230.65625 196.511719 234.09375 C 197.121094 237.527344 199.042969 241.972656 199.042969 241.972656 C 199.042969 241.972656 198.132812 245.410156 193.074219 245.613281 C 187.398438 245.835938 188.117188 241.167969 188.117188 241.167969 " fill-opacity="1" fill-rule="nonzero"/><path fill="#80dccb" d="M 156.699219 266.777344 C 156.664062 268.257812 155.175781 269.421875 153.363281 269.382812 C 151.558594 269.34375 150.117188 268.113281 150.152344 266.636719 L 150.441406 253.449219 C 150.472656 251.972656 151.96875 250.808594 153.773438 250.847656 C 155.578125 250.882812 157.019531 252.113281 156.988281 253.59375 L 156.699219 266.777344 " fill-opacity="1" fill-rule="nonzero"/><path fill="#80dccb" d="M 228.90625 271.007812 C 230.035156 270.09375 231.871094 270.496094 233.007812 271.898438 C 234.144531 273.300781 234.152344 275.175781 233.027344 276.089844 L 222.960938 284.226562 C 221.832031 285.136719 219.996094 284.738281 218.859375 283.332031 C 217.722656 281.929688 217.714844 280.050781 218.84375 279.140625 L 228.90625 271.007812 " fill-opacity="1" fill-rule="nonzero"/><path fill="#37b27f" d="M 187.6875 240.097656 L 192.597656 245.472656 L 199.144531 240.21875 L 202.070312 245.007812 L 189.207031 250.84375 L 187.6875 240.097656 " fill-opacity="1" fill-rule="nonzero"/><path fill="#dd4a36" d="M 190.378906 231.75 C 190.378906 231.75 190.507812 233.953125 192.363281 233.734375 C 194.371094 233.5 196.109375 230.929688 196.109375 230.929688 L 190.378906 231.75 " fill-opacity="1" fill-rule="nonzero"/><path fill="#515151" d="M 184.46875 214.585938 C 184.46875 214.585938 183.484375 216.980469 184.46875 220.214844 C 185.453125 223.449219 186.71875 223.730469 186.71875 223.730469 L 188.972656 215.292969 L 184.46875 214.585938 " fill-opacity="1" fill-rule="nonzero"/><path fill="#ff9c8a" d="M 192.179688 232.304688 C 196.535156 232.546875 202.09375 226.570312 202.292969 219.898438 C 202.5 213.230469 199.195312 208.867188 194.203125 209.191406 C 187.929688 209.59375 184.695312 215.050781 185.101562 220.910156 C 185.503906 226.785156 188.320312 232.089844 192.179688 232.304688 " fill-opacity="1" fill-rule="nonzero"/><path fill="#515151" d="M 199.042969 209.574219 C 199.042969 209.574219 198.570312 211.308594 195.054688 213.136719 C 192.140625 214.652344 187.777344 215.246094 187.777344 215.246094 L 189.042969 213.183594 C 189.042969 213.183594 187.589844 215.058594 185.433594 215.621094 C 183.117188 216.226562 181.535156 214.875 181.535156 214.875 C 181.535156 214.875 183.507812 213.699219 186.507812 210.183594 C 190.316406 205.730469 193.175781 204.605469 195.992188 205.449219 C 198.808594 206.292969 199.042969 209.574219 199.042969 209.574219 " fill-opacity="1" fill-rule="nonzero"/><path fill="#515151" d="M 196.980469 212.195312 C 196.980469 212.195312 197.683594 214.304688 200.078125 216.558594 C 202.46875 218.808594 201.136719 223.300781 202.226562 223.128906 C 204.175781 222.816406 205.285156 217.679688 203.738281 213.039062 C 202.1875 208.398438 199.371094 206.289062 197.402344 207.273438 C 194.164062 208.890625 196.980469 212.195312 196.980469 212.195312 " fill-opacity="1" fill-rule="nonzero"/><path fill="#ff9c8a" d="M 201.90625 220.144531 C 201.90625 220.144531 203.527344 218.59375 204.160156 220.074219 C 204.792969 221.550781 203.667969 224.574219 202.121094 224.644531 C 200.566406 224.714844 200.078125 223.871094 200.078125 223.871094 L 201.90625 220.144531 " fill-opacity="1" fill-rule="nonzero"/><path fill="#dd4a36" d="M 191.324219 224.542969 L 191.429688 220.242188 L 191.898438 220.253906 L 191.804688 224.035156 L 193.371094 223.90625 L 193.410156 224.371094 L 191.324219 224.542969 " fill-opacity="1" fill-rule="nonzero"/><path fill="#dd4a36" d="M 195.03125 219.007812 C 194.886719 219.007812 194.769531 219.09375 194.769531 219.195312 C 194.769531 219.296875 194.886719 219.386719 195.03125 219.386719 C 195.167969 219.386719 195.289062 219.296875 195.289062 219.195312 C 195.289062 219.09375 195.167969 219.007812 195.03125 219.007812 Z M 195.03125 219.851562 C 194.628906 219.851562 194.300781 219.558594 194.300781 219.195312 C 194.300781 218.835938 194.628906 218.539062 195.03125 218.539062 C 195.429688 218.539062 195.753906 218.835938 195.753906 219.195312 C 195.753906 219.558594 195.429688 219.851562 195.03125 219.851562 " fill-opacity="1" fill-rule="nonzero"/><path fill="#dd4a36" d="M 188.363281 219.179688 C 188.222656 219.179688 188.105469 219.269531 188.105469 219.371094 C 188.105469 219.472656 188.222656 219.558594 188.363281 219.558594 C 188.503906 219.558594 188.625 219.472656 188.625 219.371094 C 188.625 219.269531 188.503906 219.179688 188.363281 219.179688 Z M 188.363281 220.027344 C 187.964844 220.027344 187.636719 219.730469 187.636719 219.371094 C 187.636719 219.007812 187.964844 218.714844 188.363281 218.714844 C 188.765625 218.714844 189.09375 219.007812 189.09375 219.371094 C 189.09375 219.730469 188.765625 220.027344 188.363281 220.027344 " fill-opacity="1" fill-rule="nonzero"/><path fill="#dd4a36" d="M 187.101562 217.949219 L 186.753906 217.640625 C 186.777344 217.613281 187.304688 217.035156 188.625 217.035156 C 189.632812 217.035156 190.023438 217.351562 190.0625 217.386719 L 189.753906 217.738281 C 189.753906 217.738281 189.449219 217.5 188.625 217.5 C 187.535156 217.5 187.105469 217.949219 187.101562 217.949219 " fill-opacity="1" fill-rule="nonzero"/><path fill="#dd4a36" d="M 193.765625 217.777344 L 193.417969 217.464844 C 193.441406 217.4375 193.96875 216.859375 195.289062 216.859375 C 196.296875 216.859375 196.6875 217.175781 196.730469 217.210938 L 196.421875 217.558594 C 196.421875 217.558594 196.113281 217.328125 195.289062 217.328125 C 194.199219 217.328125 193.769531 217.773438 193.765625 217.777344 " fill-opacity="1" fill-rule="nonzero"/><path fill="#dd4a36" d="M 191.410156 228.25 C 191.386719 228.25 191.371094 228.246094 191.367188 228.246094 L 191.378906 227.78125 C 191.386719 227.777344 192.375 227.796875 193.070312 227.402344 C 193.796875 226.984375 194.011719 226.316406 194.015625 226.308594 L 194.460938 226.445312 C 194.449219 226.480469 194.1875 227.296875 193.300781 227.808594 C 192.570312 228.222656 191.628906 228.25 191.410156 228.25 " fill-opacity="1" fill-rule="nonzero"/><path fill="#ff9c8a" d="M 236.460938 309.585938 C 236.460938 309.585938 236.324219 311.570312 236.324219 312.507812 C 236.324219 313.441406 236.324219 316.242188 236.792969 317.179688 C 237.261719 318.113281 237.609375 318.929688 237.84375 317.996094 C 238.078125 317.058594 237.609375 312.738281 238.546875 313.90625 C 239.480469 315.074219 240.765625 317.410156 240.300781 318.8125 C 239.832031 320.214844 239.128906 321.382812 239.832031 322.082031 C 240.53125 322.785156 242.640625 319.746094 243.105469 317.875 C 243.574219 316.007812 242.40625 312.738281 241.703125 311.339844 C 241 309.9375 240.386719 308.671875 240.386719 308.671875 L 236.460938 309.585938 " fill-opacity="1" fill-rule="nonzero"/><path fill="#449beb" d="M 119.542969 234.140625 C 119.542969 234.140625 119.566406 231.699219 119.996094 231.574219 C 120.425781 231.445312 121.511719 233.5625 121.511719 233.5625 L 119.542969 234.140625 " fill-opacity="1" fill-rule="nonzero"/><path fill="#c4c8cc" d="M 124.699219 244.027344 L 122.53125 244.664062 L 119.34375 233.832031 L 121.515625 233.195312 L 124.699219 244.027344 " fill-opacity="1" fill-rule="nonzero"/><path fill="#ff9c8a" d="M 120.230469 238.816406 C 119.996094 239.632812 122.21875 240.683594 123.15625 241.617188 C 124.085938 242.550781 125.84375 244.070312 125.84375 244.070312 C 125.84375 244.070312 125.960938 240.332031 124.789062 239.515625 C 123.621094 238.699219 120.460938 238 120.230469 238.816406 " fill-opacity="1" fill-rule="nonzero"/><path fill="#ffffff" d="M 192.597656 303.941406 L 192.367188 245.777344 L 184.667969 247.921875 L 187.46875 240.023438 L 187.910156 240.179688 L 185.40625 247.226562 L 192.832031 245.167969 L 192.832031 245.472656 L 193.066406 303.941406 L 192.597656 303.941406 " fill-opacity="1" fill-rule="nonzero"/><path fill="#ffffff" d="M 200.648438 248.234375 L 193.003906 245.835938 L 193.144531 245.390625 L 199.984375 247.535156 L 198.21875 240.78125 L 198.671875 240.664062 L 200.648438 248.234375 " fill-opacity="1" fill-rule="nonzero"/><path fill="#ffffff" d="M 189.71875 254.660156 C 189.5 254.660156 189.324219 254.832031 189.324219 255.046875 C 189.324219 255.261719 189.5 255.4375 189.71875 255.4375 C 189.929688 255.4375 190.105469 255.261719 190.105469 255.046875 C 190.105469 254.832031 189.929688 254.660156 189.71875 254.660156 Z M 189.71875 255.90625 C 189.242188 255.90625 188.859375 255.519531 188.859375 255.046875 C 188.859375 254.574219 189.242188 254.191406 189.71875 254.191406 C 190.1875 254.191406 190.574219 254.574219 190.574219 255.046875 C 190.574219 255.519531 190.1875 255.90625 189.71875 255.90625 " fill-opacity="1" fill-rule="nonzero"/><path fill="#ffffff" d="M 189.71875 264.316406 C 189.5 264.316406 189.324219 264.484375 189.324219 264.703125 C 189.324219 264.917969 189.5 265.089844 189.71875 265.089844 C 189.929688 265.089844 190.105469 264.917969 190.105469 264.703125 C 190.105469 264.484375 189.929688 264.316406 189.71875 264.316406 Z M 189.71875 265.558594 C 189.242188 265.558594 188.859375 265.175781 188.859375 264.703125 C 188.859375 264.230469 189.242188 263.847656 189.71875 263.847656 C 190.1875 263.847656 190.574219 264.230469 190.574219 264.703125 C 190.574219 265.175781 190.1875 265.558594 189.71875 265.558594 " fill-opacity="1" fill-rule="nonzero"/><path fill="#ffffff" d="M 189.71875 273.96875 C 189.5 273.96875 189.324219 274.140625 189.324219 274.359375 C 189.324219 274.570312 189.5 274.746094 189.71875 274.746094 C 189.929688 274.746094 190.105469 274.570312 190.105469 274.359375 C 190.105469 274.140625 189.929688 273.96875 189.71875 273.96875 Z M 189.71875 275.210938 C 189.242188 275.210938 188.859375 274.828125 188.859375 274.359375 C 188.859375 273.882812 189.242188 273.5 189.71875 273.5 C 190.1875 273.5 190.574219 273.882812 190.574219 274.359375 C 190.574219 274.828125 190.1875 275.210938 189.71875 275.210938 " fill-opacity="1" fill-rule="nonzero"/><path fill="#ffffff" d="M 189.71875 283.621094 C 189.5 283.621094 189.324219 283.792969 189.324219 284.011719 C 189.324219 284.226562 189.5 284.402344 189.71875 284.402344 C 189.929688 284.402344 190.105469 284.226562 190.105469 284.011719 C 190.105469 283.792969 189.929688 283.621094 189.71875 283.621094 Z M 189.71875 284.867188 C 189.242188 284.867188 188.859375 284.484375 188.859375 284.011719 C 188.859375 283.535156 189.242188 283.15625 189.71875 283.15625 C 190.1875 283.15625 190.574219 283.535156 190.574219 284.011719 C 190.574219 284.484375 190.1875 284.867188 189.71875 284.867188 " fill-opacity="1" fill-rule="nonzero"/><path fill="#ffffff" d="M 189.71875 293.277344 C 189.5 293.277344 189.324219 293.449219 189.324219 293.664062 C 189.324219 293.878906 189.5 294.054688 189.71875 294.054688 C 189.929688 294.054688 190.105469 293.878906 190.105469 293.664062 C 190.105469 293.449219 189.929688 293.277344 189.71875 293.277344 Z M 189.71875 294.519531 C 189.242188 294.519531 188.859375 294.136719 188.859375 293.664062 C 188.859375 293.191406 189.242188 292.808594 189.71875 292.808594 C 190.1875 292.808594 190.574219 293.191406 190.574219 293.664062 C 190.574219 294.136719 190.1875 294.519531 189.71875 294.519531 " fill-opacity="1" fill-rule="nonzero"/><path fill="#ff9c8a" d="M 387.238281 312.070312 C 393.8125 318.324219 369.164062 347.085938 358.523438 341.144531 C 347.882812 335.207031 339.667969 314.726562 331.527344 317.226562 L 325.191406 318.164062 L 320.730469 318.164062 C 320.730469 318.164062 325.265625 311.523438 334.34375 312.773438 C 343.421875 314.019531 352.8125 331.453125 360.949219 333.644531 C 369.085938 335.828125 382.113281 307.191406 387.238281 312.070312 " fill-opacity="1" fill-rule="nonzero"/><path fill="#eaab21" d="M 384.8125 321.210938 C 384.8125 320.511719 380.589844 315.820312 376.832031 318.871094 C 373.078125 321.917969 367.445312 328.71875 367.445312 328.71875 L 372.84375 334.34375 L 384.8125 321.210938 " fill-opacity="1" fill-rule="nonzero"/><path fill="#febead" d="M 256.675781 404.191406 C 256.675781 404.191406 257.160156 402.355469 258.53125 402.777344 C 259.902344 403.195312 267.039062 403.203125 268.535156 402.691406 C 270.03125 402.179688 271.25 400.207031 271.25 400.207031 L 279.71875 387.289062 L 283.953125 392.6875 C 283.953125 392.6875 275.171875 400.339844 274.492188 402.402344 C 273.808594 404.46875 273.796875 406.011719 273.796875 406.011719 L 256.675781 404.191406 " fill-opacity="1" fill-rule="nonzero"/><path fill="#3b3c3d" d="M 255.960938 404.210938 L 255.800781 405.378906 L 273.445312 407.746094 L 273.796875 406.011719 L 255.960938 404.210938 " fill-opacity="1" fill-rule="nonzero"/><path fill="#3b3c3d" d="M 259.648438 402.75 L 259.226562 404.691406 L 263.925781 405.121094 L 264.410156 402.695312 L 259.648438 402.75 " fill-opacity="1" fill-rule="nonzero"/><path fill="#2384cc" d="M 283.640625 393.199219 L 277.535156 387.335938 C 277.535156 387.335938 282.9375 379.367188 291.621094 371.628906 C 300.308594 363.890625 311.808594 358.730469 311.808594 358.730469 L 283.640625 393.199219 " fill-opacity="1" fill-rule="nonzero"/><path fill="#797e84" d="M 303.359375 321.683594 L 289.976562 287.917969 C 289.976562 287.917969 288.570312 288.621094 288.335938 290.496094 C 288.101562 292.375 301.480469 322.152344 301.480469 322.152344 L 303.359375 321.683594 " fill-opacity="1" fill-rule="nonzero"/><path fill="#febead" d="M 263.355469 408.453125 C 263.355469 408.453125 263.613281 406.570312 265.023438 406.828125 C 266.4375 407.078125 273.519531 406.226562 274.945312 405.535156 C 276.367188 404.851562 277.339844 402.742188 277.339844 402.742188 L 284.1875 388.898438 L 289.039062 393.75 C 289.039062 393.75 281.25 402.402344 280.824219 404.535156 C 280.394531 406.664062 280.570312 408.203125 280.570312 408.203125 L 263.355469 408.453125 " fill-opacity="1" fill-rule="nonzero"/><path fill="#515151" d="M 262.648438 408.558594 L 262.632812 409.742188 L 280.429688 409.964844 L 280.570312 408.203125 L 262.648438 408.558594 " fill-opacity="1" fill-rule="nonzero"/><path fill="#515151" d="M 266.125 406.667969 L 265.945312 408.644531 L 270.664062 408.503906 L 270.851562 406.035156 L 266.125 406.667969 " fill-opacity="1" fill-rule="nonzero"/><path fill="#dcdcdc" d="M 350.59375 393.355469 L 355.867188 393.355469 L 355.867188 366.3125 L 350.59375 366.3125 L 350.59375 393.355469 " fill-opacity="1" fill-rule="nonzero"/><path fill="#979797" d="M 355.601562 391.894531 C 355.601562 391.894531 374.871094 393.121094 381.378906 396.796875 C 387.699219 400.367188 387.132812 401.941406 387.132812 401.941406 L 379.375 401.941406 C 379.375 401.941406 375.96875 397.6875 368.382812 395.78125 C 360.765625 393.867188 355.226562 394.347656 355.226562 394.347656 L 355.601562 391.894531 " fill-opacity="1" fill-rule="nonzero"/><path fill="#515151" d="M 379.878906 407.210938 C 379.878906 409.445312 381.726562 411.253906 384.003906 411.253906 C 386.285156 411.253906 388.132812 409.445312 388.132812 407.210938 C 388.132812 404.980469 386.285156 403.171875 384.003906 403.171875 C 381.726562 403.171875 379.878906 404.980469 379.878906 407.210938 " fill-opacity="1" fill-rule="nonzero"/><path fill="#979797" d="M 350.855469 391.894531 C 350.855469 391.894531 331.585938 393.121094 325.082031 396.796875 C 318.761719 400.367188 319.324219 401.941406 319.324219 401.941406 L 327.082031 401.941406 C 327.082031 401.941406 331.035156 397.773438 338.023438 395.933594 C 344.863281 394.136719 351.230469 394.347656 351.230469 394.347656 L 350.855469 391.894531 " fill-opacity="1" fill-rule="nonzero"/><path fill="#515151" d="M 326.582031 407.210938 C 326.582031 409.445312 324.730469 411.253906 322.449219 411.253906 C 320.171875 411.253906 318.324219 409.445312 318.324219 407.210938 C 318.324219 404.980469 320.171875 403.171875 322.449219 403.171875 C 324.730469 403.171875 326.582031 404.980469 326.582031 407.210938 " fill-opacity="1" fill-rule="nonzero"/><path fill="#979797" d="M 355.601562 391.894531 C 355.839844 391.378906 354.800781 395.144531 355.144531 397.4375 C 355.703125 401.136719 356.40625 400.820312 356.585938 401.941406 L 349.597656 401.941406 C 349.597656 401.941406 350.796875 399.941406 351.035156 397.941406 C 351.242188 396.226562 350.855469 391.894531 350.855469 391.894531 L 355.601562 391.894531 " fill-opacity="1" fill-rule="nonzero"/><path fill="#515151" d="M 349.046875 407.210938 C 349.046875 409.445312 350.894531 411.253906 353.175781 411.253906 C 355.457031 411.253906 357.304688 409.445312 357.304688 407.210938 C 357.304688 404.980469 355.457031 403.171875 353.175781 403.171875 C 350.894531 403.171875 349.046875 404.980469 349.046875 407.210938 " fill-opacity="1" fill-rule="nonzero"/><path fill="#ffc93e" d="M 393.8125 307.535156 C 393.8125 307.535156 402.96875 327.78125 388.414062 347.476562 C 373.859375 367.171875 365.410156 365.296875 365.410156 365.296875 L 352.265625 346.539062 C 352.265625 346.539062 370.105469 341.847656 371.511719 332.9375 C 372.921875 324.027344 373.390625 320.273438 377.148438 316.992188 C 380.902344 313.710938 393.8125 307.535156 393.8125 307.535156 " fill-opacity="1" fill-rule="nonzero"/><path fill="#449beb" d="M 352.265625 346.539062 C 352.265625 346.539062 325.753906 346.519531 308.601562 360.140625 C 290.292969 374.675781 283.25 389.214844 283.25 389.214844 L 289.351562 395.308594 C 289.351562 395.308594 307.660156 371.394531 327.382812 369.050781 C 347.097656 366.703125 357.429688 367.171875 360.714844 366.234375 C 364 365.296875 365.410156 365.296875 365.410156 365.296875 L 352.265625 346.539062 " fill-opacity="1" fill-rule="nonzero"/><path fill="#4ad69d" d="M 414.394531 305.425781 C 408.445312 302.925781 376.832031 369.832031 376.832031 369.832031 C 376.832031 369.832031 359.929688 364.828125 347.722656 364.828125 C 335.515625 364.828125 326.753906 367.953125 328.632812 371.078125 C 330.507812 374.207031 342.40625 368.894531 357.429688 372.015625 C 372.449219 375.144531 378.710938 377.648438 378.710938 377.648438 C 378.710938 377.648438 385.597656 369.832031 399.371094 341.066406 C 407.828125 323.394531 420.339844 307.925781 414.394531 305.425781 " fill-opacity="1" fill-rule="nonzero"/><path fill="#febead" d="M 390.292969 315.117188 C 396.863281 321.371094 372.214844 350.136719 361.574219 344.191406 C 350.933594 338.253906 342.714844 317.773438 334.578125 320.273438 L 328.242188 321.210938 L 323.78125 321.210938 C 323.78125 321.210938 328.320312 314.570312 337.398438 315.820312 C 346.472656 317.070312 355.863281 334.5 364 336.691406 C 372.140625 338.878906 385.164062 310.238281 390.292969 315.117188 " fill-opacity="1" fill-rule="nonzero"/><path fill="#797e84" d="M 301.480469 324.308594 L 335.597656 324.308594 L 335.597656 320.246094 L 301.480469 320.246094 L 301.480469 324.308594 " fill-opacity="1" fill-rule="nonzero"/><path fill="#a0a5af" d="M 299.601562 322.277344 C 299.601562 323.394531 300.507812 324.300781 301.625 324.300781 C 302.746094 324.300781 303.652344 323.394531 303.652344 322.277344 C 303.652344 321.164062 302.746094 320.257812 301.625 320.257812 C 300.507812 320.257812 299.601562 321.164062 299.601562 322.277344 " fill-opacity="1" fill-rule="nonzero"/><path fill="#ffc93e" d="M 381.058594 340.679688 C 381.058594 340.679688 397.019531 320.824219 390.292969 315.117188 C 384.882812 310.53125 371.667969 331.296875 371.667969 331.296875 L 381.058594 340.679688 " fill-opacity="1" fill-rule="nonzero"/><path fill="#febead" d="M 393.09375 308.667969 L 389.839844 296.652344 L 384.261719 299.238281 C 384.261719 299.238281 384.605469 306.339844 383.710938 310.339844 C 382.820312 314.335938 382.820312 314.335938 382.820312 314.335938 C 382.820312 314.335938 383.246094 315.1875 386.691406 313.164062 C 390.140625 311.140625 393.09375 308.667969 393.09375 308.667969 " fill-opacity="1" fill-rule="nonzero"/><path fill="#f26b6b" d="M 389.195312 298.234375 C 389.195312 298.234375 387.164062 303.550781 385.753906 304.800781 C 384.347656 306.050781 384.347656 305.425781 384.347656 305.425781 L 384.5 302.144531 L 389.195312 298.234375 " fill-opacity="1" fill-rule="nonzero"/><path fill="#febead" d="M 381.292969 302.574219 C 379.90625 302.417969 379.070312 300.988281 378.445312 297.164062 C 378.339844 296.53125 377.378906 297.082031 377.304688 296.417969 C 377.171875 295.25 377.820312 292.507812 377.800781 291.316406 C 377.714844 285.199219 379.296875 279.386719 384.445312 280.375 C 394.625 282.332031 394.566406 288.808594 389.996094 296.761719 C 386.84375 302.246094 382.945312 302.757812 381.292969 302.574219 " fill-opacity="1" fill-rule="nonzero"/><path fill="#449beb" d="M 380.355469 279.003906 C 378.125 280.179688 377.734375 283.304688 377.261719 285.414062 C 376.792969 287.523438 381.996094 288.386719 383.992188 288.503906 C 385.988281 288.621094 386.613281 289.246094 386.613281 289.246094 C 386.613281 289.246094 387.472656 291.550781 388.453125 292.140625 C 389.449219 292.734375 389.160156 308.550781 389.160156 308.550781 C 389.160156 308.550781 396.667969 309.722656 400.070312 308.085938 C 403.476562 306.441406 400.855469 282.269531 395.023438 279.359375 C 388.921875 276.308594 385.398438 278.304688 385.398438 278.304688 C 385.398438 278.304688 382.585938 277.832031 380.355469 279.003906 " fill-opacity="1" fill-rule="nonzero"/><path fill="#febead" d="M 388.300781 292.105469 C 388.300781 292.105469 390.421875 290.71875 390.949219 292.125 C 391.480469 293.527344 390.28125 294.980469 389.191406 295.242188 C 388.105469 295.507812 387.851562 295.132812 387.851562 295.132812 L 388.300781 292.105469 " fill-opacity="1" fill-rule="nonzero"/><path fill="#f26b6b" d="M 380.191406 292.519531 C 380.527344 292.519531 380.789062 292.445312 380.808594 292.441406 L 380.683594 291.992188 C 380.675781 291.992188 380.058594 292.15625 379.597656 291.929688 C 379.191406 291.726562 378.949219 291.351562 378.949219 291.351562 L 378.550781 291.597656 C 378.5625 291.617188 378.859375 292.082031 379.386719 292.347656 C 379.652344 292.480469 379.941406 292.519531 380.191406 292.519531 " fill-opacity="1" fill-rule="nonzero"/><path fill="#ffffff" d="M 380.304688 298.175781 C 380.304688 298.175781 379.828125 298.675781 379.386719 298.734375 C 379.09375 298.773438 378.898438 298.703125 378.898438 298.703125 C 378.898438 298.703125 379.09375 300.023438 379.835938 299.40625 C 380.378906 298.957031 380.304688 298.175781 380.304688 298.175781 " fill-opacity="1" fill-rule="nonzero"/><path fill="#ffffff" d="M 379.171875 339.046875 L 379.5 338.710938 L 371.976562 331.269531 C 372.890625 329.976562 379.144531 321.304688 383.515625 318.957031 L 383.292969 318.542969 C 378.488281 321.121094 371.757812 330.753906 371.476562 331.160156 L 371.363281 331.324219 L 379.171875 339.046875 " fill-opacity="1" fill-rule="nonzero"/><path fill="#c6c9cf" d="M 301.941406 411.847656 L 304.328125 411.847656 L 307.359375 326.761719 L 298.910156 326.761719 L 301.941406 411.847656 " fill-opacity="1" fill-rule="nonzero"/><path fill="#c6c9cf" d="M 95.050781 411.847656 L 97.429688 411.847656 L 100.464844 326.761719 L 92.015625 326.761719 L 95.050781 411.847656 " fill-opacity="1" fill-rule="nonzero"/><path fill="#c6c9cf" d="M 65.859375 331.144531 L 333.515625 331.144531 L 337.308594 322.644531 L 62.066406 322.644531 L 65.859375 331.144531 " fill-opacity="1" fill-rule="nonzero"/><path fill="#8fc3f3" d="M 462.6875 261.4375 L 447.164062 261.4375 C 445.484375 261.4375 444.121094 262.800781 444.121094 264.480469 L 444.121094 264.515625 C 444.121094 266.195312 445.484375 267.558594 447.164062 267.558594 L 447.269531 267.558594 C 448.269531 267.558594 449.132812 268.265625 449.324219 269.242188 L 451.894531 282.222656 C 452.328125 284.417969 454.257812 286 456.496094 286 L 468.875 286 C 471.113281 286 473.039062 284.417969 473.476562 282.222656 L 476.046875 269.242188 C 476.242188 268.265625 477.101562 267.558594 478.101562 267.558594 L 478.203125 267.558594 C 479.886719 267.558594 481.25 266.195312 481.25 264.515625 L 481.25 264.480469 C 481.25 262.800781 479.886719 261.4375 478.203125 261.4375 L 462.6875 261.4375 " fill-opacity="1" fill-rule="nonzero"/><path fill="#c3dff9" d="M 493.238281 221.273438 C 490.105469 214.597656 474.964844 211.15625 465.253906 221.273438 C 464.722656 221.824219 464.242188 222.441406 463.8125 223.105469 C 464.625 213.316406 464.859375 199.578125 460.734375 193.335938 C 453.964844 183.085938 442.839844 186.414062 441.222656 193.335938 C 438.941406 203.066406 456.394531 213.945312 458.980469 230.9375 C 452.46875 227.117188 444.480469 229.445312 442.613281 233.425781 C 440.429688 238.082031 459.945312 248.507812 460.671875 261.4375 L 467.34375 261.4375 C 468.386719 242.890625 496.367188 227.945312 493.238281 221.273438 " fill-opacity="1" fill-rule="nonzero"/><path fill="#ffffff" d="M 472.957031 267.519531 L 459.628906 267.519531 C 459.453125 267.519531 459.308594 267.378906 459.308594 267.203125 C 459.308594 267.023438 459.453125 266.882812 459.628906 266.882812 L 472.957031 266.882812 C 473.132812 266.882812 473.277344 267.023438 473.277344 267.203125 C 473.277344 267.378906 473.132812 267.519531 472.957031 267.519531 " fill-opacity="1" fill-rule="nonzero"/><path fill="#ffffff" d="M 479.144531 227.050781 C 466.460938 234.683594 464.855469 261.183594 464.84375 261.449219 C 464.835938 261.566406 464.742188 261.652344 464.628906 261.652344 L 464.628906 261.761719 L 464.617188 261.652344 C 464.5 261.644531 464.410156 261.546875 464.414062 261.425781 C 464.429688 261.152344 464.828125 254.535156 466.769531 247.019531 C 468.589844 239.984375 472.179688 230.746094 478.925781 226.6875 C 478.960938 226.664062 479 226.652344 479.035156 226.652344 C 479.054688 226.652344 479.074219 226.65625 479.089844 226.664062 C 479.144531 226.675781 479.191406 226.710938 479.21875 226.761719 C 479.25 226.808594 479.257812 226.863281 479.242188 226.917969 C 479.230469 226.976562 479.195312 227.019531 479.144531 227.050781 " fill-opacity="1" fill-rule="nonzero"/><path fill="#ffffff" d="M 486.5 223.363281 C 484.300781 224.042969 481.949219 225.589844 481.683594 225.769531 C 481.589844 225.835938 481.453125 225.804688 481.386719 225.710938 C 481.324219 225.617188 481.347656 225.480469 481.445312 225.417969 C 481.546875 225.347656 484.019531 223.679688 486.371094 222.957031 C 486.394531 222.949219 486.417969 222.945312 486.4375 222.945312 C 486.53125 222.945312 486.613281 223.003906 486.640625 223.09375 C 486.675781 223.207031 486.613281 223.328125 486.5 223.363281 " fill-opacity="1" fill-rule="nonzero"/><path fill="#ffffff" d="M 461.746094 255.46875 C 461.761719 255.523438 461.757812 255.582031 461.730469 255.632812 C 461.703125 255.679688 461.660156 255.71875 461.601562 255.734375 C 461.492188 255.765625 461.371094 255.699219 461.339844 255.589844 C 459.933594 250.847656 459.984375 238.179688 459.984375 237.644531 C 459.984375 237.523438 460.082031 237.429688 460.203125 237.429688 C 460.316406 237.429688 460.414062 237.527344 460.410156 237.644531 C 460.410156 237.773438 460.347656 250.742188 461.746094 255.46875 " fill-opacity="1" fill-rule="nonzero"/><path fill="#ffffff" d="M 450.808594 195.714844 C 450.847656 195.679688 450.898438 195.660156 450.949219 195.660156 C 450.953125 195.660156 450.957031 195.660156 450.957031 195.660156 C 451.019531 195.660156 451.070312 195.6875 451.105469 195.726562 C 451.183594 195.8125 458.8125 204.273438 460.410156 222.503906 C 460.414062 222.5625 460.398438 222.617188 460.363281 222.660156 C 460.324219 222.703125 460.273438 222.730469 460.214844 222.734375 L 460.199219 222.84375 L 460.199219 222.738281 C 460.085938 222.738281 459.996094 222.652344 459.984375 222.542969 C 459.160156 213.109375 456.703125 206.402344 454.792969 202.4375 C 452.722656 198.140625 450.8125 196.035156 450.792969 196.015625 C 450.753906 195.972656 450.738281 195.917969 450.738281 195.863281 C 450.738281 195.804688 450.765625 195.753906 450.808594 195.714844 " fill-opacity="1" fill-rule="nonzero"/><path fill="#ffffff" d="M 456.308594 201.371094 L 459.507812 196.507812 C 459.550781 196.445312 459.617188 196.410156 459.6875 196.410156 C 459.726562 196.410156 459.769531 196.421875 459.804688 196.445312 C 459.902344 196.507812 459.929688 196.640625 459.863281 196.738281 L 456.664062 201.609375 C 456.601562 201.703125 456.464844 201.730469 456.367188 201.667969 C 456.269531 201.601562 456.242188 201.472656 456.308594 201.371094 " fill-opacity="1" fill-rule="nonzero"/><path fill="#ffffff" d="M 448.902344 203.222656 C 448.886719 203.167969 448.890625 203.113281 448.917969 203.0625 C 448.957031 202.988281 449.03125 202.945312 449.109375 202.945312 C 449.140625 202.945312 449.171875 202.953125 449.207031 202.96875 L 454.007812 205.472656 C 454.058594 205.5 454.09375 205.542969 454.113281 205.601562 C 454.128906 205.652344 454.125 205.710938 454.097656 205.757812 C 454.046875 205.859375 453.914062 205.902344 453.8125 205.851562 L 449.007812 203.347656 C 448.957031 203.320312 448.921875 203.277344 448.902344 203.222656 " fill-opacity="1" fill-rule="nonzero"/><path fill="#ffffff" d="M 456.867188 213.3125 L 453.527344 212.757812 C 453.46875 212.746094 453.417969 212.71875 453.386719 212.671875 C 453.355469 212.621094 453.34375 212.566406 453.351562 212.511719 C 453.371094 212.402344 453.457031 212.332031 453.5625 212.332031 C 453.574219 212.332031 453.585938 212.332031 453.597656 212.335938 L 456.9375 212.890625 C 456.996094 212.902344 457.042969 212.929688 457.078125 212.976562 C 457.109375 213.023438 457.121094 213.078125 457.113281 213.136719 C 457.09375 213.253906 456.972656 213.332031 456.867188 213.3125 " fill-opacity="1" fill-rule="nonzero"/><path fill="#ffffff" d="M 460.402344 211.058594 L 462.074219 207.859375 C 462.113281 207.785156 462.1875 207.746094 462.261719 207.746094 C 462.296875 207.746094 462.332031 207.75 462.359375 207.769531 C 462.464844 207.820312 462.503906 207.953125 462.453125 208.054688 L 460.78125 211.253906 C 460.730469 211.355469 460.59375 211.398438 460.492188 211.34375 C 460.441406 211.316406 460.40625 211.273438 460.386719 211.21875 C 460.371094 211.164062 460.375 211.109375 460.402344 211.058594 " fill-opacity="1" fill-rule="nonzero"/><path fill="#ffffff" d="M 471.828125 220.953125 C 471.835938 220.953125 471.839844 220.953125 471.847656 220.953125 C 471.890625 220.953125 471.933594 220.96875 471.96875 221 C 472.015625 221.039062 472.042969 221.09375 472.042969 221.15625 L 472.429688 229.640625 C 472.4375 229.757812 472.34375 229.855469 472.230469 229.863281 L 472.214844 229.863281 C 472.101562 229.863281 472.007812 229.773438 472.003906 229.660156 L 471.621094 221.179688 C 471.617188 221.058594 471.707031 220.960938 471.828125 220.953125 " fill-opacity="1" fill-rule="nonzero"/><path fill="#ffffff" d="M 477.53125 236.882812 L 472.933594 237.371094 L 472.914062 237.371094 C 472.804688 237.371094 472.710938 237.289062 472.699219 237.183594 C 472.6875 237.0625 472.773438 236.960938 472.890625 236.945312 L 477.484375 236.460938 C 477.492188 236.460938 477.5 236.460938 477.507812 236.460938 C 477.554688 236.460938 477.601562 236.476562 477.640625 236.503906 C 477.683594 236.539062 477.714844 236.589844 477.71875 236.648438 C 477.730469 236.769531 477.644531 236.871094 477.53125 236.882812 " fill-opacity="1" fill-rule="nonzero"/><path fill="#ffffff" d="M 466.734375 238.1875 C 466.636719 238.230469 466.5 238.1875 466.453125 238.082031 L 464.433594 233.703125 C 464.386719 233.59375 464.433594 233.464844 464.539062 233.417969 C 464.570312 233.402344 464.597656 233.398438 464.628906 233.398438 C 464.710938 233.398438 464.785156 233.445312 464.820312 233.523438 L 466.839844 237.902344 C 466.890625 238.011719 466.84375 238.136719 466.734375 238.1875 " fill-opacity="1" fill-rule="nonzero"/><path fill="#ffffff" d="M 462.933594 223.941406 C 463.472656 223.082031 463.859375 222.277344 464.117188 221.484375 L 464.425781 220.542969 C 464.441406 220.492188 464.480469 220.449219 464.53125 220.421875 C 464.5625 220.40625 464.597656 220.398438 464.628906 220.398438 C 464.648438 220.398438 464.671875 220.398438 464.695312 220.410156 C 464.808594 220.445312 464.867188 220.566406 464.832031 220.679688 L 464.523438 221.617188 C 464.253906 222.445312 463.851562 223.277344 463.292969 224.167969 C 461.25 227.441406 460.445312 233.390625 460.410156 233.640625 C 460.398438 233.746094 460.304688 233.824219 460.199219 233.824219 C 460.191406 233.824219 460.179688 233.824219 460.171875 233.824219 C 460.054688 233.808594 459.96875 233.703125 459.988281 233.585938 C 460.019531 233.332031 460.824219 227.320312 462.933594 223.941406 " fill-opacity="1" fill-rule="nonzero"/><g clip-path="url(#1115fd29f0)"><path fill="#c3dff9" d="M 510.691406 412.652344 L 8.703125 412.652344 L 8.703125 410.535156 L 510.691406 410.535156 L 510.691406 412.652344 " fill-opacity="1" fill-rule="nonzero"/></g></svg>